<svg width="1408" height="250" viewBox="0 0 1408 250" fill="none" xmlns="http://www.w3.org/2000/svg">
<path d="M185.27 185.611C187.299 190.058 189.426 193.525 191.652 195.945C193.877 198.365 196.005 200.196 198.034 201.406C200.259 202.812 202.583 203.728 205.037 204.153V205.657L200.783 205.363C199.572 205.166 198.132 205.003 196.528 204.905C194.892 204.807 193.19 204.643 191.357 204.447C188.936 204.251 186.546 204.087 184.223 203.989C181.899 203.891 180.001 203.826 178.594 203.826C177.186 203.826 175.386 203.891 173.259 203.989C171.132 204.087 168.939 204.251 166.714 204.447C165.077 204.643 163.408 204.807 161.706 204.905C159.972 205.003 158.499 205.166 157.288 205.363C155.881 205.363 154.441 205.461 153.034 205.657V204.153C156.699 203.956 159.71 203.041 162.164 201.406C164.194 200.196 165.699 198.201 166.714 195.487C167.728 192.74 167.106 188.947 164.881 184.074C164.881 183.878 163.932 181.556 162.001 177.076C160.07 172.629 157.583 166.645 154.539 159.156C152.117 153.891 149.172 148.986 145.735 144.408C142.299 139.862 137.619 136.2 131.728 133.453C125.837 130.706 118.375 129.202 109.375 128.908C100.342 128.613 88.9532 129.987 75.1422 132.995C72.2949 133.616 68.7931 134.369 64.6367 135.284C60.4803 136.2 56.2585 137.148 52.0039 138.162L33.4474 182.537C31.4183 187.213 31.2547 190.909 32.9893 193.623C34.7238 196.37 36.982 198.528 39.8293 200.163C43.0693 201.994 47.1275 203.302 52.0039 204.12V205.624C48.7639 205.428 45.6221 205.134 42.5784 204.709C39.9275 204.512 37.2438 204.316 34.5275 204.087C31.7783 203.891 29.3892 203.793 27.3929 203.793H25.5601C24.7419 203.793 23.7929 203.858 22.6801 203.956C21.5674 204.055 20.291 204.12 18.8837 204.12C16.8546 204.316 14.7928 204.48 12.6328 204.578C10.5055 204.676 8.41095 204.839 6.38185 205.036C4.15639 205.232 2.0291 205.428 0 205.657V204.153C3.24002 203.531 6.48003 202.321 9.72005 200.49C12.3382 198.855 15.1528 196.501 18.0983 193.361C21.0437 190.222 23.6292 185.905 25.8547 180.444C28.2765 174.787 30.9274 168.541 33.7747 161.739C36.622 154.938 39.6657 147.711 42.9057 140.026C40.6802 140.418 38.5857 140.843 36.6547 141.236C34.7238 141.628 32.9565 141.955 31.3202 142.151C26.8692 142.969 22.3528 143.656 17.771 144.277C13.2219 144.898 9.58914 143.885 6.97094 141.236C5.33457 139.601 4.68002 137.802 5.0073 135.775C5.30185 133.747 5.95639 131.818 6.97094 129.987C8.18186 127.959 9.91641 125.834 12.1419 123.61C12.9601 129.692 16.2983 133.028 22.1892 133.649C28.0801 134.27 35.9675 134.172 45.9166 133.355C50.1712 123.218 54.5239 112.851 59.0076 102.191C63.4585 91.5629 67.844 81.2294 72.0986 71.1902C76.3531 61.151 80.3131 51.7331 83.9459 42.9365C87.5786 34.1399 90.7532 26.586 93.3714 20.3074L100.964 2.68151H108.262C118.801 27.7959 128.946 51.9293 138.666 75.0162C142.724 84.7284 146.913 94.833 151.299 105.265C155.652 115.696 159.906 125.768 164.063 135.513C168.219 145.225 172.114 154.414 175.779 163.015C179.445 171.615 182.586 179.169 185.205 185.644L185.27 185.611ZM83.6841 126.651C84.5023 126.455 86.7604 125.997 90.5241 125.278C94.2878 124.558 98.8369 124.002 104.204 123.61C109.571 123.218 115.462 123.054 121.844 123.152C128.226 123.25 134.477 124.1 140.564 125.736C135.884 114.192 131.073 102.583 126.099 90.9416C121.124 79.3 116.608 68.6068 112.55 58.8946C107.87 47.5473 103.321 36.5271 98.8696 25.7684L54.753 130.935L54.4585 132.439C58.9094 131.818 63.5894 131.033 68.4331 130.019C73.3095 129.006 78.3822 127.894 83.6513 126.684L83.6841 126.651Z" fill="url(#paint0_linear_57_46)"/>
<path d="M356.205 21.223H354.995C353.587 18.8031 351.558 16.5795 348.907 14.552C346.682 12.9169 343.638 11.4127 339.776 10.0065C335.914 8.6004 331.071 7.88098 325.18 7.88098H242.739V75.6702H301.452C308.129 75.6702 313.431 75.5067 317.26 75.2124C321.122 74.9181 324.1 74.2641 326.227 73.2504C328.354 72.2366 329.729 70.8305 330.318 68.9992C330.907 67.168 331.234 64.8462 331.234 62.0012H332.445V94.2117H331.234C331.234 91.1705 330.94 88.7507 330.318 86.9194C329.696 85.0881 328.354 83.7147 326.227 82.8318C324.1 81.9161 321.089 81.3602 317.26 81.164C313.398 80.9678 308.129 80.8697 301.452 80.8697H242.739V188.456C242.739 192.707 243.296 195.912 244.409 198.038C245.521 200.163 246.798 201.733 248.205 202.746C249.612 203.956 251.347 204.578 253.376 204.578V205.788C250.725 205.591 248.205 205.395 245.783 205.166C243.754 204.97 241.692 204.807 239.532 204.709C237.405 204.61 235.736 204.545 234.525 204.545C233.314 204.545 231.645 204.61 229.518 204.709C227.39 204.807 225.198 204.97 222.972 205.166C220.55 205.363 217.899 205.559 215.052 205.788V204.578C217.081 204.578 218.914 204.087 220.517 203.073C221.728 202.06 222.907 200.457 224.019 198.201C225.132 195.977 225.688 192.838 225.688 188.783V19.3917C225.688 15.1406 225.132 11.9359 224.019 9.81034C222.907 7.68477 221.728 6.11512 220.517 5.10139C218.881 4.08765 217.081 3.59714 215.052 3.59714V2.68151H347.664L356.173 21.223H356.205Z" fill="url(#paint1_linear_57_46)"/>
<path d="M569.097 203.858C579.243 204.055 588.603 203.564 597.243 202.354C605.85 201.144 613.705 199.411 620.807 197.187C627.909 194.964 634.389 192.38 640.28 189.437C646.171 186.494 651.341 183.42 655.792 180.183C666.331 172.694 675.069 164.061 681.942 154.349C676.673 165.892 669.276 175.408 659.752 182.93C650.229 190.418 640.083 196.37 629.349 200.719C618.581 205.068 607.912 208.175 597.276 209.973C586.639 211.772 577.672 212.72 570.374 212.72C551.097 212.72 534.112 210.399 519.417 205.722C504.723 201.079 491.893 195.193 480.93 188.096C469.966 181 460.704 173.152 453.111 164.552C445.519 155.951 439.333 147.776 434.555 140.091C429.777 132.407 426.242 125.539 423.919 119.588C421.595 113.603 420.122 109.614 419.5 107.586H395.478V188.423C395.478 192.675 396.035 195.879 397.147 198.005C398.26 200.13 399.537 201.7 400.944 202.714C402.351 203.924 404.086 204.545 406.115 204.545V205.755C403.464 205.559 400.944 205.363 398.522 205.134C396.493 204.937 394.431 204.774 392.271 204.676C390.144 204.578 388.475 204.512 387.264 204.512C386.053 204.512 384.384 204.578 382.256 204.676C380.129 204.774 377.936 204.937 375.711 205.134C373.289 205.33 370.638 205.526 367.791 205.755V204.545C369.82 204.545 371.653 204.055 373.256 203.041C374.467 202.027 375.646 200.425 376.758 198.168C377.871 195.945 378.427 192.805 378.427 188.75V19.3917C378.427 15.1406 377.871 11.9359 376.758 9.81031C375.646 7.68474 374.467 6.1151 373.256 5.10136C371.62 4.08763 369.82 3.59711 367.791 3.59711V2.68149L458.446 2.97579C465.548 2.97579 472.126 4.44734 478.213 7.39044C484.301 10.3335 489.57 14.225 494.021 19.0974C498.472 23.9699 502.039 29.4963 504.657 35.6768C507.275 41.8573 508.617 48.2994 508.617 54.9704C508.617 62.2628 507.112 69.0973 504.068 75.474C501.024 81.8507 496.802 87.4426 491.435 92.1842C486.068 96.9586 479.817 100.687 472.715 103.433C465.613 106.18 458.021 107.521 449.904 107.521H438.646C439.66 111.184 441.591 115.991 444.439 121.975C447.286 127.959 451.115 134.434 455.991 141.432C460.868 148.43 466.791 155.461 473.795 162.557C480.799 169.653 488.948 176.193 498.275 182.178C507.603 188.162 518.141 193.132 529.923 197.056C541.672 201.013 554.763 203.302 569.163 203.891L569.097 203.858ZM449.871 104.186C452.097 104.186 454.29 104.022 456.417 103.728C458.544 103.433 460.606 102.877 462.635 102.06C468.722 100.032 473.828 97.0567 477.984 93.0999C482.141 89.143 485.282 84.5322 487.41 79.2673C489.537 74.0025 490.617 68.2144 490.617 61.9358C490.617 55.6572 489.406 49.1824 486.952 42.4787C483.515 32.9626 478.442 25.049 471.733 18.7704C465.057 12.4918 455.828 9.3525 444.046 9.3525H395.38V104.186H449.871ZM604.083 171.648C593.119 171.648 582.777 169.359 573.057 164.813C563.337 160.268 554.796 154.12 547.497 146.435C540.199 138.751 534.374 129.627 530.021 119.097C525.668 108.567 523.475 97.4164 523.475 85.6767C523.475 73.9371 525.668 62.5898 530.021 52.2563C534.374 41.9227 540.199 32.8645 547.497 25.049C554.796 17.2661 563.305 11.1184 573.057 6.67101C582.777 2.22367 593.119 0 604.083 0C615.047 0 625.487 2.22367 635.403 6.67101C645.352 11.1184 654.058 17.2661 661.552 25.049C669.047 32.8645 675.036 41.9227 679.487 52.2563C683.938 62.5898 686.163 73.7408 686.163 85.6767C686.163 97.6126 683.938 108.567 679.487 119.097C675.036 129.627 669.047 138.751 661.552 146.435C654.058 154.153 645.32 160.268 635.403 164.813C625.454 169.359 615.014 171.648 604.083 171.648ZM577.018 10.8894C567.887 14.9444 560.556 21.1903 554.959 29.5944C549.363 37.9986 545.468 47.2203 543.243 57.2595C541.017 67.2987 540.232 77.5342 540.952 87.9658C541.672 98.3974 543.734 107.783 547.203 116.089C550.639 124.199 555.352 131.654 561.341 138.424C567.33 145.225 574.105 150.686 581.73 154.839C589.323 158.992 597.407 161.576 605.916 162.59C614.425 163.603 622.934 162.59 631.476 159.548C641.196 156.115 649.051 150.719 655.04 143.427C661.029 136.134 665.185 127.73 667.509 118.214C669.833 108.698 670.291 98.2666 668.883 86.9194C667.476 75.5721 664.334 64.1267 659.458 52.5833C655.4 43.0673 650.131 34.9574 643.651 28.2864C637.171 21.6154 630.101 16.4486 622.509 12.7861C614.916 9.12359 607.159 7.16153 599.239 6.86722C591.319 6.57291 583.923 7.94635 577.05 10.9548L577.018 10.8894Z" fill="url(#paint2_linear_57_46)"/>
<path d="M793.28 2.35438C805.848 2.35438 817.662 5.03586 828.724 10.3988C839.786 15.7618 849.441 23.0214 857.786 32.145C866.099 41.2686 872.644 51.9946 877.423 64.3556C882.201 76.7166 884.557 89.8951 884.557 103.858C884.557 110.333 884.001 116.743 882.888 123.021C881.776 129.3 880.106 135.48 877.881 141.563C872.186 157.357 863.284 170.797 851.11 181.818C838.935 192.871 824.437 200.098 807.615 203.564C804.768 203.956 802.019 204.316 799.4 204.643C796.75 204.937 794.033 205.101 791.186 205.101C788.535 205.297 785.557 205.461 782.219 205.559C778.88 205.657 775.182 205.722 771.124 205.722H707.24V204.512C709.269 204.512 711.102 204.022 712.705 203.008C713.916 201.994 715.095 200.392 716.207 198.136C717.32 195.912 717.876 192.773 717.876 188.718V19.3916C717.876 15.1405 717.32 11.9358 716.207 9.81022C715.095 7.68465 713.916 6.115 712.705 5.10127C711.069 4.08753 709.269 3.59702 707.24 3.59702V2.68139L749.818 2.38708H793.313L793.28 2.35438ZM863.841 136.69C866.066 125.147 866.623 113.44 865.51 101.602C864.397 89.7643 861.812 79.071 857.753 69.555C854.906 62.4589 851.208 55.8206 846.659 49.6401C842.11 43.4596 836.939 37.9004 831.146 32.9299C825.353 27.9593 819.07 23.7736 812.295 20.3073C805.488 16.8736 798.451 14.323 791.153 12.7206C787.717 12.0993 783.757 11.6088 779.306 11.2164C775.444 10.8239 770.829 10.4642 765.462 10.1372C760.095 9.84292 753.844 9.67941 746.742 9.67941H734.895V188.685C734.895 189.077 735.091 190.058 735.516 191.563C735.909 193.067 736.826 194.669 738.266 196.272C739.673 197.907 741.8 199.378 744.647 200.686C747.495 201.994 751.324 202.648 756.2 202.648H771.091C772.924 202.648 774.953 202.55 777.179 202.354C779.011 202.158 781.073 201.994 783.429 201.896C785.753 201.798 788.339 201.536 791.186 201.144C795.833 200.752 800.513 200.032 805.16 199.018C809.808 198.005 813.866 196.697 817.335 195.062C817.531 195.062 817.63 194.964 817.63 194.767C829.379 189.699 839.426 181.85 847.739 171.223C856.052 160.595 861.419 149.084 863.874 136.723L863.841 136.69Z" fill="url(#paint3_linear_57_46)"/>
<path d="M931.652 188.358C931.652 192.609 932.209 195.814 933.321 197.939C934.434 200.065 935.71 201.635 937.118 202.648C938.525 203.858 940.259 204.48 942.289 204.48V205.69C939.638 205.493 937.118 205.297 934.696 205.068C932.667 204.872 930.605 204.709 928.445 204.61C926.318 204.512 924.648 204.447 923.438 204.447C922.227 204.447 920.557 204.512 918.43 204.61C916.303 204.709 914.11 204.872 911.885 205.068C909.463 205.264 906.812 205.461 903.965 205.69V204.48C905.994 204.48 907.827 203.989 909.43 202.975C910.641 201.962 911.819 200.359 912.932 198.103C914.045 195.879 914.601 192.74 914.601 188.685V19.686C914.601 15.4349 914.045 12.2302 912.932 10.1046C911.819 7.97905 910.641 6.4094 909.43 5.39566C907.794 4.18573 905.994 3.56441 903.965 3.56441V2.64878C906.812 2.84498 909.43 3.04119 911.885 3.2701C914.11 3.4663 916.303 3.62981 918.43 3.72791C920.557 3.82601 922.227 3.89142 923.438 3.89142C924.648 3.89142 926.318 3.85871 928.445 3.72791C930.572 3.62981 932.667 3.4663 934.696 3.2701C937.118 3.07389 939.67 2.87768 942.289 2.64878V3.56441C940.259 3.56441 938.525 4.18573 937.118 5.39566C935.71 6.4094 934.434 8.04445 933.321 10.2681C932.209 12.4918 931.652 15.7292 931.652 19.9803V188.358Z" fill="url(#paint4_linear_57_46)"/>
<path d="M990.954 188.358C990.954 192.609 991.511 195.814 992.623 197.939C993.736 200.065 995.012 201.635 996.42 202.648C997.827 203.858 999.562 204.48 1001.59 204.48V205.69C998.94 205.493 996.42 205.297 993.998 205.068C991.969 204.872 989.907 204.709 987.747 204.61C985.62 204.512 983.951 204.447 982.74 204.447C981.529 204.447 979.86 204.512 977.732 204.61C975.605 204.709 973.412 204.872 971.187 205.068C968.765 205.264 966.114 205.461 963.267 205.69V204.48C965.296 204.48 967.129 203.989 968.732 202.975C969.943 201.962 971.121 200.359 972.234 198.103C973.347 195.879 973.903 192.74 973.903 188.685V19.686C973.903 15.4349 973.347 12.2302 972.234 10.1046C971.121 7.97905 969.943 6.4094 968.732 5.39566C967.096 4.18573 965.296 3.56441 963.267 3.56441V2.64878C966.114 2.84498 968.732 3.04119 971.187 3.2701C973.412 3.4663 975.605 3.62981 977.732 3.72791C979.86 3.82601 981.529 3.89142 982.74 3.89142C983.951 3.89142 985.62 3.85871 987.747 3.72791C989.874 3.62981 991.969 3.4663 993.998 3.2701C996.42 3.07389 998.972 2.87768 1001.59 2.64878V3.56441C999.562 3.56441 997.827 4.18573 996.42 5.39566C995.012 6.4094 993.736 8.04445 992.623 10.2681C991.511 12.4918 990.954 15.7292 990.954 19.9803V188.358Z" fill="url(#paint5_linear_57_46)"/>
<path d="M1178.02 21.223H1176.52C1175.31 18.8031 1173.38 16.5794 1170.73 14.552C1168.5 12.9169 1165.46 11.4127 1161.6 10.0065C1157.73 8.60037 1152.86 7.88094 1147 7.88094H1104.71V188.391C1104.71 192.642 1105.27 195.847 1106.38 197.972C1107.5 200.098 1108.77 201.667 1110.18 202.681C1111.59 203.891 1113.32 204.512 1115.35 204.512V205.722C1112.7 205.526 1110.18 205.33 1107.76 205.101C1105.53 204.905 1103.41 204.741 1101.38 204.643C1099.35 204.545 1097.71 204.48 1096.5 204.48C1095.29 204.48 1093.62 204.545 1091.49 204.643C1089.37 204.741 1087.17 204.905 1084.95 205.101C1082.53 205.297 1079.87 205.493 1077.03 205.722V204.512C1079.06 204.512 1080.79 204.022 1082.2 203.008C1083.61 201.994 1084.82 200.392 1085.86 198.136C1086.88 195.912 1087.37 192.773 1087.37 188.718V7.84824H1043.25C1037.36 7.84824 1032.49 8.56766 1028.66 9.97381C1024.79 11.38 1021.75 12.9169 1019.53 14.5193C1016.87 16.5467 1014.85 18.7704 1013.44 21.1903H1012.23L1020.74 2.64878H1169.48L1177.99 21.1903L1178.02 21.223Z" fill="url(#paint6_linear_57_46)"/>
<path d="M1299.08 226.651C1307.59 231.295 1315.71 234.794 1323.43 237.148C1331.12 239.47 1338.39 241.007 1345.16 241.693C1351.97 242.413 1358.19 242.446 1363.88 241.857C1369.55 241.236 1374.72 240.353 1379.4 239.11C1390.36 236.069 1399.88 231.098 1408 224.231C1397.66 234.957 1386.92 242.151 1375.76 245.814C1364.6 249.476 1353.12 250.719 1341.24 249.607C1329.39 248.495 1317.25 245.389 1304.88 240.353C1292.5 235.284 1279.94 229.202 1267.17 222.106C1257.03 216.644 1247.24 212.688 1237.82 210.268C1228.39 207.848 1220.01 206.311 1212.72 205.722C1204.21 204.905 1196.09 204.905 1188.4 205.722V204.512C1190.43 204.512 1192.26 204.022 1193.86 203.008C1195.08 201.994 1196.25 200.392 1197.37 198.136C1198.48 195.912 1199.04 192.773 1199.04 188.718V19.3917C1199.04 15.1406 1198.48 11.9359 1197.37 9.81034C1196.25 7.68477 1195.08 6.11512 1193.86 5.10139C1192.23 4.08765 1190.43 3.59714 1188.4 3.59714V2.68151H1321.01L1329.52 21.223H1328.31C1326.9 18.8031 1324.87 16.5795 1322.22 14.552C1320 12.9169 1316.95 11.4127 1313.09 10.0065C1309.23 8.6004 1304.38 7.88098 1298.49 7.88098H1216.05V75.6702H1274.77C1281.44 75.6702 1286.74 75.5067 1290.57 75.2124C1294.44 74.9181 1297.41 74.2641 1299.54 73.2504C1301.67 72.2366 1303.04 70.8632 1303.63 69.1627C1304.25 67.4296 1304.55 65.1732 1304.55 62.3282H1305.76V94.2444H1304.55C1304.55 91.2032 1304.25 88.7834 1303.63 86.9521C1303.01 85.1208 1301.67 83.7474 1299.54 82.8645C1297.41 81.9488 1294.4 81.3929 1290.57 81.1967C1286.71 81.0005 1281.44 80.9024 1274.77 80.9024H1216.05V199.444C1225.58 199.444 1234.35 200.392 1242.37 202.321C1250.38 204.251 1257.78 206.573 1264.56 209.319C1271.36 212.066 1277.58 214.977 1283.28 218.149C1288.94 221.288 1294.24 224.166 1299.08 226.814V226.651Z" fill="url(#paint7_linear_57_46)"/>
<defs>
<linearGradient id="paint0_linear_57_46" x1="654" y1="-504.5" x2="732.128" y2="299.407" gradientUnits="userSpaceOnUse">
<stop offset="0.421618" stop-color="white"/>
<stop offset="1" stop-color="#E4A0F7" stop-opacity="0.9"/>
</linearGradient>
<linearGradient id="paint1_linear_57_46" x1="654" y1="-504.5" x2="732.128" y2="299.407" gradientUnits="userSpaceOnUse">
<stop offset="0.421618" stop-color="white"/>
<stop offset="1" stop-color="#E4A0F7" stop-opacity="0.9"/>
</linearGradient>
<linearGradient id="paint2_linear_57_46" x1="654" y1="-504.5" x2="732.128" y2="299.407" gradientUnits="userSpaceOnUse">
<stop offset="0.421618" stop-color="white"/>
<stop offset="1" stop-color="#E4A0F7" stop-opacity="0.9"/>
</linearGradient>
<linearGradient id="paint3_linear_57_46" x1="654" y1="-504.5" x2="732.128" y2="299.407" gradientUnits="userSpaceOnUse">
<stop offset="0.421618" stop-color="white"/>
<stop offset="1" stop-color="#E4A0F7" stop-opacity="0.9"/>
</linearGradient>
<linearGradient id="paint4_linear_57_46" x1="654" y1="-504.5" x2="732.128" y2="299.407" gradientUnits="userSpaceOnUse">
<stop offset="0.421618" stop-color="white"/>
<stop offset="1" stop-color="#E4A0F7" stop-opacity="0.9"/>
</linearGradient>
<linearGradient id="paint5_linear_57_46" x1="654" y1="-504.5" x2="732.128" y2="299.407" gradientUnits="userSpaceOnUse">
<stop offset="0.421618" stop-color="white"/>
<stop offset="1" stop-color="#E4A0F7" stop-opacity="0.9"/>
</linearGradient>
<linearGradient id="paint6_linear_57_46" x1="654" y1="-504.5" x2="732.128" y2="299.407" gradientUnits="userSpaceOnUse">
<stop offset="0.421618" stop-color="white"/>
<stop offset="1" stop-color="#E4A0F7" stop-opacity="0.9"/>
</linearGradient>
<linearGradient id="paint7_linear_57_46" x1="654" y1="-504.5" x2="732.128" y2="299.407" gradientUnits="userSpaceOnUse">
<stop offset="0.421618" stop-color="white"/>
<stop offset="1" stop-color="#E4A0F7" stop-opacity="0.9"/>
</linearGradient>
</defs>
</svg>
