<svg width="112" height="20" viewBox="0 0 112 20" fill="none" xmlns="http://www.w3.org/2000/svg">
<path d="M44.658 5.14386C44.658 2.40706 42.4325 0.00321576 39.8975 0.00321576C37.1271 0.00321576 34.3601 0.00321576 31.5897 0.00321576L31.9518 0.793522C31.9518 0.793522 32.1135 0.786204 32.2541 0.928898C32.4229 1.10086 32.5143 1.43016 32.5143 1.88019V17.4156C32.5143 17.8656 32.4229 18.1949 32.2541 18.3669C32.117 18.5059 31.9588 18.5022 31.9588 18.5022L31.5756 19.3767C32.9327 19.3767 34.2898 19.3767 35.6469 19.3767C35.5239 19.084 35.3973 18.7913 35.2742 18.4986C35.2672 18.4986 35.1125 18.5022 34.9789 18.3632C34.8066 18.1876 34.7117 17.851 34.7117 17.3863V10.3357H36.2165C36.6067 11.5139 38.1291 15.3666 41.9473 17.8327C43.0653 18.5535 45.9096 20.178 49.7243 19.9841C50.0934 19.9658 56.879 19.5157 59.8112 14.1921C60.2788 13.3433 60.5425 12.564 60.6936 12.0078C60.3878 12.5457 59.9166 13.2884 59.231 14.0677C58.8865 14.4592 55.1281 18.6156 49.6293 18.44C44.9885 18.2937 40.6956 15.1105 38.6424 10.3321H39.1381C42.1758 10.3321 44.6474 8.0014 44.6474 5.1402L44.658 5.14386ZM34.7152 1.32771H38.6389C40.3124 1.32771 41.4375 2.24242 42.0774 4.12671C42.4922 5.31949 42.4817 6.49763 42.0387 7.44526C41.666 8.24655 41.0156 8.82464 40.1437 9.12466C39.8659 9.23809 39.5214 9.29663 39.1487 9.29663H34.7152V1.32771Z" fill="white"/>
<path d="M68.4952 0.00325229C68.3933 -0.00406536 68.4073 0.00325229 64.6841 0.00325229C63.5836 0.00325229 61.991 0.00325229 60.9257 0.00325229H60.5776C60.7007 0.284982 60.8272 0.563052 60.9503 0.844782C60.9538 0.844782 61.112 0.841123 61.2526 0.980158C61.4214 1.15212 61.5128 1.47776 61.5128 1.92779V17.4192C61.5128 17.8693 61.4214 18.1949 61.2526 18.3669C61.1155 18.5059 60.9573 18.5023 60.9608 18.5023C60.8343 18.784 60.7077 19.0621 60.5776 19.3438H66.5404C67.3174 19.3438 67.9292 19.3109 68.3054 19.2889C73.5897 19.2889 76.8629 14.291 76.8629 9.66254C76.8664 3.84502 71.5751 0.182535 68.4952 0.00325229ZM63.7172 17.4229V1.40458H64.4063C66.7725 1.40458 68.2315 1.67533 68.2351 1.67533C70.668 2.22782 72.8654 4.18529 73.8393 6.65865C74.5143 8.33439 74.7112 10.6102 74.3526 12.5969C73.9342 14.7995 72.4083 16.7899 70.4535 17.679C69.4339 18.1949 67.5635 18.312 66.5439 18.3376H65.2361C63.7454 18.3376 63.7172 17.4595 63.7172 17.4229Z" fill="white"/>
<path d="M80.7584 4.65367C80.8991 4.50731 81.0538 4.50731 81.0538 4.50731L81.4264 3.65847C80.0693 3.65847 78.7122 3.65847 77.3551 3.65847C77.4782 3.9402 77.5977 4.22192 77.7208 4.50365C77.7208 4.50365 77.886 4.50365 78.0302 4.65001C78.2024 4.82929 78.2938 5.16224 78.2938 5.61228V17.4193C78.2938 17.8693 78.2024 18.195 78.0337 18.3669C77.8966 18.506 77.7383 18.5023 77.7419 18.5023C77.6153 18.795 77.4887 19.0841 77.3586 19.3768C78.7157 19.3768 80.0728 19.3768 81.4299 19.3768C81.3069 19.0841 81.1803 18.7914 81.0573 18.5023C81.0538 18.5023 80.8991 18.506 80.7619 18.3706C80.5897 18.195 80.4983 17.8584 80.4983 17.3937V5.64521C80.4983 5.18054 80.5897 4.83661 80.769 4.65367H80.7584Z" fill="white"/>
<path d="M87.3154 19.3803C87.1924 19.0876 87.0658 18.7949 86.9427 18.5058C86.9357 18.5058 86.7845 18.5095 86.6474 18.3741C86.4751 18.1985 86.3837 17.8619 86.3837 17.3972V8.938C86.3837 8.47333 86.4751 8.1294 86.6545 7.94646C86.7951 7.80011 86.9498 7.80011 86.9498 7.80011L87.3225 7.82206C87.1959 7.54399 87.0693 7.26592 86.9392 6.98785C85.8353 6.98785 84.7348 6.98785 83.6308 6.98785C83.5078 7.2586 83.3847 7.53302 83.2582 7.80377H83.6133C83.6133 7.80377 83.7785 7.80011 83.9227 7.94646C84.0949 8.12575 84.1863 8.4587 84.1863 8.90873V17.4228C84.1863 17.8729 84.0949 18.1985 83.9262 18.3705C83.7891 18.5095 83.6308 18.5058 83.6344 18.5058C83.5078 18.7985 83.3812 19.0876 83.2511 19.3803C84.6082 19.3803 85.9653 19.3803 87.3225 19.3803H87.3154Z" fill="white"/>
<path d="M86.5173 1.2142H90.0402V17.4191C90.0402 17.8765 89.9523 18.2058 89.7835 18.3741C89.6535 18.5021 89.5128 18.4985 89.5163 18.5021C89.3898 18.7948 89.2597 19.0839 89.1331 19.3766C90.4902 19.3766 91.8473 19.3766 93.2044 19.3766C93.0814 19.0839 92.9548 18.7912 92.8318 18.5021C92.8282 18.5021 92.6735 18.5058 92.5364 18.3704C92.3642 18.1948 92.2727 17.8582 92.2727 17.3935V1.2142H95.6374C97.4375 1.2142 97.891 2.18379 97.9086 2.22038L98 2.43991H98.9141L97.8348 0.00678883H84.3129L83.2406 2.43991H84.116L84.211 2.22769C84.2285 2.18745 84.7067 1.21054 86.5103 1.21054L86.5173 1.2142Z" fill="white"/>
<path d="M111.996 16.9142H111.118L111.023 17.1264C111.005 17.1667 110.527 18.1399 108.723 18.1399H101.832V7.89887H106.691C106.923 7.89887 107.222 7.93912 107.324 8.12206C107.387 8.23548 107.528 8.70747 106.761 10.0759L106.572 10.4125L107.313 10.7967L110.175 5.59381L109.437 5.20964L109.272 5.51332C108.853 6.28899 108.554 6.69146 106.825 6.69146H101.832V1.2142H108.723C110.53 1.2142 111.005 2.18745 111.023 2.22404L111.118 2.43991H112L110.928 0.00678883H98.6961C98.8192 0.277542 98.9458 0.551954 99.0688 0.822706C99.0723 0.822706 99.2305 0.819048 99.3712 0.958083C99.5399 1.13005 99.6313 1.45568 99.6313 1.90572V17.4191C99.6313 17.8692 99.5399 18.1948 99.3712 18.3668C99.2341 18.5058 99.0758 18.5021 99.0758 18.5021C98.9493 18.7839 98.8227 19.0656 98.6926 19.3437H110.924C111.283 18.5314 111.638 17.7228 111.996 16.9106V16.9142Z" fill="white"/>
<path d="M30.7212 0.00678883H18.4897L18.5003 0.837342L18.8659 0.822706C18.8659 0.822706 19.0311 0.819048 19.1683 0.958083C19.337 1.13005 19.4284 1.45568 19.4284 1.90572V17.4045C19.4284 17.8545 19.337 18.1802 19.1683 18.3521C19.0452 18.4765 18.8764 18.4875 18.8764 18.4875C18.8202 18.4985 18.778 18.4985 18.7323 18.4985C18.7323 18.4985 18.56 18.4985 18.3983 18.4582C17.5686 18.2387 16.9533 16.9801 16.9533 16.9801C15.0758 12.359 10.2381 0.354377 10.1924 0.233636L10.101 0.0104477H8.99347L8.23405 1.84718C7.79458 2.93385 7.17579 4.46689 6.49021 6.17191C5.74485 8.02693 4.91512 10.0868 4.14515 11.9894C2.45756 12.1175 1.84932 12.0809 1.76846 11.4004L1.68056 10.6832L1.17428 11.1808C1.09694 11.2577 0.432446 11.9346 0.432446 12.6224C0.432446 12.8932 0.530889 13.1346 0.713712 13.3176C0.956303 13.57 1.31843 13.7018 1.76494 13.7018C2.16575 13.7018 2.59819 13.614 2.98142 13.5371L3.13611 13.5042C3.25917 13.4932 3.39277 13.4676 3.53692 13.442L3.29784 14.0384C2.9322 14.9494 2.59468 15.7873 2.29583 16.5117C1.61728 18.268 0.36213 18.4473 0.312908 18.4546C0.207433 18.7546 0.101959 19.0546 0 19.3546C1.75791 19.3546 3.51582 19.3546 5.27373 19.3546C5.17177 19.0546 5.06981 18.7546 4.96786 18.4509C4.67253 18.4107 3.84982 18.2058 3.59317 17.7374C3.48418 17.5362 3.49121 17.2874 3.61778 16.9801L5.1788 13.0944C5.50929 13.0176 5.83978 12.9407 6.14566 12.8676C6.47966 12.7871 6.78554 12.7139 7.02813 12.6627C8.07936 12.4285 9.00753 12.3078 9.78805 12.3078C12.2737 12.3078 13.0402 13.5627 13.6062 14.836C13.9016 15.5897 14.1477 16.2007 14.3094 16.5996C14.3973 16.8154 14.4571 16.9654 14.4887 17.0423L14.5168 17.1228C14.6399 17.4191 14.7524 17.8253 14.5907 18.085C14.4149 18.3704 13.9543 18.4436 13.7926 18.4473C13.6765 18.7509 13.5605 19.051 13.448 19.3546H18.9643C20.1492 19.3546 21.4395 19.3546 22.5681 19.3546C22.445 19.0619 22.3184 18.7692 22.1954 18.4802C22.1883 18.4802 22.0337 18.4802 21.9001 18.3485C21.7278 18.1728 21.6328 17.8362 21.6328 17.3716V7.88789H26.439C28.7067 7.88789 28.7067 7.95375 28.7067 8.74772V9.1136H29.5153V5.43282H28.7067V5.79871C28.7067 6.51584 28.7067 6.68414 26.439 6.68414H21.6328V1.2142H28.5239C30.331 1.2142 30.8056 2.18745 30.8232 2.22404L30.9181 2.43991H31.8006L30.7212 0.00678883ZM10.6143 11.0272C9.36263 11.0272 8.22351 11.254 7.79809 11.3382C7.72778 11.3528 7.67855 11.3601 7.6223 11.3711C6.84882 11.5614 6.21597 11.7004 5.67454 11.7992L9.03918 3.44242C9.62983 4.92059 10.9342 8.17694 12.1226 11.1552C11.6303 11.0747 11.1205 11.0308 10.6143 11.0308V11.0272Z" fill="white"/>
<path d="M52.8112 0.00321576C53.8343 0.00321576 54.8117 0.20811 55.7363 0.617898C56.6645 1.02769 57.4802 1.5948 58.1798 2.31193C58.8795 3.03272 59.4385 3.86693 59.8533 4.81823C60.2682 5.76952 60.4756 6.79765 60.4756 7.89896C60.4756 9.00026 60.2682 10.0064 59.8533 10.9797C59.4385 11.9493 58.8795 12.7908 58.1798 13.497C57.4802 14.2068 56.6645 14.7702 55.7363 15.191C54.8081 15.6081 53.8307 15.8203 52.8112 15.8203C51.7916 15.8203 50.8212 15.6081 49.9141 15.191C49.007 14.7739 48.2089 14.2068 47.5269 13.497C46.8448 12.7871 46.2998 11.9493 45.8955 10.9797C45.4877 10.0101 45.2838 8.98197 45.2838 7.89896C45.2838 6.81594 45.4877 5.77318 45.8955 4.81823C46.3034 3.86693 46.8448 3.03272 47.5269 2.31193C48.2089 1.5948 49.0035 1.02769 49.9141 0.617898C50.8212 0.20811 51.788 0.00321576 52.8112 0.00321576ZM53.2295 0.544722C52.6178 0.504475 52.0095 0.566674 51.4119 0.702051C50.9653 0.800839 50.5294 0.95451 50.1145 1.15209C49.7383 1.33137 49.3727 1.52894 49.0246 1.77043C48.6519 2.0302 48.3039 2.31193 47.9839 2.63757C47.7519 2.87173 47.5269 3.11322 47.33 3.38397C47.0874 3.71692 46.8553 4.05353 46.6655 4.42307C46.4932 4.75969 46.3772 5.02312 46.342 5.10727C46.219 5.40364 46.0748 5.80611 45.9623 6.30371C45.9166 6.57812 45.8744 6.85619 45.8287 7.1306C45.783 7.62454 45.776 8.24288 45.8709 8.9344C45.9729 9.65153 46.1522 10.1894 46.2436 10.4455C46.3702 10.8004 46.5319 11.1443 46.7112 11.4773C46.996 12.0078 47.3335 12.4908 47.7202 12.9372C48.0718 13.3433 48.4691 13.6909 48.898 13.9982C49.2567 14.2543 49.6293 14.4812 50.0231 14.6641C50.329 14.8032 50.6454 14.9129 50.9653 15.0117C51.3697 15.1398 51.7916 15.1727 52.1994 15.2642C52.3471 15.2971 52.3682 15.2129 52.3998 15.1142C52.5053 14.7702 52.7303 14.5287 53.0151 14.3568C53.3491 14.1555 53.7182 14.0568 54.0804 13.9324C54.4495 13.808 54.8046 13.6616 55.0964 13.3726C55.339 13.1347 55.4515 12.6262 55.3109 12.3188C55.1914 12.059 55.0613 11.8029 55.0156 11.5066C54.9558 11.6566 55.0753 11.8066 54.9945 11.9712C54.7308 11.4956 54.7906 11.0382 54.9769 10.5809C55.107 10.2626 55.325 9.99912 55.4902 9.70276C55.673 9.38078 55.7715 9.05149 55.6906 8.67097C55.6765 8.61609 55.6484 8.55389 55.6765 8.45876C55.7469 8.60511 55.8348 8.71487 55.8523 8.85391C55.9051 9.21613 55.8523 9.56372 55.7047 9.89667C55.557 10.226 55.4023 10.5516 55.3214 10.9138C55.2582 11.2029 55.2933 11.4773 55.3707 11.7444C55.4304 11.9602 55.5148 12.1688 55.5676 12.3883C55.6308 12.6481 55.5851 12.8896 55.4867 13.1238C55.3004 13.5774 54.9242 13.8116 54.5269 14.0055C54.1401 14.1921 53.7182 14.3092 53.3631 14.5617C53.1241 14.7336 52.9201 14.9495 52.8674 15.2861C53.2541 15.2898 53.6303 15.2349 54.003 15.169C54.3335 15.1105 54.6534 15.0117 54.9734 14.8983C55.5429 14.6934 56.0316 14.3787 56.3199 13.797C56.4465 13.5445 56.4957 13.2738 56.436 12.9774C56.3692 12.6554 56.1723 12.4322 55.993 12.1871C55.8558 12.0042 55.7223 11.8212 55.6555 11.5834C55.5324 11.1516 55.659 10.7565 55.782 10.3613C55.8699 10.0723 55.9859 9.79423 56.0422 9.49786C56.1125 9.11003 56.0984 8.72585 55.8875 8.3746C55.7609 8.16605 55.5711 8.03067 55.4023 7.86969C55.2441 7.71967 55.1281 7.53673 55.0613 7.32086C55.2406 7.54039 55.4586 7.70138 55.6836 7.85505C55.9051 8.0014 56.0773 8.19898 56.1652 8.45876C56.2918 8.83196 56.2356 9.20881 56.1371 9.5747C56.0422 9.93692 55.9086 10.2845 55.8453 10.6577C55.7539 11.1846 55.8312 11.6383 56.2145 12.0042C56.2567 12.0444 56.2953 12.092 56.334 12.1322C56.3692 12.1688 56.4078 12.2054 56.443 12.2456C56.45 12.2383 56.4606 12.2273 56.4711 12.22C56.2004 11.9017 55.9684 11.5651 56.0422 11.0748C56.0773 11.1809 56.0527 11.276 56.0914 11.3602C56.1969 11.5907 56.3551 11.7773 56.5239 11.9566C56.6821 12.1249 56.8192 12.3078 56.8649 12.5603C56.9106 12.7981 56.9036 13.0286 56.8579 13.2921C57.0653 13.153 57.2165 12.9811 57.3817 12.8237C57.8775 12.3591 58.2572 11.7956 58.5876 11.1919C58.8338 10.7419 59.0306 10.2626 59.1678 9.7613C59.2205 9.56372 59.2767 9.36614 59.3119 9.16491C59.3576 8.89781 59.3963 8.63072 59.4139 8.35997C59.442 7.94286 59.442 7.52942 59.4174 7.11597C59.4033 6.82326 59.3963 6.53056 59.3822 6.23785C59.3787 6.13906 59.3611 6.02564 59.4103 5.91221C59.4701 6.05125 59.4877 6.19029 59.5229 6.32566C59.6178 6.69886 59.6459 7.07938 59.6811 7.4599C59.7373 8.02701 59.6459 8.59047 59.5615 9.14661C59.5018 9.53811 59.3893 9.91863 59.2486 10.2845C59.1713 10.4857 59.0939 10.6943 59.0025 10.8919C58.8724 11.1773 58.7318 11.4553 58.5666 11.7151C58.331 12.0846 58.0779 12.4432 57.7755 12.7615C57.5294 13.0176 57.2798 13.2664 57.009 13.4896C56.886 13.5921 56.7348 13.6726 56.668 13.8299C56.6188 13.9507 56.5625 14.0641 56.4957 14.1848C56.5133 14.1848 56.5274 14.1848 56.5344 14.1775C56.995 13.9031 57.4134 13.5738 57.8001 13.1896C58.229 12.7652 58.5876 12.2822 58.897 11.759C59.1959 11.2541 59.4244 10.7126 59.6108 10.1455C59.8006 9.56006 59.9131 8.96001 59.9483 8.34899C59.994 7.54039 59.9553 6.73911 59.7162 5.95612C59.6776 5.82806 59.6248 5.70366 59.5967 5.57194C59.5264 5.26826 59.3928 4.99385 59.2662 4.71578C59.1361 4.43039 58.9709 4.1633 58.8056 3.89254C58.5279 3.44251 58.2044 3.03638 57.8423 2.66684C57.4731 2.28632 57.0583 1.95337 56.6188 1.67164C56.0141 1.2838 55.3742 0.976463 54.6886 0.789863C54.2069 0.654486 53.7217 0.573992 53.226 0.541063L53.2295 0.544722ZM54.8046 10.1382C54.8222 10.2552 54.773 10.354 54.7273 10.4382C54.5198 10.8297 54.5093 11.2504 54.555 11.6749C54.5796 11.8907 54.6921 12.0883 54.7695 12.2932C54.9206 12.6957 54.8714 13.0579 54.5726 13.3652C54.3827 13.5665 54.1507 13.6945 53.9081 13.8006C53.56 13.9506 53.1909 14.0421 52.8604 14.2324C52.7092 14.3165 52.5826 14.4482 52.4596 14.58C52.4385 14.6056 52.4103 14.6239 52.3541 14.6751C52.4209 14.4226 52.5475 14.269 52.7022 14.1446C52.9553 13.9397 53.2506 13.8226 53.5424 13.7018C53.8835 13.5592 54.2315 13.4201 54.4812 13.1128C54.7202 12.8237 54.7695 12.5493 54.5726 12.2237C54.3546 11.8651 54.2843 11.4736 54.3511 11.0565C54.3827 10.8406 54.4917 10.654 54.5902 10.4674C54.6499 10.354 54.7273 10.2516 54.8011 10.1455L54.8046 10.1382ZM46.6022 5.2646C46.6303 5.31949 46.6268 5.36339 46.6163 5.40364C46.5249 5.70366 46.4792 6.011 46.4405 6.31834C46.3491 7.06474 46.2893 7.8148 46.3807 8.57218C46.451 9.13564 46.5706 9.6808 46.7499 10.2113C46.8378 10.4748 46.9608 10.7236 47.0839 10.9724C47.214 11.2395 47.3546 11.5029 47.5234 11.7444C47.773 12.1103 48.0296 12.4725 48.3425 12.7835C48.4656 12.9079 48.5886 13.0359 48.7363 13.186C48.7363 12.9042 48.7609 12.6664 48.8805 12.4469C49.0422 12.1432 49.2883 11.9566 49.5871 11.8578C50.0372 11.7115 50.5153 11.6932 50.9689 11.5468C51.4083 11.4041 51.7634 11.126 51.9006 10.6358C52.006 10.2626 51.9709 9.87106 51.9427 9.48689C51.9287 9.33321 51.9252 9.17588 51.9181 9.0149C51.9709 9.03319 52.0025 9.05514 52.0271 9.09905C52.217 9.45396 52.4666 9.75032 52.7901 9.97717C52.9307 10.076 53.0854 10.1272 53.2471 10.1565C53.3596 10.1747 53.3631 10.2296 53.3104 10.3211C53.1803 10.537 53.0678 10.7638 53.0045 11.0126C52.8076 11.7663 53.0045 12.392 53.5987 12.8311C53.6444 12.864 53.6866 12.9042 53.7464 12.9591C53.5635 13.0616 53.3737 13.1091 53.1873 13.164C52.6635 13.3213 52.1572 13.5079 51.774 13.9616C51.6685 14.086 51.6087 14.2397 51.5279 14.3787C51.4927 14.4409 51.4751 14.4482 51.4294 14.4117C51.1095 14.1665 50.7509 13.9872 50.3852 13.8409C50.0442 13.7018 49.6856 13.614 49.3129 13.6067C49.4922 13.797 49.6856 13.958 49.879 14.1336C49.7664 14.086 49.6504 14.0458 49.545 13.9872C48.898 13.6214 48.332 13.153 47.8433 12.5676C47.4882 12.1432 47.1893 11.6822 46.9292 11.1846C46.6514 10.6541 46.5108 10.2186 46.4756 10.1052C46.2717 9.48323 46.1873 8.93074 46.1487 8.50998C46.1276 8.36728 46.1065 8.17703 46.103 7.95384C46.103 7.88798 46.103 7.73797 46.1135 7.47819C46.1311 7.15621 46.1662 6.8379 46.226 6.51958C46.2823 6.20492 46.3842 5.90856 46.4545 5.60487C46.4827 5.49145 46.5565 5.39266 46.6198 5.27192L46.6022 5.2646ZM56.4992 14.1921C56.4992 14.1921 56.4922 14.1921 56.4887 14.1921H56.4992ZM51.0075 8.76976C50.9794 9.39176 50.7649 9.91863 50.3325 10.3467C50.0126 10.665 49.6258 10.8333 49.2285 10.9943C48.8172 11.1626 48.4726 11.4261 48.2652 11.8541C48.2089 11.9749 48.2054 12.1212 48.1386 12.2566C48.0824 12.1725 48.0648 12.092 48.0789 12.0078C48.1421 11.6675 48.223 11.3382 48.441 11.0602C48.6168 10.8333 48.8383 10.6906 49.0809 10.5736C49.436 10.3979 49.8227 10.2735 50.1356 10.0138C50.3993 9.79423 50.6384 9.53811 50.7931 9.20881C50.8599 9.06246 50.9337 8.91611 51.0075 8.77341V8.76976ZM53.4475 10.8553C53.2752 11.3126 53.2823 11.7663 53.4475 12.2237C53.1065 11.9822 53.1381 11.2175 53.4475 10.8553ZM51.5103 1.34966C52.1467 1.21063 52.7936 1.17038 53.4475 1.22892C53.8589 1.26917 54.2632 1.33869 54.657 1.46674C54.9101 1.54724 55.1597 1.657 55.4058 1.77043C55.7293 1.92044 56.0422 2.08509 56.3375 2.28998C56.7102 2.54976 57.0583 2.84246 57.3852 3.17176C57.7052 3.49373 57.99 3.83766 58.2396 4.22184C58.4962 4.61699 58.7107 5.03776 58.883 5.48413C59.0306 5.86831 59.1291 6.2781 59.1678 6.6952C59.1888 6.91839 59.0904 7.10499 58.9849 7.28061C58.9006 7.41965 58.8197 7.55503 58.7634 7.71601C58.7072 7.55503 58.658 7.38672 58.6896 7.21841C58.7072 7.12329 58.8197 7.07206 58.8689 6.98425C59.0131 6.72813 59.0517 6.46836 58.9322 6.19394C58.89 6.09516 58.8513 6.09881 58.7951 6.18663C58.7107 6.322 58.6404 6.46104 58.6193 6.62203C58.6158 6.65862 58.5912 6.69154 58.5736 6.73545C58.4646 6.62569 58.4927 6.47567 58.4365 6.35493C58.4224 6.32566 58.4681 6.31103 58.4822 6.28907C58.7037 5.93783 58.7459 5.55731 58.4822 5.17313C58.3134 5.40364 58.2431 5.6561 58.2783 5.9488C58.2677 5.9488 58.2572 5.95246 58.2431 5.95612C58.1868 5.83904 58.1306 5.72196 58.0779 5.60487C58.0638 5.56829 58.0849 5.53536 58.106 5.50609C58.2958 5.22436 58.3134 4.92067 58.1833 4.60602C58.1763 4.59138 58.1693 4.57674 58.1622 4.56577C58.1236 4.51454 58.0919 4.43405 58.0462 4.42673C57.9864 4.41942 57.99 4.51454 57.9618 4.56577C57.8423 4.78896 57.8564 5.02678 57.9161 5.27192C57.8142 5.16947 57.7614 5.03776 57.6911 4.92433C57.6489 4.85116 57.677 4.767 57.7122 4.68285C57.8423 4.35722 57.7614 3.82669 57.3747 3.66204C57.3044 3.90718 57.336 4.25111 57.4802 4.58406C57.3184 4.42307 57.2551 4.24013 57.1602 4.07914C57.0477 3.88157 57.0688 3.64374 56.9633 3.44251C56.8016 3.12785 56.545 2.97418 56.2391 2.87905C56.1828 2.86442 56.1688 2.88637 56.1863 2.94125C56.2707 3.2742 56.3973 3.5852 56.6786 3.7901C56.7102 3.81205 56.7383 3.834 56.7805 3.83766C56.9352 3.84498 57.009 3.9584 57.0618 4.1011C56.8368 4.02792 56.6258 3.89254 56.3797 4.0206C56.4676 4.1633 56.5731 4.28038 56.6891 4.37917C56.8262 4.49625 56.9985 4.48893 57.1637 4.47796C57.2235 4.47796 57.2657 4.48162 57.3044 4.54382C57.4098 4.69383 57.5364 4.83286 57.6102 5.01214C57.4309 4.8292 57.22 4.75237 56.9809 4.75237C56.9387 4.75237 56.886 4.73773 56.8649 4.7853C56.8403 4.83286 56.8825 4.87311 56.9071 4.90238C57.0161 5.03776 57.111 5.18411 57.2727 5.2646C57.4028 5.3268 57.5294 5.33412 57.6595 5.32314C57.7755 5.31583 57.8458 5.3451 57.8915 5.46584C57.9302 5.56829 58.0111 5.65244 58.0357 5.77318C57.8247 5.5756 57.5821 5.53536 57.3079 5.58658C57.4415 5.86099 57.6243 6.07686 57.9161 6.07686C58.1376 6.07686 58.2747 6.13174 58.324 6.37323C58.338 6.43177 58.3837 6.48299 58.3802 6.59276C58.2361 6.3842 58.0497 6.30371 57.8458 6.26712C57.7931 6.2598 57.7298 6.22687 57.6946 6.26712C57.6489 6.322 57.7228 6.36225 57.7438 6.40616C57.8142 6.57446 57.9232 6.70984 58.0743 6.80863C58.1446 6.85619 58.2185 6.89278 58.3029 6.87814C58.433 6.85253 58.4857 6.91473 58.5103 7.04279C58.5384 7.17451 58.5806 7.30257 58.5947 7.4599C58.4716 7.35745 58.4224 7.20378 58.2853 7.14158C58.1798 7.09401 58.0849 7.03547 57.9829 6.98059C57.9548 6.96596 57.9161 6.95498 57.8915 6.98425C57.8669 7.01352 57.888 7.05011 57.8985 7.08304C58.0146 7.40867 58.1693 7.69406 58.5314 7.7526C58.5841 7.76358 58.6228 7.77456 58.6228 7.84407C58.6228 7.96482 58.6228 8.08921 58.6228 8.20996C58.6228 8.24654 58.6158 8.28679 58.5771 8.29411C58.5384 8.29777 58.5279 8.25386 58.5103 8.22459C58.3837 7.97945 58.3204 7.92091 58.0743 7.80749C57.9829 8.15141 58.1939 8.60877 58.4787 8.70756C58.5208 8.72219 58.5525 8.7478 58.5384 8.79537C58.4962 8.93806 58.4962 9.09173 58.4329 9.2454C58.3204 9.02222 58.229 8.79903 58.0286 8.66365C57.9267 8.59413 57.8985 8.60145 57.888 8.72585C57.8599 9.00026 58.0216 9.34419 58.2501 9.47591C58.331 9.52347 58.3626 9.58201 58.3134 9.66617C58.2783 9.72471 58.3029 9.79788 58.2677 9.85277C58.2396 9.89667 58.2431 9.97717 58.1833 9.97717C58.1341 9.97717 58.1306 9.90033 58.1165 9.85643C58.0532 9.65519 57.9302 9.49786 57.779 9.36614C57.6138 9.72471 57.6876 10.0321 57.99 10.2662C58.0216 10.2882 58.0743 10.3065 58.0427 10.3687C57.9794 10.504 57.9126 10.6431 57.8388 10.8077C57.7825 10.6577 57.8001 10.5223 57.7368 10.4053C57.677 10.2955 57.6138 10.1967 57.5259 10.1162C57.5118 10.1272 57.5048 10.1308 57.5013 10.1382C57.4028 10.3394 57.5188 10.4455 57.6454 10.5809C57.9478 10.9029 58.0005 11.309 57.9126 11.7444C57.895 11.8322 57.9056 11.9383 57.7931 11.9932C57.7896 11.7773 57.7474 11.5724 57.7017 11.3712C57.6349 11.0858 57.5013 10.848 57.2938 10.6577C57.2094 10.5809 57.118 10.5077 57.0301 10.4309C56.8965 10.3138 56.893 10.1491 57.009 9.89667C57.1637 9.56006 57.1883 9.21247 57.118 8.85025C57.0231 8.34167 56.7629 7.95384 56.3621 7.66845C56.2848 7.61357 56.2953 7.58064 56.334 7.5038C56.4606 7.24037 56.5098 6.9623 56.4817 6.65862C56.4289 6.13174 56.1723 5.75123 55.7715 5.48047C55.5219 5.31217 55.2335 5.21338 54.9453 5.14386C54.7238 5.08898 54.5269 4.97556 54.323 4.87677C53.9889 4.71578 53.7358 4.43405 53.4545 4.19623C53.3245 4.08646 53.3245 4.00231 53.4545 3.84864C53.2998 3.79742 53.1416 3.74985 52.9869 3.69497C52.8709 3.65472 52.783 3.74253 52.6775 3.75717C52.6459 3.75717 52.6178 3.78278 52.5861 3.79376C52.4771 3.82669 52.4561 3.89254 52.5158 3.99499C52.5826 4.10476 52.5158 4.19989 52.3506 4.25111C52.1713 4.30599 51.9955 4.34258 51.8127 4.31697C51.8127 4.33526 51.8091 4.33892 51.8091 4.34624C51.8091 4.41941 51.9076 4.456 51.8759 4.52918C51.8408 4.60967 51.7494 4.62797 51.6861 4.67919C51.6544 4.7048 51.6087 4.74139 51.5665 4.66822C51.5455 4.63163 51.2044 4.63894 51.1657 4.66822C51.0286 4.75969 50.9196 4.8914 50.7614 4.93897C50.7474 4.94629 50.7263 4.97556 50.7298 4.98287C50.8106 5.16581 50.6489 5.17679 50.5681 5.22801C50.4239 5.31217 50.2692 5.37071 50.1215 5.44754C49.7629 5.63414 49.4711 6.1976 49.6223 6.66593C49.6891 6.8818 49.7911 7.07206 49.9106 7.25134C49.9633 7.33184 49.9739 7.35745 49.8684 7.40501C49.6539 7.5038 49.4219 7.56234 49.2285 7.71967C48.9789 7.92823 48.8207 8.18434 48.7715 8.52461C48.7117 8.91245 48.7398 9.28931 48.8488 9.65885C48.8699 9.72471 48.8488 9.7613 48.7926 9.79423C48.4621 9.96619 48.1843 10.2004 48.0015 10.5809C47.9734 10.504 47.9312 10.4638 47.896 10.4199C47.8433 10.3504 47.8433 10.2918 47.9242 10.2333C48.1492 10.0796 48.2511 9.68812 48.1457 9.42468C48.1281 9.38444 48.121 9.34053 48.0683 9.37712C47.9347 9.47591 47.7554 9.81984 47.7238 10.065C47.6534 9.88204 47.562 9.75764 47.5409 9.59665C47.5339 9.54177 47.5409 9.50518 47.6007 9.47957C47.8749 9.37346 48.0191 8.97099 47.9699 8.67463C47.9558 8.58681 47.9066 8.60145 47.8609 8.6417C47.7202 8.7661 47.5866 8.8905 47.5198 9.08076C47.5023 9.12832 47.4741 9.16491 47.446 9.21247C47.3581 9.08441 47.3405 8.93806 47.3335 8.79171C47.3335 8.7478 47.3335 8.71853 47.3862 8.7039C47.657 8.63804 47.8714 8.17337 47.8292 7.85505C47.8187 7.78187 47.8011 7.78919 47.7484 7.81846C47.5093 7.9575 47.33 8.14044 47.2948 8.44778C47.2948 8.46607 47.2948 8.48803 47.2456 8.49534C47.2843 8.29411 47.2245 8.10385 47.2315 7.90627C47.2315 7.8148 47.2597 7.75626 47.3581 7.73797C47.7202 7.66845 47.8644 7.37209 47.9593 7.03913C47.991 6.92571 47.8995 6.96596 47.8538 6.98791C47.6323 7.09401 47.4038 7.1928 47.2913 7.44892C47.2913 7.45258 47.2772 7.45624 47.2562 7.46356C47.2878 7.28427 47.3159 7.11231 47.3476 6.94034C47.3581 6.8818 47.4073 6.87814 47.4495 6.87814C47.7659 6.87814 47.9628 6.70252 48.0894 6.40982C48.1105 6.36591 48.1421 6.32566 48.1843 6.25614C47.9066 6.26346 47.671 6.322 47.4636 6.51592H47.4566C47.4952 6.40616 47.5339 6.29639 47.5691 6.18663C47.5937 6.11345 47.6499 6.10979 47.7062 6.10979C47.9242 6.10613 48.1281 6.05491 48.3004 5.9049C48.3882 5.83172 48.441 5.73293 48.4972 5.6378C48.5394 5.56463 48.4656 5.5756 48.4304 5.57194C48.1808 5.54999 48.0085 5.60121 47.7941 5.76586C47.8327 5.60487 47.9242 5.49145 47.9839 5.35973C48.0085 5.30485 48.0683 5.31949 48.114 5.32314C48.4761 5.36339 48.7398 5.2024 48.9226 4.86945C48.9824 4.76334 48.9402 4.74871 48.8594 4.74505C48.6097 4.74139 48.3918 4.82189 48.1949 5.03776C48.2089 4.93165 48.2546 4.86945 48.2933 4.81091C48.3214 4.767 48.3707 4.73407 48.3953 4.68651C48.4832 4.52918 48.5922 4.456 48.775 4.47064C49.0457 4.48893 49.225 4.31331 49.3762 4.09744C49.3938 4.07183 49.4149 4.04622 49.436 4.01329C49.2637 3.91084 49.0984 3.96572 48.9367 4.02426C48.891 4.04256 48.8312 4.07183 48.8066 4.03158C48.7715 3.97304 48.8383 3.93279 48.8734 3.8962C48.9437 3.81937 49.0527 3.83034 49.1371 3.76814C49.4149 3.56325 49.545 3.26689 49.6118 2.93027C49.6328 2.82783 49.566 2.86807 49.5239 2.88271C49.1195 3.01809 48.8207 3.25591 48.7539 3.74619C48.7187 4.02426 48.5605 4.25111 48.4129 4.47796C48.4937 4.21086 48.434 3.93645 48.455 3.64374C48.2125 3.78644 48.0613 3.96938 48.0542 4.25477C48.0507 4.43405 48.0156 4.62431 48.1527 4.77432C48.1738 4.79993 48.1703 4.83286 48.1527 4.85847C48.0718 4.96824 48.0402 5.11093 47.9242 5.23167C47.9593 4.98653 47.9347 4.77066 47.8574 4.56211C47.8363 4.49991 47.8046 4.43771 47.7554 4.43405C47.7238 4.43405 47.6851 4.49991 47.657 4.54747C47.4741 4.87311 47.5234 5.18045 47.7097 5.48047C47.7378 5.52438 47.7659 5.57926 47.7378 5.61951C47.6675 5.72196 47.664 5.86099 47.5585 5.95978C47.5304 5.85367 47.5444 5.75489 47.5444 5.6561C47.5409 5.49511 47.4741 5.35607 47.3898 5.22801C47.337 5.14386 47.2948 5.18777 47.2702 5.24997C47.112 5.62683 47.1507 5.98173 47.3651 6.31834C47.3792 6.34396 47.4144 6.35859 47.3968 6.38786C47.3265 6.5086 47.3546 6.66593 47.2491 6.79033C47.214 6.58178 47.1718 6.3842 47.0628 6.21224C47.0347 6.16833 47.0171 6.11711 46.9643 6.11711C46.9046 6.11711 46.9011 6.18663 46.8835 6.22687C46.7499 6.53056 46.8975 6.99157 47.1436 7.1489C47.1612 7.15987 47.1823 7.16719 47.1753 7.18914C47.1225 7.39038 47.1753 7.59893 47.1085 7.80383C47.0663 7.52576 46.9011 7.3172 46.778 7.08304C46.669 6.87083 46.6725 6.64032 46.7147 6.40616C46.7675 6.10613 46.8237 5.80977 46.9327 5.52072C47.0347 5.24997 47.1472 4.98653 47.2772 4.73042C47.439 4.40844 47.6323 4.10476 47.8503 3.81937C48.1527 3.42422 48.4797 3.06199 48.8488 2.73636C49.225 2.40706 49.6328 2.13997 50.0618 1.90946C50.5294 1.66066 51.0181 1.45577 51.5314 1.346L51.5103 1.34966ZM50.3114 10.7016C50.2235 10.815 50.1215 10.9138 50.0055 10.9943C49.6786 11.2212 49.3129 11.3712 49 11.6236C48.8699 11.7297 48.782 11.8688 48.6554 11.9712C48.7398 11.7444 48.8769 11.5614 49.0598 11.4261C49.3059 11.2431 49.5766 11.1114 49.8508 10.9833C50.0126 10.9102 50.1532 10.7894 50.3114 10.7016ZM58.0954 10.526C58.1376 10.4199 58.1974 10.3833 58.2818 10.4674C58.331 10.515 58.4435 10.5077 58.4294 10.5992C58.4154 10.687 58.3275 10.7309 58.2536 10.7821C58.1517 10.8516 58.0357 10.8626 57.9126 10.9394C57.9829 10.7748 58.0427 10.6504 58.0919 10.5223L58.0954 10.526ZM47.7167 10.3943C47.7413 10.4235 47.7624 10.4492 47.7835 10.4748C47.8222 10.5333 47.8609 10.5882 47.8925 10.6504C47.9417 10.7419 47.8503 10.7967 47.8257 10.8626C47.8081 10.9065 47.7449 10.8626 47.7062 10.8333C47.6675 10.8004 47.6077 10.7858 47.5761 10.7455C47.5339 10.6906 47.4214 10.6394 47.4636 10.5772C47.5198 10.4967 47.6288 10.4528 47.7202 10.3943H47.7167ZM58.4083 9.77593C58.4189 9.64787 58.4962 9.64421 58.5806 9.69178C58.6509 9.73203 58.7107 9.78325 58.781 9.83447C58.7318 9.89667 58.6931 9.95887 58.6439 9.99546C58.5666 10.0503 58.4787 10.0869 58.3943 10.1308C58.3626 10.1455 58.3275 10.1528 58.3029 10.1235C58.2747 10.0906 58.3029 10.0577 58.3169 10.0247C58.3521 9.94424 58.4013 9.8674 58.4083 9.77227V9.77593ZM47.3933 9.62958C47.4812 9.64056 47.4284 9.79057 47.4882 9.85643C47.5445 9.92229 47.5269 10.0211 47.5831 10.0723C47.5866 10.1491 47.5515 10.1345 47.5198 10.1272C47.3687 10.0869 47.2526 9.9918 47.1472 9.88204C47.105 9.83813 47.1015 9.79057 47.1718 9.75764C47.2526 9.72105 47.3265 9.62226 47.3968 9.62958H47.3933ZM50.329 9.28931C49.9317 9.72471 49.3903 9.81618 48.8875 10.0064C49.3305 9.68446 49.8719 9.58567 50.329 9.28931ZM50.8599 7.56966C50.9196 7.57332 50.8985 7.63918 50.8985 7.67943C50.9302 8.18069 50.5364 8.81 50.0688 8.94172C49.9915 8.96367 49.9106 8.98928 49.8333 9.02587C49.9669 8.90147 50.1356 8.83196 50.2657 8.68926C50.1321 8.70024 50.0442 8.80269 49.9387 8.85025C49.7629 8.93074 49.5801 8.9966 49.4289 9.13198C49.3094 9.23809 49.1899 9.33687 49.1547 9.5125C49.1477 9.54908 49.1195 9.58567 49.109 9.62226C49.0949 9.67714 49.0598 9.69178 49.0105 9.68446C48.9578 9.67714 48.9578 9.62958 48.9613 9.58933C48.9859 9.27467 49.1055 9.01124 49.3516 8.82464C49.5625 8.66365 49.8157 8.61609 50.0442 8.49534C50.3852 8.3124 50.6489 8.05263 50.786 7.66845C50.8036 7.62454 50.8177 7.56966 50.8634 7.57332L50.8599 7.56966ZM47.1472 8.8283C47.2069 8.82098 47.2104 8.85025 47.2175 8.88318C47.2456 9.03319 47.2562 9.19052 47.323 9.33322C47.33 9.34785 47.323 9.37346 47.3194 9.3881C47.3054 9.41005 47.2878 9.39541 47.2702 9.3881C47.1331 9.30029 46.996 9.20881 46.9081 9.0588C46.894 9.03319 46.8659 9.01124 46.8975 8.98197C46.9749 8.90513 47.0944 8.91611 47.1507 8.83196L47.1472 8.8283ZM58.6509 8.88684C58.665 8.83562 58.6791 8.81732 58.7283 8.85391C58.7599 8.87586 58.7916 8.90147 58.8232 8.91611C59.0412 9.00026 59.0447 9.00758 58.8795 9.17954C58.8091 9.25272 58.665 9.33687 58.5349 9.37346C58.5982 9.21247 58.6017 9.04417 58.6474 8.88684H58.6509ZM52.9131 3.74619C52.9623 3.74619 52.9764 3.81937 52.994 3.85962C53.1909 4.39746 53.5424 4.7853 54.0311 5.03044C54.0487 5.03776 54.0628 5.05239 54.0768 5.06703C54.112 5.09996 54.1472 5.13289 54.1964 5.17679C54.0593 5.22436 53.9327 5.22436 53.8026 5.23899C53.5846 5.26094 53.3631 5.31217 53.2471 5.53902C53.1838 5.66342 53.1627 5.80977 53.1241 5.95246C53.2225 5.93417 53.233 5.76952 53.2963 5.80611C53.3631 5.85002 53.2682 5.95246 53.2682 6.03296C53.2682 6.05857 53.2682 6.08052 53.2752 6.13174C53.3913 5.96344 53.5038 5.82806 53.662 5.73659C53.8624 5.61951 54.1261 5.72562 54.1894 5.95978C54.221 6.08418 54.1155 6.10613 54.0452 6.10613C53.9011 6.10979 53.7534 6.1354 53.6092 6.06954C53.5495 6.04027 53.4721 6.011 53.4053 6.09516C53.5565 6.15736 53.6585 6.322 53.8237 6.3403C54.0171 6.36225 54.2105 6.41713 54.4038 6.322C54.439 6.30371 54.4706 6.30005 54.4355 6.25249C54.3792 6.17199 54.4566 6.16467 54.4917 6.1354C54.548 6.0915 54.5655 6.14272 54.5796 6.18663C54.6113 6.26712 54.6323 6.34761 54.6359 6.43543C54.6464 6.89278 54.5796 7.3355 54.4495 7.77456C54.2843 8.33436 53.9397 8.69292 53.444 8.89416C52.9307 9.10271 52.4525 8.99294 52.006 8.66731C51.7248 8.46241 51.5314 8.18434 51.4083 7.85505C51.2958 7.56234 51.2607 7.24403 51.2115 6.93303C51.1728 6.69154 51.1587 6.45006 51.2044 6.20858C51.2185 6.14272 51.229 6.08052 51.3099 6.12443C51.3697 6.15736 51.4681 6.17199 51.3732 6.29273C51.4224 6.29273 51.454 6.29273 51.4857 6.28542C51.5314 6.27078 51.5455 6.25249 51.5384 6.33298C51.5314 6.38786 51.6263 6.39884 51.6755 6.38054C51.781 6.34396 51.8865 6.35859 51.992 6.34396C52.0869 6.32932 52.1713 6.30737 52.2416 6.22687C52.3119 6.14638 52.4068 6.11711 52.5088 6.1537C52.5088 6.1537 52.5123 6.14638 52.5123 6.14272C52.5123 6.13906 52.5123 6.1354 52.5123 6.13174C52.565 6.12443 52.5967 6.10979 52.5826 6.0293C52.565 5.92685 52.5826 5.85002 52.6951 5.97442C52.6846 5.78416 52.6565 5.60853 52.5615 5.47316C52.442 5.30119 52.2451 5.25363 52.0482 5.23533C51.9076 5.2207 51.767 5.21704 51.6052 5.20606C51.665 5.11459 51.7072 5.04873 51.7951 5.00117C52.0763 4.85847 52.3435 4.69017 52.5439 4.42673C52.6705 4.26209 52.7725 4.0828 52.8217 3.87425C52.8358 3.82303 52.8428 3.74619 52.9026 3.74619H52.9131ZM58.7564 7.99043C58.8478 8.05994 58.9357 8.07824 59.0201 8.10385C59.1291 8.13312 59.1115 8.19166 59.0623 8.26118C58.9638 8.39656 58.8478 8.50998 58.6861 8.6417C58.7107 8.50632 58.7318 8.40753 58.7423 8.3124C58.7529 8.21361 58.7529 8.11483 58.7599 7.99043H58.7564ZM47.0874 7.97945C47.1401 8.188 47.1225 8.38924 47.1507 8.60145C47.0065 8.49169 46.88 8.38558 46.8026 8.22825C46.7639 8.14776 46.7815 8.11117 46.8624 8.08921C46.9432 8.06726 47.0276 8.05629 47.0874 7.97945ZM50.6313 7.09036C50.5751 7.38306 50.4274 7.58064 50.2165 7.73431C49.9739 7.90993 49.6821 7.97945 49.443 8.15873C49.3551 8.22093 49.2777 8.29777 49.1969 8.36729C49.2742 8.11117 49.45 7.96116 49.661 7.85139C49.9071 7.72333 50.1778 7.63552 50.3817 7.41965C50.4731 7.32452 50.5259 7.20012 50.6349 7.09036H50.6313ZM52.551 8.02701C52.6459 8.34899 53.0924 8.3929 53.2823 8.11483C53.2928 8.09653 53.3104 8.07824 53.2928 8.0636C53.2752 8.04897 53.2471 8.04165 53.2295 8.04531C53.008 8.07458 52.7865 8.08556 52.5545 8.02701H52.551ZM57.3149 7.29891C57.3255 7.52942 57.1743 7.6282 57.0301 7.73797C57.1532 7.86237 57.3079 7.95384 57.3219 8.16971C57.3747 7.95384 57.5013 7.82944 57.6841 7.73797C57.4731 7.67211 57.3887 7.49649 57.3114 7.29891H57.3149ZM48.5359 7.30623C48.4691 7.49649 48.3882 7.66479 48.1843 7.74163C48.3777 7.82578 48.4691 7.98311 48.5429 8.16605C48.5676 7.94652 48.7012 7.84041 48.8629 7.74529C48.6836 7.65016 48.5746 7.51112 48.5359 7.30623ZM52.9131 7.49283C52.6072 7.49283 52.4842 7.68674 52.2978 7.82944C52.2978 7.82944 52.3049 7.85505 52.3084 7.86969C52.4174 7.85871 52.5299 7.84041 52.6389 7.8331C52.8076 7.82212 52.9799 7.80017 53.1487 7.82212C53.2506 7.8331 53.3526 7.84773 53.4545 7.85139C53.4792 7.85139 53.5178 7.86603 53.5284 7.8331C53.5389 7.79651 53.5143 7.76724 53.4862 7.74529C53.3139 7.61357 53.1698 7.48917 52.9096 7.48917L52.9131 7.49283ZM54.8644 6.29639C55.1281 6.53787 55.448 6.6513 55.768 6.76838C56.0492 6.87449 56.2742 7.22207 56.1371 7.49283C56.0879 7.49283 56.0844 7.44526 56.0809 7.41965C56.0176 7.12694 55.8101 6.99157 55.5746 6.8818C55.2933 6.75009 55.0367 6.5891 54.8679 6.30005L54.8644 6.29639ZM53.2858 7.02084C53.1979 7.01352 53.1416 6.87449 53.0467 6.93669C52.9553 6.99523 52.8885 6.98791 52.8006 6.93669C52.7127 6.88546 52.667 6.99889 52.5897 7.01352C52.5615 7.01718 52.5897 7.08304 52.6072 7.10499C52.6916 7.20012 52.8287 7.20012 52.9201 7.30257C53.0256 7.18183 53.1838 7.20012 53.2717 7.07572C53.2823 7.06109 53.2788 7.03913 53.2858 7.02084ZM51.3521 5.12557C51.3908 5.26094 51.324 5.35242 51.2818 5.42559C51.113 5.74391 50.9021 6.02198 50.6032 6.22322C50.3395 6.39884 50.1321 6.63666 50.0899 6.99157C50.0864 7.0245 50.0688 7.05377 50.0583 7.09401C49.9598 6.92205 49.9844 6.69154 50.111 6.51592C50.2305 6.35493 50.3747 6.21956 50.5399 6.10979C50.5751 6.08418 50.6032 6.05125 50.6278 6.011C50.3395 6.10979 50.0653 6.22687 49.8438 6.51592C49.8227 6.25249 49.9458 6.11345 50.0864 6.00734C50.2622 5.87929 50.4661 5.79513 50.656 5.68171C50.8388 5.57194 51.0075 5.42925 51.1657 5.2829C51.222 5.23167 51.3029 5.22436 51.3486 5.12557H51.3521ZM54.6429 5.46218C54.7659 5.57926 54.882 5.70366 54.998 5.82074C55.1703 5.99637 55.3636 6.12077 55.5851 6.20858C55.7504 6.27444 55.9227 6.33664 56.0703 6.4464C56.2215 6.55983 56.3059 6.72082 56.2461 6.96596C56.1371 6.74277 55.9578 6.633 55.768 6.55983C55.5851 6.49397 55.4023 6.43177 55.2371 6.32932C55.0156 6.19394 54.8503 6.00003 54.7554 5.74757C54.7167 5.65244 54.6816 5.55731 54.6464 5.46218H54.6429ZM48.8699 6.2159C48.8242 6.34761 48.768 6.46104 48.6273 6.51592C48.7609 6.57446 48.8242 6.68057 48.8734 6.80497C48.891 6.65496 48.9824 6.58178 49.0949 6.51592C48.9719 6.45372 48.898 6.35859 48.8699 6.2159ZM56.9704 6.2159C56.9247 6.34761 56.8684 6.46104 56.7278 6.51592C56.8614 6.57446 56.9247 6.68057 56.9739 6.80497C56.9915 6.65496 57.0829 6.58178 57.1954 6.51592C57.0723 6.45372 56.9985 6.35859 56.9704 6.2159ZM51.658 5.93417C51.8513 5.63049 52.0834 5.60121 52.3365 5.85733C52.3822 5.9049 52.4314 5.95246 52.4807 5.99637C52.5193 6.03296 52.5369 6.0732 52.5123 6.12443C52.4103 6.03661 52.3049 6.05125 52.1818 6.08784C52.0131 6.1354 51.8373 6.15736 51.6755 6.05125C51.6298 6.02198 51.6158 5.99637 51.6544 5.93417H51.658ZM53.9327 5.49511C54.1436 5.41462 54.2948 5.44389 54.3968 5.5756C54.4179 5.60121 54.446 5.63414 54.4249 5.66707C54.4038 5.70366 54.3757 5.67439 54.3476 5.66707C54.2175 5.61219 54.0874 5.56097 53.9327 5.49877V5.49511ZM51.4189 5.67805C51.4997 5.49511 51.6123 5.42193 51.7634 5.44754C51.7916 5.44754 51.8267 5.44754 51.8302 5.48779C51.8338 5.52438 51.8197 5.56829 51.781 5.56463C51.6544 5.56097 51.556 5.66341 51.4189 5.67805ZM52.4525 2.1546C52.1678 2.24607 52.0271 2.4656 51.9287 2.72538C51.8795 2.8571 51.8443 2.99979 51.8091 3.13883C51.781 3.26323 51.7107 3.38031 51.6369 3.44983C51.5314 3.55227 51.3872 3.61813 51.2677 3.71692C51.2466 3.73522 51.215 3.74619 51.1904 3.71692C51.1693 3.68765 51.1868 3.65838 51.2044 3.63643C51.2501 3.58886 51.2923 3.53398 51.3415 3.49007C51.6298 3.24127 51.7634 2.92662 51.7142 2.5278C51.7037 2.43999 51.6861 2.38877 51.5947 2.45097C51.3345 2.62659 51.2255 2.90466 51.1833 3.20834C51.1552 3.3986 51.0919 3.57423 51.0638 3.76449C51.0603 3.79376 51.0462 3.81205 51.0216 3.834C50.9232 3.91816 50.8071 3.96206 50.7052 4.0389C50.67 3.98036 50.7122 3.9584 50.7368 3.93279C50.9548 3.69497 51.0743 3.41324 51.0286 3.07663C51.0181 2.99613 51.0357 2.87539 50.9548 2.85344C50.888 2.83149 50.8282 2.92662 50.7755 2.98516C50.5856 3.20103 50.561 3.46812 50.5751 3.74619C50.5892 4.0206 50.4977 4.24013 50.22 4.37917C50.3009 4.23282 50.3782 4.11573 50.4098 3.9767C50.4731 3.72424 50.4098 3.50105 50.2833 3.2925C50.2727 3.2742 50.2376 3.18639 50.2059 3.25957C50.1567 3.36567 50.0758 3.45349 50.0583 3.58154C50.0196 3.88523 50.0512 4.18525 50.0969 4.48527C50.118 4.62431 50.0372 4.69383 49.995 4.78896C50.0337 4.35722 49.9106 4.09012 49.6364 4.03158C49.6012 4.28404 49.6786 4.49625 49.8227 4.69383C49.893 4.79262 49.8754 4.94263 49.784 5.02678C49.7489 4.83652 49.6786 4.67919 49.4817 4.63529C49.4184 4.62065 49.3832 4.62065 49.4184 4.7048C49.4571 4.79262 49.4746 4.88409 49.5203 4.9719C49.5801 5.0963 49.6504 5.2207 49.6118 5.37437C49.6047 5.41096 49.5801 5.45852 49.6223 5.48779C49.675 5.52072 49.6926 5.46218 49.7172 5.42925C49.7524 5.38534 49.8051 5.389 49.8508 5.38534C50.1075 5.35242 50.329 5.23533 50.5681 5.078C50.3501 5.00849 50.1673 4.99751 49.9879 5.08532C49.9493 5.10362 49.9001 5.16216 49.8649 5.10361C49.8297 5.04507 49.9001 5.02312 49.9247 4.98287C49.9563 4.93531 49.9985 4.92433 50.0477 4.92067C50.1532 4.91336 50.2551 4.9097 50.3606 4.89872C50.6067 4.87311 50.8212 4.78164 50.9935 4.57309C50.7263 4.42307 50.4731 4.44137 50.1919 4.62065C50.2833 4.42673 50.4309 4.37917 50.5259 4.27306C50.554 4.24379 50.5927 4.25477 50.6173 4.28038C50.6981 4.36819 50.8071 4.38649 50.9056 4.42673C51.1482 4.52552 51.3978 4.5365 51.6755 4.46698C51.454 4.21086 51.1833 4.10476 50.8845 4.05353C51.0321 3.90718 51.1447 3.88523 51.2642 3.9767C51.4013 4.0828 51.549 4.17793 51.7212 4.18891C51.9392 4.19989 52.1572 4.19257 52.3717 4.08646C52.0869 3.87791 51.8056 3.72058 51.4365 3.73522C51.5033 3.65472 51.563 3.62911 51.6263 3.61813C51.6509 3.61082 51.7002 3.62911 51.7002 3.59618C51.7002 3.4608 51.7775 3.51934 51.8197 3.54496C52.0974 3.69863 52.3857 3.72424 52.6811 3.61813C52.7338 3.59984 52.8111 3.59252 52.8182 3.53032C52.8217 3.47544 52.7584 3.43519 52.7092 3.40958C52.5545 3.32177 52.3928 3.25591 52.2099 3.28518C52.1502 3.2925 52.0799 3.29982 52.0166 3.23396C52.3892 2.97052 52.5334 2.61562 52.4385 2.16192L52.4525 2.1546ZM53.3631 2.12533C53.3139 2.58634 53.4335 2.96686 53.7991 3.23396C53.7182 3.2925 53.6479 3.28518 53.5846 3.27786C53.3913 3.24859 53.2366 3.34372 53.0819 3.43885C53.0467 3.4608 52.9869 3.47544 52.994 3.52666C53.001 3.57423 53.0573 3.58154 53.0959 3.59984C53.3596 3.71692 53.6339 3.72424 53.88 3.59252C54.0944 3.4791 54.1999 3.63643 54.3792 3.7096C53.8343 3.82669 53.6901 3.89254 53.5003 4.09744C53.8589 4.25111 54.2034 4.23647 54.5269 4.01329C54.7308 3.87059 54.7273 3.86327 54.9312 4.06451C54.6359 4.10476 54.3722 4.2072 54.1683 4.46332C54.5409 4.54382 54.8855 4.51454 55.1949 4.28038C55.223 4.25843 55.2582 4.24745 55.2863 4.27306C55.3882 4.36819 55.5148 4.43405 55.5922 4.59504C55.3847 4.46698 55.1843 4.43771 54.9769 4.50357C54.9277 4.5182 54.8468 4.51089 54.8363 4.5804C54.8292 4.6426 54.8995 4.67553 54.9453 4.70846C55.1457 4.84384 55.3601 4.9097 55.5992 4.90238C55.7258 4.90238 55.8629 4.90238 55.9191 5.09996C55.6941 5.00117 55.4797 5.00117 55.2265 5.08166C55.4375 5.19874 55.6062 5.31217 55.8101 5.35973C55.9227 5.38534 56.0633 5.33412 56.1371 5.48047C56.1441 5.49145 56.1723 5.49511 56.1899 5.49145C56.2285 5.48047 56.2145 5.44754 56.211 5.41827C56.1899 5.30119 56.2109 5.19143 56.2426 5.078C56.2777 4.96092 56.3762 4.87677 56.3762 4.74505C56.3762 4.71212 56.4219 4.67919 56.3762 4.65358C56.3446 4.63163 56.3129 4.64626 56.2813 4.65724C56.102 4.71944 56.0633 4.87677 56.0527 5.05605C55.9262 4.96092 55.9121 4.84384 55.9895 4.70846C56.0633 4.57309 56.1899 4.456 56.1723 4.27672C56.1652 4.19989 56.225 4.07549 56.1617 4.05353C56.0668 4.01694 55.9965 4.12671 55.9402 4.20354C55.8172 4.36453 55.7961 4.55845 55.7961 4.75969C55.6801 4.5365 55.7398 4.29867 55.7574 4.07549C55.782 3.81205 55.7644 3.56691 55.659 3.32909C55.6449 3.2925 55.6238 3.26323 55.5922 3.25591C55.55 3.24493 55.5394 3.2925 55.5254 3.31811C55.3742 3.6035 55.3425 3.8962 55.4867 4.19623C55.5148 4.25843 55.55 4.31697 55.5851 4.38283C55.434 4.27672 55.3109 4.16696 55.2793 3.96572C55.2546 3.81205 55.2652 3.66204 55.2652 3.51203C55.2617 3.28152 55.0753 2.89369 54.8468 2.84246C54.8363 2.89369 54.8257 2.93759 54.8222 2.9815C54.7906 3.25591 54.7765 3.52666 54.9523 3.76449C55.005 3.83766 55.0507 3.92182 55.1246 3.9767C55.1421 3.98767 55.1527 4.00597 55.1457 4.02426C55.1421 4.03524 55.1175 4.04987 55.114 4.04622C54.998 3.94377 54.8081 3.9145 54.7695 3.73156C54.7308 3.53032 54.657 3.34372 54.6323 3.13517C54.6007 2.8571 54.4671 2.62293 54.2421 2.4656C54.2034 2.43999 54.1331 2.40706 54.1331 2.47658C54.1331 2.67782 54.0804 2.89003 54.1753 3.0876C54.2632 3.25957 54.3722 3.40592 54.5269 3.51934C54.5726 3.55227 54.671 3.62545 54.6218 3.69497C54.5761 3.76083 54.5304 3.64374 54.4741 3.63277C54.4636 3.63277 54.453 3.62911 54.446 3.62179C54.3546 3.53032 54.2104 3.50837 54.1436 3.38397C54.0487 3.212 53.9749 3.0254 53.9292 2.83149C53.8483 2.49853 53.6585 2.27534 53.3631 2.13631V2.12533ZM55.1492 4.99019C54.8363 4.78896 54.5374 4.54016 54.1331 4.61333C54.1296 4.65358 54.1577 4.66456 54.1788 4.68285C54.3827 4.8292 54.6007 4.94629 54.8327 5.01214C54.9277 5.03776 55.0542 5.1402 55.1492 4.99385V4.99019ZM54.0417 4.3499C53.9573 4.3499 53.887 4.31331 53.8061 4.3316C53.8378 4.42673 53.9186 4.45234 53.9889 4.50357C54.0065 4.45234 54.0206 4.40844 54.0417 4.35356V4.3499ZM51.6931 4.46698H51.6966C51.6966 4.46698 51.6966 4.46698 51.6931 4.46698ZM53.0291 2.80222C52.8041 2.76563 52.6002 2.84246 52.4209 2.98882C52.3928 3.01077 52.3717 3.03638 52.4314 3.07297C52.5826 3.17176 52.7479 3.19737 52.9166 3.21932C53.0959 3.20103 53.2717 3.17542 53.4299 3.06931C53.4792 3.03638 53.4686 3.01077 53.4299 2.9815C53.3069 2.89369 53.1768 2.82783 53.0291 2.80222ZM52.9307 1.54724C52.878 1.76677 52.7936 1.90946 52.6143 1.968C52.8076 2.0485 52.8604 2.2351 52.9377 2.4217C52.9834 2.20949 53.0713 2.05582 53.2647 1.96069C53.0537 1.91312 52.9905 1.75213 52.9272 1.54724H52.9307Z" fill="white"/>
</svg>
