<svg width="142" height="25" viewBox="0 0 142 25" fill="none" xmlns="http://www.w3.org/2000/svg">
<g clip-path="url(#paint0_diamond_4_1321_clip_path)" data-figma-skip-parse="true"><g transform="matrix(0 0.045 -0.145076 0 75 -10.5)"><rect x="0" y="0" width="846.557" height="527.966" fill="url(#paint0_diamond_4_1321)" opacity="1" shape-rendering="crispEdges"/><rect x="0" y="0" width="846.557" height="527.966" transform="scale(1 -1)" fill="url(#paint0_diamond_4_1321)" opacity="1" shape-rendering="crispEdges"/><rect x="0" y="0" width="846.557" height="527.966" transform="scale(-1 1)" fill="url(#paint0_diamond_4_1321)" opacity="1" shape-rendering="crispEdges"/><rect x="0" y="0" width="846.557" height="527.966" transform="scale(-1)" fill="url(#paint0_diamond_4_1321)" opacity="1" shape-rendering="crispEdges"/></g></g><path d="M0.608767 18V1.07702H3.30787L4.06477 3.81897V18H0.608767ZM10.2484 18V8.04615C10.2484 6.41811 10.0295 5.22803 9.59151 4.4759C9.15356 3.71425 8.43951 3.33342 7.44936 3.33342C6.43065 3.33342 5.60711 3.75233 4.97875 4.59015C4.35039 5.41844 4.03621 6.59901 4.03621 8.13183L2.20824 7.28925C2.20824 5.6517 2.82708 4.18552 4.06477 2.89071C5.31197 1.58638 6.81624 0.934213 8.57756 0.934213C10.5769 0.934213 11.9288 1.5959 12.6334 2.91927C13.3379 4.23312 13.6902 5.8564 13.6902 7.78909V18H10.2484ZM19.8453 18V8.04615C19.8453 6.41811 19.6311 5.22803 19.2026 4.4759C18.7837 3.71425 18.0744 3.33342 17.0748 3.33342C16.0656 3.33342 15.2468 3.75233 14.6184 4.59015C13.9901 5.41844 13.6759 6.59901 13.6759 8.13183L11.8336 7.28925C11.8336 5.68026 12.4572 4.21884 13.7044 2.90499C14.9516 1.59114 16.4559 0.934213 18.2172 0.934213C20.2166 0.934213 21.559 1.5959 22.2445 2.91927C22.9395 4.24264 23.287 5.86592 23.287 7.78909V18H19.8453ZM33.0378 18.1285C30.3434 18.1285 28.3727 17.4097 27.1254 15.9721C25.8782 14.5345 25.2546 12.3733 25.2546 9.48853C25.2546 6.59425 25.8782 4.43782 27.1254 3.01924C28.3727 1.60066 30.3434 0.89137 33.0378 0.89137C35.7416 0.89137 37.7124 1.60066 38.9501 3.01924C40.1973 4.43782 40.8209 6.59425 40.8209 9.48853C40.8209 12.3733 40.1973 14.5345 38.9501 15.9721C37.7124 17.4097 35.7416 18.1285 33.0378 18.1285ZM33.0378 15.7579C34.304 15.7579 35.3418 15.3295 36.151 14.4726C36.9603 13.6062 37.3649 11.9496 37.3649 9.50281C37.3649 7.04648 36.9603 5.39464 36.151 4.5473C35.3418 3.69044 34.304 3.26201 33.0378 3.26201C31.7811 3.26201 30.7433 3.69044 29.9245 4.5473C29.1153 5.39464 28.7106 7.04648 28.7106 9.50281C28.7106 11.9496 29.1153 13.6062 29.9245 14.4726C30.7433 15.3295 31.7811 15.7579 33.0378 15.7579ZM50.2062 18.1285C47.5119 18.1285 45.5411 17.4097 44.2939 15.9721C43.0467 14.5345 42.4231 12.3733 42.4231 9.48853C42.4231 6.59425 43.0467 4.43782 44.2939 3.01924C45.5411 1.60066 47.5119 0.89137 50.2062 0.89137C52.9101 0.89137 54.8809 1.60066 56.1185 3.01924C57.3657 4.43782 57.9893 6.59425 57.9893 9.48853C57.9893 12.3733 57.3657 14.5345 56.1185 15.9721C54.8809 17.4097 52.9101 18.1285 50.2062 18.1285ZM50.2062 15.7579C51.4725 15.7579 52.5102 15.3295 53.3195 14.4726C54.1287 13.6062 54.5333 11.9496 54.5333 9.50281C54.5333 7.04648 54.1287 5.39464 53.3195 4.5473C52.5102 3.69044 51.4725 3.26201 50.2062 3.26201C48.9495 3.26201 47.9117 3.69044 47.0929 4.5473C46.2837 5.39464 45.8791 7.04648 45.8791 9.50281C45.8791 11.9496 46.2837 13.6062 47.0929 14.4726C47.9117 15.3295 48.9495 15.7579 50.2062 15.7579ZM70.4022 9.08866C70.4022 6.82274 70.1356 5.29944 69.6025 4.51874C69.0693 3.72853 68.2934 3.33342 67.2747 3.33342C66.1131 3.33342 65.1944 3.72853 64.5184 4.51874C63.852 5.29944 63.5188 6.18486 63.5188 7.17501L62.1906 6.28959C62.1906 4.79484 62.7666 3.52859 63.9186 2.49084C65.0802 1.44357 66.6225 0.919932 68.5457 0.919932C70.5641 0.919932 71.9541 1.57686 72.7157 2.89071C73.4774 4.19504 73.8582 6.26102 73.8582 9.08866H70.4022ZM60.0913 18V1.07702H62.7762L63.533 4.2474V18H60.0913ZM82.9043 24.6549C80.9907 24.6549 79.3674 24.2265 78.0345 23.3697C76.7016 22.5223 75.9542 21.0609 75.7924 18.9854H79.1627C79.2389 19.8137 79.434 20.4801 79.7482 20.9847C80.0719 21.4893 80.5146 21.8559 81.0764 22.0844C81.6476 22.3224 82.295 22.4414 83.0186 22.4414C84.2182 22.4414 85.1798 22.1272 85.9033 21.4988C86.6364 20.88 87.003 19.6185 87.003 17.7144V4.50446L87.9027 1.07702H90.459V17.3859C90.459 19.2424 90.1115 20.6991 89.4165 21.7559C88.731 22.8222 87.8598 23.5696 86.803 23.998C85.7558 24.436 84.4562 24.6549 82.9043 24.6549ZM81.6762 18.1C79.5721 18.1 78.0012 17.3764 76.9634 15.9293C75.9352 14.4726 75.4211 12.3304 75.4211 9.50281C75.4211 6.67517 75.9304 4.53778 76.9491 3.09064C77.9679 1.6435 79.534 0.919932 81.6476 0.919932C83.5422 0.919932 85.156 1.40073 86.4889 2.36231C87.8313 3.31438 88.5025 4.31405 88.5025 5.36132L86.9887 6.96079C86.9887 5.99921 86.5793 5.15187 85.7605 4.41878C84.9417 3.68569 83.9611 3.31914 82.8186 3.31914C81.6095 3.31914 80.6527 3.75233 79.9482 4.61871C79.2531 5.47557 78.9056 7.10836 78.9056 9.51709C78.9056 11.9258 79.2531 13.5634 79.9482 14.4298C80.6527 15.2961 81.6095 15.7293 82.8186 15.7293C83.9611 15.7293 84.9417 15.358 85.7605 14.6154C86.5793 13.8728 86.9887 13.0159 86.9887 12.0448L88.5168 13.7585C88.5168 14.8249 87.8503 15.815 86.5174 16.729C85.194 17.643 83.5803 18.1 81.6762 18.1ZM98.6882 18.1571C97.7647 18.1571 96.9316 18.0762 96.189 17.9143C95.4559 17.7525 94.8228 17.4811 94.2896 17.1003C93.766 16.71 93.3614 16.1816 93.0757 15.5151C92.7996 14.8487 92.6616 14.0108 92.6616 13.0017C92.6616 12.0401 92.7949 11.2403 93.0615 10.6024C93.3376 9.95504 93.7327 9.44092 94.2468 9.0601C94.7609 8.67927 95.3893 8.40793 96.1319 8.24608C96.8745 8.07471 97.7123 7.98902 98.6453 7.98902H104.115V7.11788C104.115 6.19438 103.958 5.45177 103.644 4.89005C103.329 4.31881 102.877 3.90466 102.287 3.6476C101.706 3.39054 101.011 3.26201 100.202 3.26201C99.5165 3.26201 98.8976 3.37626 98.3454 3.60476C97.8027 3.83326 97.3458 4.20932 96.9744 4.73296C96.6031 5.25659 96.3508 5.9516 96.2176 6.81798L92.833 5.904C92.9948 4.99002 93.2947 4.21408 93.7327 3.5762C94.1801 2.93831 94.7276 2.4242 95.375 2.03385C96.0319 1.6435 96.765 1.35788 97.5743 1.17699C98.393 0.996098 99.2642 0.905652 100.188 0.905652C101.778 0.905652 103.12 1.11987 104.215 1.5483C105.319 1.97673 106.157 2.65745 106.728 3.59048C107.3 4.51398 107.585 5.74691 107.585 7.28925V18H104.7L104.415 15.915C104.282 16.1625 104.058 16.4148 103.744 16.6719C103.429 16.9289 103.03 17.1717 102.544 17.4002C102.058 17.6287 101.492 17.8143 100.845 17.9572C100.207 18.0904 99.4879 18.1571 98.6882 18.1571ZM99.4451 15.915C100.254 15.915 100.973 15.8198 101.601 15.6294C102.23 15.4294 102.753 15.1771 103.172 14.8725C103.601 14.5583 103.901 14.2346 104.072 13.9014V9.90268H99.4593C98.9928 9.90268 98.5549 9.94552 98.1455 10.0312C97.7456 10.1074 97.3981 10.2502 97.103 10.4596C96.8078 10.6691 96.5746 10.9738 96.4032 11.3736C96.2414 11.764 96.1604 12.2686 96.1604 12.8874C96.1604 13.5062 96.2414 14.0108 96.4032 14.4012C96.5746 14.7915 96.8078 15.0962 97.103 15.3152C97.4076 15.5341 97.7599 15.6912 98.1598 15.7864C98.5596 15.8721 98.9881 15.915 99.4451 15.915ZM110.007 18V1.07702H112.692L113.448 4.21884V18H110.007ZM120.746 18V8.54598C120.746 6.60377 120.47 5.24707 119.918 4.4759C119.366 3.70473 118.532 3.31914 117.419 3.31914C116.286 3.31914 115.324 3.74757 114.534 4.60443C113.744 5.46129 113.348 6.5514 113.348 7.87478L111.678 6.91795C111.678 5.49937 112.33 4.14744 113.634 2.86215C114.938 1.56734 116.624 0.919932 118.69 0.919932C120.708 0.919932 122.127 1.60066 122.945 2.96211C123.774 4.32357 124.188 6.17534 124.188 8.51742V18H120.746ZM132.272 18.1571C131.348 18.1571 130.515 18.0762 129.773 17.9143C129.04 17.7525 128.407 17.4811 127.873 17.1003C127.35 16.71 126.945 16.1816 126.66 15.5151C126.383 14.8487 126.245 14.0108 126.245 13.0017C126.245 12.0401 126.379 11.2403 126.645 10.6024C126.921 9.95504 127.316 9.44092 127.831 9.0601C128.345 8.67927 128.973 8.40793 129.716 8.24608C130.458 8.07471 131.296 7.98902 132.229 7.98902H137.699V7.11788C137.699 6.19438 137.542 5.45177 137.227 4.89005C136.913 4.31881 136.461 3.90466 135.871 3.6476C135.29 3.39054 134.595 3.26201 133.786 3.26201C133.1 3.26201 132.481 3.37626 131.929 3.60476C131.387 3.83326 130.93 4.20932 130.558 4.73296C130.187 5.25659 129.935 5.9516 129.801 6.81798L126.417 5.904C126.579 4.99002 126.878 4.21408 127.316 3.5762C127.764 2.93831 128.311 2.4242 128.959 2.03385C129.616 1.6435 130.349 1.35788 131.158 1.17699C131.977 0.996098 132.848 0.905652 133.771 0.905652C135.361 0.905652 136.704 1.11987 137.799 1.5483C138.903 1.97673 139.741 2.65745 140.312 3.59048C140.883 4.51398 141.169 5.74691 141.169 7.28925V18H138.284L137.999 15.915C137.865 16.1625 137.642 16.4148 137.327 16.6719C137.013 16.9289 136.613 17.1717 136.128 17.4002C135.642 17.6287 135.076 17.8143 134.428 17.9572C133.79 18.0904 133.072 18.1571 132.272 18.1571ZM133.029 15.915C133.838 15.915 134.557 15.8198 135.185 15.6294C135.814 15.4294 136.337 15.1771 136.756 14.8725C137.185 14.5583 137.484 14.2346 137.656 13.9014V9.90268H133.043C132.577 9.90268 132.139 9.94552 131.729 10.0312C131.329 10.1074 130.982 10.2502 130.687 10.4596C130.392 10.6691 130.158 10.9738 129.987 11.3736C129.825 11.764 129.744 12.2686 129.744 12.8874C129.744 13.5062 129.825 14.0108 129.987 14.4012C130.158 14.7915 130.392 15.0962 130.687 15.3152C130.991 15.5341 131.344 15.6912 131.744 15.7864C132.143 15.8721 132.572 15.915 133.029 15.915Z" data-figma-gradient-fill="{&#34;type&#34;:&#34;GRADIENT_DIAMOND&#34;,&#34;stops&#34;:[{&#34;color&#34;:{&#34;r&#34;:1.0,&#34;g&#34;:1.0,&#34;b&#34;:1.0,&#34;a&#34;:1.0},&#34;position&#34;:0.0},{&#34;color&#34;:{&#34;r&#34;:0.89411765336990356,&#34;g&#34;:0.62745100259780884,&#34;b&#34;:0.96862745285034180,&#34;a&#34;:0.89999997615814209},&#34;position&#34;:1.0}],&#34;stopsVar&#34;:[{&#34;color&#34;:{&#34;r&#34;:1.0,&#34;g&#34;:1.0,&#34;b&#34;:1.0,&#34;a&#34;:1.0},&#34;position&#34;:0.0},{&#34;color&#34;:{&#34;r&#34;:0.89411765336990356,&#34;g&#34;:0.62745100259780884,&#34;b&#34;:0.96862745285034180,&#34;a&#34;:0.89999997615814209},&#34;position&#34;:1.0}],&#34;transform&#34;:{&#34;m00&#34;:-1.7589391314992708e-14,&#34;m01&#34;:-290.15170288085938,&#34;m02&#34;:220.07588195800781,&#34;m10&#34;:90.0,&#34;m11&#34;:-1.4836805829060440e-12,&#34;m12&#34;:-55.50},&#34;opacity&#34;:1.0,&#34;blendMode&#34;:&#34;NORMAL&#34;,&#34;visible&#34;:true}"/>
<defs>
<clipPath id="paint0_diamond_4_1321_clip_path"><path d="M0.608767 18V1.07702H3.30787L4.06477 3.81897V18H0.608767ZM10.2484 18V8.04615C10.2484 6.41811 10.0295 5.22803 9.59151 4.4759C9.15356 3.71425 8.43951 3.33342 7.44936 3.33342C6.43065 3.33342 5.60711 3.75233 4.97875 4.59015C4.35039 5.41844 4.03621 6.59901 4.03621 8.13183L2.20824 7.28925C2.20824 5.6517 2.82708 4.18552 4.06477 2.89071C5.31197 1.58638 6.81624 0.934213 8.57756 0.934213C10.5769 0.934213 11.9288 1.5959 12.6334 2.91927C13.3379 4.23312 13.6902 5.8564 13.6902 7.78909V18H10.2484ZM19.8453 18V8.04615C19.8453 6.41811 19.6311 5.22803 19.2026 4.4759C18.7837 3.71425 18.0744 3.33342 17.0748 3.33342C16.0656 3.33342 15.2468 3.75233 14.6184 4.59015C13.9901 5.41844 13.6759 6.59901 13.6759 8.13183L11.8336 7.28925C11.8336 5.68026 12.4572 4.21884 13.7044 2.90499C14.9516 1.59114 16.4559 0.934213 18.2172 0.934213C20.2166 0.934213 21.559 1.5959 22.2445 2.91927C22.9395 4.24264 23.287 5.86592 23.287 7.78909V18H19.8453ZM33.0378 18.1285C30.3434 18.1285 28.3727 17.4097 27.1254 15.9721C25.8782 14.5345 25.2546 12.3733 25.2546 9.48853C25.2546 6.59425 25.8782 4.43782 27.1254 3.01924C28.3727 1.60066 30.3434 0.89137 33.0378 0.89137C35.7416 0.89137 37.7124 1.60066 38.9501 3.01924C40.1973 4.43782 40.8209 6.59425 40.8209 9.48853C40.8209 12.3733 40.1973 14.5345 38.9501 15.9721C37.7124 17.4097 35.7416 18.1285 33.0378 18.1285ZM33.0378 15.7579C34.304 15.7579 35.3418 15.3295 36.151 14.4726C36.9603 13.6062 37.3649 11.9496 37.3649 9.50281C37.3649 7.04648 36.9603 5.39464 36.151 4.5473C35.3418 3.69044 34.304 3.26201 33.0378 3.26201C31.7811 3.26201 30.7433 3.69044 29.9245 4.5473C29.1153 5.39464 28.7106 7.04648 28.7106 9.50281C28.7106 11.9496 29.1153 13.6062 29.9245 14.4726C30.7433 15.3295 31.7811 15.7579 33.0378 15.7579ZM50.2062 18.1285C47.5119 18.1285 45.5411 17.4097 44.2939 15.9721C43.0467 14.5345 42.4231 12.3733 42.4231 9.48853C42.4231 6.59425 43.0467 4.43782 44.2939 3.01924C45.5411 1.60066 47.5119 0.89137 50.2062 0.89137C52.9101 0.89137 54.8809 1.60066 56.1185 3.01924C57.3657 4.43782 57.9893 6.59425 57.9893 9.48853C57.9893 12.3733 57.3657 14.5345 56.1185 15.9721C54.8809 17.4097 52.9101 18.1285 50.2062 18.1285ZM50.2062 15.7579C51.4725 15.7579 52.5102 15.3295 53.3195 14.4726C54.1287 13.6062 54.5333 11.9496 54.5333 9.50281C54.5333 7.04648 54.1287 5.39464 53.3195 4.5473C52.5102 3.69044 51.4725 3.26201 50.2062 3.26201C48.9495 3.26201 47.9117 3.69044 47.0929 4.5473C46.2837 5.39464 45.8791 7.04648 45.8791 9.50281C45.8791 11.9496 46.2837 13.6062 47.0929 14.4726C47.9117 15.3295 48.9495 15.7579 50.2062 15.7579ZM70.4022 9.08866C70.4022 6.82274 70.1356 5.29944 69.6025 4.51874C69.0693 3.72853 68.2934 3.33342 67.2747 3.33342C66.1131 3.33342 65.1944 3.72853 64.5184 4.51874C63.852 5.29944 63.5188 6.18486 63.5188 7.17501L62.1906 6.28959C62.1906 4.79484 62.7666 3.52859 63.9186 2.49084C65.0802 1.44357 66.6225 0.919932 68.5457 0.919932C70.5641 0.919932 71.9541 1.57686 72.7157 2.89071C73.4774 4.19504 73.8582 6.26102 73.8582 9.08866H70.4022ZM60.0913 18V1.07702H62.7762L63.533 4.2474V18H60.0913ZM82.9043 24.6549C80.9907 24.6549 79.3674 24.2265 78.0345 23.3697C76.7016 22.5223 75.9542 21.0609 75.7924 18.9854H79.1627C79.2389 19.8137 79.434 20.4801 79.7482 20.9847C80.0719 21.4893 80.5146 21.8559 81.0764 22.0844C81.6476 22.3224 82.295 22.4414 83.0186 22.4414C84.2182 22.4414 85.1798 22.1272 85.9033 21.4988C86.6364 20.88 87.003 19.6185 87.003 17.7144V4.50446L87.9027 1.07702H90.459V17.3859C90.459 19.2424 90.1115 20.6991 89.4165 21.7559C88.731 22.8222 87.8598 23.5696 86.803 23.998C85.7558 24.436 84.4562 24.6549 82.9043 24.6549ZM81.6762 18.1C79.5721 18.1 78.0012 17.3764 76.9634 15.9293C75.9352 14.4726 75.4211 12.3304 75.4211 9.50281C75.4211 6.67517 75.9304 4.53778 76.9491 3.09064C77.9679 1.6435 79.534 0.919932 81.6476 0.919932C83.5422 0.919932 85.156 1.40073 86.4889 2.36231C87.8313 3.31438 88.5025 4.31405 88.5025 5.36132L86.9887 6.96079C86.9887 5.99921 86.5793 5.15187 85.7605 4.41878C84.9417 3.68569 83.9611 3.31914 82.8186 3.31914C81.6095 3.31914 80.6527 3.75233 79.9482 4.61871C79.2531 5.47557 78.9056 7.10836 78.9056 9.51709C78.9056 11.9258 79.2531 13.5634 79.9482 14.4298C80.6527 15.2961 81.6095 15.7293 82.8186 15.7293C83.9611 15.7293 84.9417 15.358 85.7605 14.6154C86.5793 13.8728 86.9887 13.0159 86.9887 12.0448L88.5168 13.7585C88.5168 14.8249 87.8503 15.815 86.5174 16.729C85.194 17.643 83.5803 18.1 81.6762 18.1ZM98.6882 18.1571C97.7647 18.1571 96.9316 18.0762 96.189 17.9143C95.4559 17.7525 94.8228 17.4811 94.2896 17.1003C93.766 16.71 93.3614 16.1816 93.0757 15.5151C92.7996 14.8487 92.6616 14.0108 92.6616 13.0017C92.6616 12.0401 92.7949 11.2403 93.0615 10.6024C93.3376 9.95504 93.7327 9.44092 94.2468 9.0601C94.7609 8.67927 95.3893 8.40793 96.1319 8.24608C96.8745 8.07471 97.7123 7.98902 98.6453 7.98902H104.115V7.11788C104.115 6.19438 103.958 5.45177 103.644 4.89005C103.329 4.31881 102.877 3.90466 102.287 3.6476C101.706 3.39054 101.011 3.26201 100.202 3.26201C99.5165 3.26201 98.8976 3.37626 98.3454 3.60476C97.8027 3.83326 97.3458 4.20932 96.9744 4.73296C96.6031 5.25659 96.3508 5.9516 96.2176 6.81798L92.833 5.904C92.9948 4.99002 93.2947 4.21408 93.7327 3.5762C94.1801 2.93831 94.7276 2.4242 95.375 2.03385C96.0319 1.6435 96.765 1.35788 97.5743 1.17699C98.393 0.996098 99.2642 0.905652 100.188 0.905652C101.778 0.905652 103.12 1.11987 104.215 1.5483C105.319 1.97673 106.157 2.65745 106.728 3.59048C107.3 4.51398 107.585 5.74691 107.585 7.28925V18H104.7L104.415 15.915C104.282 16.1625 104.058 16.4148 103.744 16.6719C103.429 16.9289 103.03 17.1717 102.544 17.4002C102.058 17.6287 101.492 17.8143 100.845 17.9572C100.207 18.0904 99.4879 18.1571 98.6882 18.1571ZM99.4451 15.915C100.254 15.915 100.973 15.8198 101.601 15.6294C102.23 15.4294 102.753 15.1771 103.172 14.8725C103.601 14.5583 103.901 14.2346 104.072 13.9014V9.90268H99.4593C98.9928 9.90268 98.5549 9.94552 98.1455 10.0312C97.7456 10.1074 97.3981 10.2502 97.103 10.4596C96.8078 10.6691 96.5746 10.9738 96.4032 11.3736C96.2414 11.764 96.1604 12.2686 96.1604 12.8874C96.1604 13.5062 96.2414 14.0108 96.4032 14.4012C96.5746 14.7915 96.8078 15.0962 97.103 15.3152C97.4076 15.5341 97.7599 15.6912 98.1598 15.7864C98.5596 15.8721 98.9881 15.915 99.4451 15.915ZM110.007 18V1.07702H112.692L113.448 4.21884V18H110.007ZM120.746 18V8.54598C120.746 6.60377 120.47 5.24707 119.918 4.4759C119.366 3.70473 118.532 3.31914 117.419 3.31914C116.286 3.31914 115.324 3.74757 114.534 4.60443C113.744 5.46129 113.348 6.5514 113.348 7.87478L111.678 6.91795C111.678 5.49937 112.33 4.14744 113.634 2.86215C114.938 1.56734 116.624 0.919932 118.69 0.919932C120.708 0.919932 122.127 1.60066 122.945 2.96211C123.774 4.32357 124.188 6.17534 124.188 8.51742V18H120.746ZM132.272 18.1571C131.348 18.1571 130.515 18.0762 129.773 17.9143C129.04 17.7525 128.407 17.4811 127.873 17.1003C127.35 16.71 126.945 16.1816 126.66 15.5151C126.383 14.8487 126.245 14.0108 126.245 13.0017C126.245 12.0401 126.379 11.2403 126.645 10.6024C126.921 9.95504 127.316 9.44092 127.831 9.0601C128.345 8.67927 128.973 8.40793 129.716 8.24608C130.458 8.07471 131.296 7.98902 132.229 7.98902H137.699V7.11788C137.699 6.19438 137.542 5.45177 137.227 4.89005C136.913 4.31881 136.461 3.90466 135.871 3.6476C135.29 3.39054 134.595 3.26201 133.786 3.26201C133.1 3.26201 132.481 3.37626 131.929 3.60476C131.387 3.83326 130.93 4.20932 130.558 4.73296C130.187 5.25659 129.935 5.9516 129.801 6.81798L126.417 5.904C126.579 4.99002 126.878 4.21408 127.316 3.5762C127.764 2.93831 128.311 2.4242 128.959 2.03385C129.616 1.6435 130.349 1.35788 131.158 1.17699C131.977 0.996098 132.848 0.905652 133.771 0.905652C135.361 0.905652 136.704 1.11987 137.799 1.5483C138.903 1.97673 139.741 2.65745 140.312 3.59048C140.883 4.51398 141.169 5.74691 141.169 7.28925V18H138.284L137.999 15.915C137.865 16.1625 137.642 16.4148 137.327 16.6719C137.013 16.9289 136.613 17.1717 136.128 17.4002C135.642 17.6287 135.076 17.8143 134.428 17.9572C133.79 18.0904 133.072 18.1571 132.272 18.1571ZM133.029 15.915C133.838 15.915 134.557 15.8198 135.185 15.6294C135.814 15.4294 136.337 15.1771 136.756 14.8725C137.185 14.5583 137.484 14.2346 137.656 13.9014V9.90268H133.043C132.577 9.90268 132.139 9.94552 131.729 10.0312C131.329 10.1074 130.982 10.2502 130.687 10.4596C130.392 10.6691 130.158 10.9738 129.987 11.3736C129.825 11.764 129.744 12.2686 129.744 12.8874C129.744 13.5062 129.825 14.0108 129.987 14.4012C130.158 14.7915 130.392 15.0962 130.687 15.3152C130.991 15.5341 131.344 15.6912 131.744 15.7864C132.143 15.8721 132.572 15.915 133.029 15.915Z"/></clipPath><linearGradient id="paint0_diamond_4_1321" x1="0" y1="0" x2="500" y2="500" gradientUnits="userSpaceOnUse">
<stop stop-color="white"/>
<stop offset="1" stop-color="#E4A0F7" stop-opacity="0.9"/>
</linearGradient>
</defs>
</svg>
