<svg width="1024" height="1024" viewBox="0 0 1024 1024" fill="none" xmlns="http://www.w3.org/2000/svg">
<g clip-path="url(#clip0_589_131)">
<rect width="1024" height="1024" rx="260" fill="#D9D9D9"/>
<rect width="1024" height="1024" rx="260" fill="url(#paint0_linear_589_131)"/>
<g filter="url(#filter0_ii_589_131)">
<rect width="1024" height="1024" rx="260" fill="black" fill-opacity="0.01"/>
</g>
<g style="mix-blend-mode:darken" filter="url(#filter1_f_589_131)">
<rect x="-321.735" y="724.091" width="1471.01" height="906.578" transform="rotate(-45 -321.735 724.091)" fill="#2B2B2B"/>
</g>
<g filter="url(#filter2_dii_589_131)">
<mask id="path-5-outside-1_589_131" maskUnits="userSpaceOnUse" x="341" y="157" width="355" height="710" fill="black">
<rect fill="white" x="341" y="157" width="355" height="710"/>
<path d="M348 807.702L476.193 708.511L476.42 708.444V482.61C476.42 445.802 482.389 402.039 519.09 384.077C555.791 402.039 561.761 445.802 561.761 482.61V861H563.751C584.623 858.01 605.495 856.017 626.367 856.017C647.239 856.017 668.111 858.01 689.005 861H690V313.337H688.01C646.266 341.22 596.563 361.131 546.859 376.081C543.874 369.104 676.093 315.33 676.093 230.705C676.093 184.904 637.312 163 597.558 163C557.804 163 519.905 184.496 519.113 229.346C518.322 184.496 479.02 163 440.668 163C402.317 163 362.133 184.904 362.133 230.705C362.133 315.33 494.352 369.104 491.367 376.081C441.663 361.131 391.96 341.22 350.216 313.337H348.226V708.444H348.09V795.085C348.09 795.085 348.045 795.085 348.023 795.085M519.09 382.99C455.05 350.349 518.254 301.966 519.09 232.041C519.927 301.966 583.131 350.349 519.09 382.99Z"/>
</mask>
<path d="M348 807.702L476.193 708.511L476.42 708.444V482.61C476.42 445.802 482.389 402.039 519.09 384.077C555.791 402.039 561.761 445.802 561.761 482.61V861H563.751C584.623 858.01 605.495 856.017 626.367 856.017C647.239 856.017 668.111 858.01 689.005 861H690V313.337H688.01C646.266 341.22 596.563 361.131 546.859 376.081C543.874 369.104 676.093 315.33 676.093 230.705C676.093 184.904 637.312 163 597.558 163C557.804 163 519.905 184.496 519.113 229.346C518.322 184.496 479.02 163 440.668 163C402.317 163 362.133 184.904 362.133 230.705C362.133 315.33 494.352 369.104 491.367 376.081C441.663 361.131 391.96 341.22 350.216 313.337H348.226V708.444H348.09V795.085C348.09 795.085 348.045 795.085 348.023 795.085M519.09 382.99C455.05 350.349 518.254 301.966 519.09 232.041C519.927 301.966 583.131 350.349 519.09 382.99Z" fill="url(#paint1_linear_589_131)"/>
<path d="M344.328 802.956C341.707 804.984 341.227 808.752 343.255 811.373C345.282 813.994 349.051 814.475 351.672 812.447L348 807.702L344.328 802.956ZM476.193 708.511L474.467 702.765L473.401 703.085L472.522 703.766L476.193 708.511ZM476.42 708.444L478.146 714.19L482.42 712.905V708.444H476.42ZM519.09 384.077L521.728 378.688L519.09 377.397L516.453 378.688L519.09 384.077ZM561.761 861H555.761V867H561.761V861ZM563.751 861V867H564.179L564.602 866.939L563.751 861ZM689.005 861L688.155 866.94L688.578 867H689.005V861ZM690 861V867H696V861H690ZM690 313.337H696V307.337H690V313.337ZM688.01 313.337V307.337H686.19L684.677 308.347L688.01 313.337ZM546.859 376.081L541.343 378.441L543.452 383.371L548.588 381.827L546.859 376.081ZM519.113 229.346L513.114 229.452H525.112L519.113 229.346ZM491.367 376.081L489.639 381.827L494.774 383.371L496.883 378.441L491.367 376.081ZM350.216 313.337L353.549 308.347L352.036 307.337H350.216V313.337ZM348.226 313.337V307.337H342.226V313.337H348.226ZM348.226 708.444V714.444H354.226V708.444H348.226ZM348.09 708.444V702.444H342.09V708.444H348.09ZM348.09 795.085V801.085H354.09V795.085H348.09ZM348.023 789.085C344.709 789.085 342.023 791.771 342.023 795.085C342.023 798.398 344.709 801.085 348.023 801.085V795.085V789.085ZM519.09 382.99L516.366 388.335L519.09 389.724L521.815 388.335L519.09 382.99ZM519.09 232.041L525.09 231.969H513.091L519.09 232.041ZM348 807.702L351.672 812.447L479.865 713.257L476.193 708.511L472.522 703.766L344.328 802.956L348 807.702ZM476.193 708.511L477.92 714.258L478.146 714.19L476.42 708.444L474.693 702.697L474.467 702.765L476.193 708.511ZM476.42 708.444H482.42V482.61H476.42H470.42V708.444H476.42ZM476.42 482.61H482.42C482.42 464.434 483.908 445.071 489.67 428.217C495.387 411.491 505.183 397.563 521.728 389.466L519.09 384.077L516.453 378.688C496.297 388.553 484.757 405.488 478.315 424.335C471.916 443.055 470.42 463.977 470.42 482.61H476.42ZM519.09 384.077L516.453 389.466C532.998 397.563 542.794 411.491 548.511 428.217C554.273 445.071 555.761 464.434 555.761 482.61H561.761H567.761C567.761 463.977 566.265 443.055 559.866 424.335C553.424 405.488 541.884 388.553 521.728 378.688L519.09 384.077ZM561.761 482.61H555.761V861H561.761H567.761V482.61H561.761ZM561.761 861V867H563.751V861V855H561.761V861ZM563.751 861L564.602 866.939C585.298 863.975 605.869 862.017 626.367 862.017V856.017V850.017C605.121 850.017 583.949 852.045 562.9 855.061L563.751 861ZM626.367 856.017V862.017C646.864 862.017 667.436 863.975 688.155 866.94L689.005 861L689.855 855.061C668.785 852.045 647.613 850.017 626.367 850.017V856.017ZM689.005 861V867H690V861V855H689.005V861ZM690 861H696V313.337H690H684V861H690ZM690 313.337V307.337H688.01V313.337V319.337H690V313.337ZM688.01 313.337L684.677 308.347C643.619 335.773 594.538 355.474 545.131 370.335L546.859 376.081L548.588 381.827C598.587 366.788 648.913 346.668 691.343 318.326L688.01 313.337ZM546.859 376.081L552.376 373.721C553.3 375.881 552.509 377.643 552.277 378.085C552.024 378.565 551.817 378.713 552.044 378.489C552.453 378.083 553.355 377.353 554.969 376.237C558.127 374.052 562.865 371.157 568.93 367.438C580.907 360.092 597.387 349.933 613.992 337.284C646.785 312.306 682.093 276.123 682.093 230.705H676.093H670.093C670.093 269.912 639.292 302.929 606.721 327.738C590.645 339.983 574.63 349.865 562.656 357.208C556.745 360.833 551.643 363.946 548.142 366.368C546.426 367.555 544.793 368.778 543.594 369.968C543.016 370.541 542.236 371.397 541.658 372.495C541.1 373.555 540.232 375.845 541.343 378.441L546.859 376.081ZM676.093 230.705H682.093C682.093 205.887 671.488 187.216 655.375 174.909C639.444 162.741 618.444 157 597.558 157V163V169C616.425 169 634.693 174.211 648.091 184.445C661.307 194.54 670.093 209.721 670.093 230.705H676.093ZM597.558 163V157C576.687 157 555.917 162.631 540.109 174.566C524.127 186.632 513.543 204.929 513.114 229.24L519.113 229.346L525.112 229.452C525.475 208.912 534.236 194.037 547.34 184.143C560.618 174.117 578.675 169 597.558 169V163ZM519.113 229.346L525.112 229.24C524.682 204.852 513.682 186.57 497.564 174.545C481.615 162.647 460.872 157 440.668 157V163V169C458.817 169 476.9 174.101 490.388 184.163C503.706 194.099 512.753 208.99 513.114 229.452L519.113 229.346ZM440.668 163V157C420.45 157 399.476 162.757 383.404 174.888C367.154 187.154 356.133 205.81 356.133 230.705H362.133H368.133C368.133 209.798 377.204 194.602 390.634 184.466C404.241 174.195 422.535 169 440.668 169V163ZM362.133 230.705H356.133C356.133 276.123 391.441 312.306 424.234 337.284C440.84 349.933 457.319 360.092 469.297 367.438C475.362 371.157 480.1 374.052 483.257 376.237C484.871 377.353 485.773 378.083 486.182 378.489C486.409 378.713 486.202 378.565 485.949 378.085C485.717 377.643 484.926 375.881 485.851 373.721L491.367 376.081L496.883 378.441C497.994 375.845 497.126 373.555 496.568 372.495C495.99 371.397 495.21 370.541 494.632 369.968C493.433 368.778 491.8 367.555 490.084 366.368C486.583 363.946 481.481 360.833 475.57 357.208C463.596 349.865 447.581 339.983 431.505 327.738C398.934 302.929 368.133 269.912 368.133 230.705H362.133ZM491.367 376.081L493.095 370.335C443.688 355.474 394.607 335.773 353.549 308.347L350.216 313.337L346.883 318.326C389.313 346.668 439.639 366.788 489.639 381.827L491.367 376.081ZM350.216 313.337V307.337H348.226V313.337V319.337H350.216V313.337ZM348.226 313.337H342.226V708.444H348.226H354.226V313.337H348.226ZM348.226 708.444V702.444H348.09V708.444V714.444H348.226V708.444ZM348.09 708.444H342.09V795.085H348.09H354.09V708.444H348.09ZM348.09 795.085C348.09 789.085 348.09 789.085 348.09 789.085C348.09 789.085 348.09 789.085 348.09 789.085C348.09 789.085 348.09 789.085 348.09 789.085C348.09 789.085 348.09 789.085 348.09 789.085C348.09 789.085 348.09 789.085 348.09 789.085C348.09 789.085 348.09 789.085 348.09 789.085C348.09 789.085 348.09 789.085 348.09 789.085C348.09 789.085 348.09 789.085 348.09 789.085C348.09 789.085 348.09 789.085 348.09 789.085C348.09 789.085 348.09 789.085 348.09 789.085C348.09 789.085 348.09 789.085 348.09 789.085C348.09 789.085 348.09 789.085 348.09 789.085C348.09 789.085 348.09 789.085 348.09 789.085C348.09 789.085 348.09 789.085 348.09 789.085C348.09 789.085 348.09 789.085 348.09 789.085C348.09 789.085 348.09 789.085 348.09 789.085C348.09 789.085 348.09 789.085 348.09 789.085C348.09 789.085 348.09 789.085 348.09 789.085C348.09 789.085 348.09 789.085 348.09 789.085C348.09 789.085 348.09 789.085 348.09 789.085C348.09 789.085 348.09 789.085 348.09 789.085C348.09 789.085 348.09 789.085 348.09 789.085C348.09 789.085 348.09 789.085 348.09 789.085C348.09 789.085 348.09 789.085 348.09 789.085C348.09 789.085 348.09 789.085 348.09 789.085C348.09 789.085 348.09 789.085 348.09 789.085C348.09 789.085 348.09 789.085 348.09 789.085C348.09 789.085 348.09 789.085 348.09 789.085C348.09 789.085 348.09 789.085 348.09 789.085C348.09 789.085 348.09 789.085 348.09 789.085C348.09 789.085 348.09 789.085 348.09 789.085C348.09 789.085 348.09 789.085 348.09 789.085C348.09 789.085 348.09 789.085 348.09 789.085C348.09 789.085 348.09 789.085 348.09 789.085C348.09 789.085 348.09 789.085 348.09 789.085C348.09 789.085 348.09 789.085 348.09 789.085C348.09 789.085 348.09 789.085 348.09 789.085C348.09 789.085 348.09 789.085 348.09 789.085C348.09 789.085 348.09 789.085 348.09 789.085C348.09 789.085 348.09 789.085 348.09 789.085C348.09 789.085 348.09 789.085 348.09 789.085C348.09 789.085 348.09 789.085 348.09 789.085C348.09 789.085 348.09 789.085 348.09 789.085C348.09 789.085 348.089 789.085 348.089 789.085C348.089 789.085 348.089 789.085 348.089 789.085C348.089 789.085 348.089 789.085 348.089 789.085C348.089 789.085 348.089 789.085 348.089 789.085C348.089 789.085 348.089 789.085 348.089 789.085C348.089 789.085 348.089 789.085 348.089 789.085C348.089 789.085 348.089 789.085 348.089 789.085C348.089 789.085 348.089 789.085 348.089 789.085C348.089 789.085 348.089 789.085 348.089 789.085C348.089 789.085 348.089 789.085 348.089 789.085C348.089 789.085 348.089 789.085 348.089 789.085C348.089 789.085 348.089 789.085 348.089 789.085C348.089 789.085 348.089 789.085 348.089 789.085C348.089 789.085 348.089 789.085 348.089 789.085C348.089 789.085 348.089 789.085 348.089 789.085C348.089 789.085 348.089 789.085 348.089 789.085C348.089 789.085 348.089 789.085 348.089 789.085C348.089 789.085 348.089 789.085 348.089 789.085C348.089 789.085 348.089 789.085 348.089 789.085C348.089 789.085 348.089 789.085 348.089 789.085C348.088 789.085 348.088 789.085 348.088 789.085C348.088 789.085 348.088 789.085 348.088 789.085C348.088 789.085 348.088 789.085 348.088 789.085C348.088 789.085 348.088 789.085 348.088 789.085C348.088 789.085 348.088 789.085 348.088 789.085C348.088 789.085 348.088 789.085 348.088 789.085C348.088 789.085 348.088 789.085 348.088 789.085C348.088 789.085 348.088 789.085 348.088 789.085C348.088 789.085 348.088 789.085 348.088 789.085C348.088 789.085 348.088 789.085 348.088 789.085C348.088 789.085 348.088 789.085 348.088 789.085C348.088 789.085 348.088 789.085 348.088 789.085C348.088 789.085 348.088 789.085 348.088 789.085C348.088 789.085 348.088 789.085 348.088 789.085C348.088 789.085 348.088 789.085 348.088 789.085C348.088 789.085 348.087 789.085 348.087 789.085C348.087 789.085 348.087 789.085 348.087 789.085C348.087 789.085 348.087 789.085 348.087 789.085C348.087 789.085 348.087 789.085 348.087 789.085C348.087 789.085 348.087 789.085 348.087 789.085C348.087 789.085 348.087 789.085 348.087 789.085C348.087 789.085 348.087 789.085 348.087 789.085C348.087 789.085 348.087 789.085 348.087 789.085C348.087 789.085 348.087 789.085 348.087 789.085C348.087 789.085 348.087 789.085 348.087 789.085C348.087 789.085 348.087 789.085 348.087 789.085C348.087 789.085 348.087 789.085 348.087 789.085C348.087 789.085 348.087 789.085 348.087 789.085C348.087 789.085 348.086 789.085 348.086 789.085C348.086 789.085 348.086 789.085 348.086 789.085C348.086 789.085 348.086 789.085 348.086 789.085C348.086 789.085 348.086 789.085 348.086 789.085C348.086 789.085 348.086 789.085 348.086 789.085C348.086 789.085 348.086 789.085 348.086 789.085C348.086 789.085 348.086 789.085 348.086 789.085C348.086 789.085 348.086 789.085 348.086 789.085C348.086 789.085 348.086 789.085 348.086 789.085C348.086 789.085 348.086 789.085 348.086 789.085C348.086 789.085 348.086 789.085 348.086 789.085C348.086 789.085 348.086 789.085 348.085 789.085C348.085 789.085 348.085 789.085 348.085 789.085C348.085 789.085 348.085 789.085 348.085 789.085C348.085 789.085 348.085 789.085 348.085 789.085C348.085 789.085 348.085 789.085 348.085 789.085C348.085 789.085 348.085 789.085 348.085 789.085C348.085 789.085 348.085 789.085 348.085 789.085C348.085 789.085 348.085 789.085 348.085 789.085C348.085 789.085 348.085 789.085 348.085 789.085C348.085 789.085 348.085 789.085 348.085 789.085C348.085 789.085 348.085 789.085 348.085 789.085C348.085 789.085 348.084 789.085 348.084 789.085C348.084 789.085 348.084 789.085 348.084 789.085C348.084 789.085 348.084 789.085 348.084 789.085C348.084 789.085 348.084 789.085 348.084 789.085C348.084 789.085 348.084 789.085 348.084 789.085C348.084 789.085 348.084 789.085 348.084 789.085C348.084 789.085 348.084 789.085 348.084 789.085C348.084 789.085 348.084 789.085 348.084 789.085C348.084 789.085 348.084 789.085 348.084 789.085C348.084 789.085 348.084 789.085 348.084 789.085C348.084 789.085 348.083 789.085 348.083 789.085C348.083 789.085 348.083 789.085 348.083 789.085C348.083 789.085 348.083 789.085 348.083 789.085C348.083 789.085 348.083 789.085 348.083 789.085C348.083 789.085 348.083 789.085 348.083 789.085C348.083 789.085 348.083 789.085 348.083 789.085C348.083 789.085 348.083 789.085 348.083 789.085C348.083 789.085 348.083 789.085 348.083 789.085C348.083 789.085 348.083 789.085 348.083 789.085C348.083 789.085 348.083 789.085 348.082 789.085C348.082 789.085 348.082 789.085 348.082 789.085C348.082 789.085 348.082 789.085 348.082 789.085C348.082 789.085 348.082 789.085 348.082 789.085C348.082 789.085 348.082 789.085 348.082 789.085C348.082 789.085 348.082 789.085 348.082 789.085C348.082 789.085 348.082 789.085 348.082 789.085C348.082 789.085 348.082 789.085 348.082 789.085C348.082 789.085 348.082 789.085 348.082 789.085C348.082 789.085 348.081 789.085 348.081 789.085C348.081 789.085 348.081 789.085 348.081 789.085C348.081 789.085 348.081 789.085 348.081 789.085C348.081 789.085 348.081 789.085 348.081 789.085C348.081 789.085 348.081 789.085 348.081 789.085C348.081 789.085 348.081 789.085 348.081 789.085C348.081 789.085 348.081 789.085 348.081 789.085C348.081 789.085 348.081 789.085 348.081 789.085C348.081 789.085 348.081 789.085 348.08 789.085C348.08 789.085 348.08 789.085 348.08 789.085C348.08 789.085 348.08 789.085 348.08 789.085C348.08 789.085 348.08 789.085 348.08 789.085C348.08 789.085 348.08 789.085 348.08 789.085C348.08 789.085 348.08 789.085 348.08 789.085C348.08 789.085 348.08 789.085 348.08 789.085C348.08 789.085 348.08 789.085 348.08 789.085C348.08 789.085 348.08 789.085 348.08 789.085C348.079 789.085 348.079 789.085 348.079 789.085C348.079 789.085 348.079 789.085 348.079 789.085C348.079 789.085 348.079 789.085 348.079 789.085C348.079 789.085 348.079 789.085 348.079 789.085C348.079 789.085 348.079 789.085 348.079 789.085C348.079 789.085 348.079 789.085 348.079 789.085C348.079 789.085 348.079 789.085 348.079 789.085C348.079 789.085 348.079 789.085 348.078 789.085C348.078 789.085 348.078 789.085 348.078 789.085C348.078 789.085 348.078 789.085 348.078 789.085C348.078 789.085 348.078 789.085 348.078 789.085C348.078 789.085 348.078 789.085 348.078 789.085C348.078 789.085 348.078 789.085 348.078 789.085C348.078 789.085 348.078 789.085 348.078 789.085C348.078 789.085 348.078 789.085 348.078 789.085C348.078 789.085 348.077 789.085 348.077 789.085C348.077 789.085 348.077 789.085 348.077 789.085C348.077 789.085 348.077 789.085 348.077 789.085C348.077 789.085 348.077 789.085 348.077 789.085C348.077 789.085 348.077 789.085 348.077 789.085C348.077 789.085 348.077 789.085 348.077 789.085C348.077 789.085 348.077 789.085 348.077 789.085C348.077 789.085 348.077 789.085 348.076 789.085C348.076 789.085 348.076 789.085 348.076 789.085C348.076 789.085 348.076 789.085 348.076 789.085C348.076 789.085 348.076 789.085 348.076 789.085C348.076 789.085 348.076 789.085 348.076 789.085C348.076 789.085 348.076 789.085 348.076 789.085C348.076 789.085 348.076 789.085 348.076 789.085C348.076 789.085 348.076 789.085 348.076 789.085C348.075 789.085 348.075 789.085 348.075 789.085C348.075 789.085 348.075 789.085 348.075 789.085C348.075 789.085 348.075 789.085 348.075 789.085C348.075 789.085 348.075 789.085 348.075 789.085C348.075 789.085 348.075 789.085 348.075 789.085C348.075 789.085 348.075 789.085 348.075 789.085C348.075 789.085 348.075 789.085 348.075 789.085C348.074 789.085 348.074 789.085 348.074 789.085C348.074 789.085 348.074 789.085 348.074 789.085C348.074 789.085 348.074 789.085 348.074 789.085C348.074 789.085 348.074 789.085 348.074 789.085C348.074 789.085 348.074 789.085 348.074 789.085C348.074 789.085 348.074 789.085 348.074 789.085C348.074 789.085 348.074 789.085 348.073 789.085C348.073 789.085 348.073 789.085 348.073 789.085C348.073 789.085 348.073 789.085 348.073 789.085C348.073 789.085 348.073 789.085 348.073 789.085C348.073 789.085 348.073 789.085 348.073 789.085C348.073 789.085 348.073 789.085 348.073 789.085C348.073 789.085 348.073 789.085 348.073 789.085C348.073 789.085 348.072 789.085 348.072 789.085C348.072 789.085 348.072 789.085 348.072 789.085C348.072 789.085 348.072 789.085 348.072 789.085C348.072 789.085 348.072 789.085 348.072 789.085C348.072 789.085 348.072 789.085 348.072 789.085C348.072 789.085 348.072 789.085 348.072 789.085C348.072 789.085 348.072 789.085 348.072 789.085C348.071 789.085 348.071 789.085 348.071 789.085C348.071 789.085 348.071 789.085 348.071 789.085C348.071 789.085 348.071 789.085 348.071 789.085C348.071 789.085 348.071 789.085 348.071 789.085C348.071 789.085 348.071 789.085 348.071 789.085C348.071 789.085 348.071 789.085 348.071 789.085C348.071 789.085 348.071 789.085 348.07 789.085C348.07 789.085 348.07 789.085 348.07 789.085C348.07 789.085 348.07 789.085 348.07 789.085C348.07 789.085 348.07 789.085 348.07 789.085C348.07 789.085 348.07 789.085 348.07 789.085C348.07 789.085 348.07 789.085 348.07 789.085C348.07 789.085 348.07 789.085 348.07 789.085C348.069 789.085 348.069 789.085 348.069 789.085C348.069 789.085 348.069 789.085 348.069 789.085C348.069 789.085 348.069 789.085 348.069 789.085C348.069 789.085 348.069 789.085 348.069 789.085C348.069 789.085 348.069 789.085 348.069 789.085C348.069 789.085 348.069 789.085 348.069 789.085C348.069 789.085 348.068 789.085 348.068 789.085C348.068 789.085 348.068 789.085 348.068 789.085C348.068 789.085 348.068 789.085 348.068 789.085C348.068 789.085 348.068 789.085 348.068 789.085C348.068 789.085 348.068 789.085 348.068 789.085C348.068 789.085 348.068 789.085 348.068 789.085C348.068 789.085 348.068 789.085 348.067 789.085C348.067 789.085 348.067 789.085 348.067 789.085C348.067 789.085 348.067 789.085 348.067 789.085C348.067 789.085 348.067 789.085 348.067 789.085C348.067 789.085 348.067 789.085 348.067 789.085C348.067 789.085 348.067 789.085 348.067 789.085C348.067 789.085 348.067 789.085 348.066 789.085C348.066 789.085 348.066 789.085 348.066 789.085C348.066 789.085 348.066 789.085 348.066 789.085C348.066 789.085 348.066 789.085 348.066 789.085C348.066 789.085 348.066 789.085 348.066 789.085C348.066 789.085 348.066 789.085 348.066 789.085C348.066 789.085 348.066 789.085 348.065 789.085C348.065 789.085 348.065 789.085 348.065 789.085C348.065 789.085 348.065 789.085 348.065 789.085C348.065 789.085 348.065 789.085 348.065 789.085C348.065 789.085 348.065 789.085 348.065 789.085C348.065 789.085 348.065 789.085 348.065 789.085C348.065 789.085 348.065 789.085 348.065 789.085C348.064 789.085 348.064 789.085 348.064 789.085C348.064 789.085 348.064 789.085 348.064 789.085C348.064 789.085 348.064 789.085 348.064 789.085C348.064 789.085 348.064 789.085 348.064 789.085C348.064 789.085 348.064 789.085 348.064 789.085C348.064 789.085 348.064 789.085 348.063 789.085C348.063 789.085 348.063 789.085 348.063 789.085C348.063 789.085 348.063 789.085 348.063 789.085C348.063 789.085 348.063 789.085 348.063 789.085C348.063 789.085 348.063 789.085 348.063 789.085C348.063 789.085 348.063 789.085 348.063 789.085C348.063 789.085 348.063 789.085 348.062 789.085C348.062 789.085 348.062 789.085 348.062 789.085C348.062 789.085 348.062 789.085 348.062 789.085C348.062 789.085 348.062 789.085 348.062 789.085C348.062 789.085 348.062 789.085 348.062 789.085C348.062 789.085 348.062 789.085 348.062 789.085C348.062 789.085 348.062 789.085 348.061 789.085C348.061 789.085 348.061 789.085 348.061 789.085C348.061 789.085 348.061 789.085 348.061 789.085C348.061 789.085 348.061 789.085 348.061 789.085C348.061 789.085 348.061 789.085 348.061 789.085C348.061 789.085 348.061 789.085 348.061 789.085C348.061 789.085 348.06 789.085 348.06 789.085C348.06 789.085 348.06 789.085 348.06 789.085C348.06 789.085 348.06 789.085 348.06 789.085C348.06 789.085 348.06 789.085 348.06 789.085C348.06 789.085 348.06 789.085 348.06 789.085C348.06 789.085 348.06 789.085 348.06 789.085C348.06 789.085 348.059 789.085 348.059 789.085C348.059 789.085 348.059 789.085 348.059 789.085C348.059 789.085 348.059 789.085 348.059 789.085C348.059 789.085 348.059 789.085 348.059 789.085C348.059 789.085 348.059 789.085 348.059 789.085C348.059 789.085 348.059 789.085 348.059 789.085C348.058 789.085 348.058 789.085 348.058 789.085C348.058 789.085 348.058 789.085 348.058 789.085C348.058 789.085 348.058 789.085 348.058 789.085C348.058 789.085 348.058 789.085 348.058 789.085C348.058 789.085 348.058 789.085 348.058 789.085C348.058 789.085 348.058 789.085 348.058 789.085C348.057 789.085 348.057 789.085 348.057 789.085C348.057 789.085 348.057 789.085 348.057 789.085C348.057 789.085 348.057 789.085 348.057 789.085C348.057 789.085 348.057 789.085 348.057 789.085C348.057 789.085 348.057 789.085 348.057 789.085C348.057 789.085 348.057 789.085 348.056 789.085C348.056 789.085 348.056 789.085 348.056 789.085C348.056 789.085 348.056 789.085 348.056 789.085C348.056 789.085 348.056 789.085 348.056 789.085C348.056 789.085 348.056 789.085 348.056 789.085C348.056 789.085 348.056 789.085 348.056 789.085C348.056 789.085 348.055 789.085 348.055 789.085C348.055 789.085 348.055 789.085 348.055 789.085C348.055 789.085 348.055 789.085 348.055 789.085C348.055 789.085 348.055 789.085 348.055 789.085C348.055 789.085 348.055 789.085 348.055 789.085C348.055 789.085 348.055 789.085 348.055 789.085C348.054 789.085 348.054 789.085 348.054 789.085C348.054 789.085 348.054 789.085 348.054 789.085C348.054 789.085 348.054 789.085 348.054 789.085C348.054 789.085 348.054 789.085 348.054 789.085C348.054 789.085 348.054 789.085 348.054 789.085C348.054 789.085 348.054 789.085 348.053 789.085C348.053 789.085 348.053 789.085 348.053 789.085C348.053 789.085 348.053 789.085 348.053 789.085C348.053 789.085 348.053 789.085 348.053 789.085C348.053 789.085 348.053 789.085 348.053 789.085C348.053 789.085 348.053 789.085 348.053 789.085C348.053 789.085 348.052 789.085 348.052 789.085C348.052 789.085 348.052 789.085 348.052 789.085C348.052 789.085 348.052 789.085 348.052 789.085C348.052 789.085 348.052 789.085 348.052 789.085C348.052 789.085 348.052 789.085 348.052 789.085C348.052 789.085 348.052 789.085 348.052 789.085C348.051 789.085 348.051 789.085 348.051 789.085C348.051 789.085 348.051 789.085 348.051 789.085C348.051 789.085 348.051 789.085 348.051 789.085C348.051 789.085 348.051 789.085 348.051 789.085C348.051 789.085 348.051 789.085 348.051 789.085C348.051 789.085 348.051 789.085 348.05 789.085C348.05 789.085 348.05 789.085 348.05 789.085C348.05 789.085 348.05 789.085 348.05 789.085C348.05 789.085 348.05 789.085 348.05 789.085C348.05 789.085 348.05 789.085 348.05 789.085C348.05 789.085 348.05 789.085 348.05 789.085C348.05 789.085 348.049 789.085 348.049 789.085C348.049 789.085 348.049 789.085 348.049 789.085C348.049 789.085 348.049 789.085 348.049 789.085C348.049 789.085 348.049 789.085 348.049 789.085C348.049 789.085 348.049 789.085 348.049 789.085C348.049 789.085 348.049 789.085 348.049 789.085C348.048 789.085 348.048 789.085 348.048 789.085C348.048 789.085 348.048 789.085 348.048 789.085C348.048 789.085 348.048 789.085 348.048 789.085C348.048 789.085 348.048 789.085 348.048 789.085C348.048 789.085 348.048 789.085 348.048 789.085C348.048 789.085 348.048 789.085 348.047 789.085C348.047 789.085 348.047 789.085 348.047 789.085C348.047 789.085 348.047 789.085 348.047 789.085C348.047 789.085 348.047 789.085 348.047 789.085C348.047 789.085 348.047 789.085 348.047 789.085C348.047 789.085 348.047 789.085 348.047 789.085C348.047 789.085 348.046 789.085 348.046 789.085C348.046 789.085 348.046 789.085 348.046 789.085C348.046 789.085 348.046 789.085 348.046 789.085C348.046 789.085 348.046 789.085 348.046 789.085C348.046 789.085 348.046 789.085 348.046 789.085C348.046 789.085 348.046 789.085 348.046 789.085C348.045 789.085 348.045 789.085 348.045 789.085C348.045 789.085 348.045 789.085 348.045 789.085C348.045 789.085 348.045 789.085 348.045 789.085C348.045 789.085 348.045 789.085 348.045 789.085C348.045 789.085 348.045 789.085 348.045 789.085C348.045 789.085 348.045 789.085 348.044 789.085C348.044 789.085 348.044 789.085 348.044 789.085C348.044 789.085 348.044 789.085 348.044 789.085C348.044 789.085 348.044 789.085 348.044 789.085C348.044 789.085 348.044 789.085 348.044 789.085C348.044 789.085 348.044 789.085 348.044 789.085C348.044 789.085 348.043 789.085 348.043 789.085C348.043 789.085 348.043 789.085 348.043 789.085C348.043 789.085 348.043 789.085 348.043 789.085C348.043 789.085 348.043 789.085 348.043 789.085C348.043 789.085 348.043 789.085 348.043 789.085C348.043 789.085 348.043 789.085 348.043 789.085C348.043 789.085 348.042 789.085 348.042 789.085C348.042 789.085 348.042 789.085 348.042 789.085C348.042 789.085 348.042 789.085 348.042 789.085C348.042 789.085 348.042 789.085 348.042 789.085C348.042 789.085 348.042 789.085 348.042 789.085C348.042 789.085 348.042 789.085 348.042 789.085C348.041 789.085 348.041 789.085 348.041 789.085C348.041 789.085 348.041 789.085 348.041 789.085C348.041 789.085 348.041 789.085 348.041 789.085C348.041 789.085 348.041 789.085 348.041 789.085C348.041 789.085 348.041 789.085 348.041 789.085C348.041 789.085 348.041 789.085 348.04 789.085C348.04 789.085 348.04 789.085 348.04 789.085C348.04 789.085 348.04 789.085 348.04 789.085C348.04 789.085 348.04 789.085 348.04 789.085C348.04 789.085 348.04 789.085 348.04 789.085C348.04 789.085 348.04 789.085 348.04 789.085C348.04 789.085 348.04 789.085 348.039 789.085C348.039 789.085 348.039 789.085 348.039 789.085C348.039 789.085 348.039 789.085 348.039 789.085C348.039 789.085 348.039 789.085 348.039 789.085C348.039 789.085 348.039 789.085 348.039 789.085C348.039 789.085 348.039 789.085 348.039 789.085C348.039 789.085 348.038 789.085 348.038 789.085C348.038 789.085 348.038 789.085 348.038 789.085C348.038 789.085 348.038 789.085 348.038 789.085C348.038 789.085 348.038 789.085 348.038 789.085C348.038 789.085 348.038 789.085 348.038 789.085C348.038 789.085 348.038 789.085 348.038 789.085C348.038 789.085 348.037 789.085 348.037 789.085C348.037 789.085 348.037 789.085 348.037 789.085C348.037 789.085 348.037 789.085 348.037 789.085C348.037 789.085 348.037 789.085 348.037 789.085C348.037 789.085 348.037 789.085 348.037 789.085C348.037 789.085 348.037 789.085 348.037 789.085C348.037 789.085 348.036 789.085 348.036 789.085C348.036 789.085 348.036 789.085 348.036 789.085C348.036 789.085 348.036 789.085 348.036 789.085C348.036 789.085 348.036 789.085 348.036 789.085C348.036 789.085 348.036 789.085 348.036 789.085C348.036 789.085 348.036 789.085 348.036 789.085C348.036 789.085 348.035 789.085 348.035 789.085C348.035 789.085 348.035 789.085 348.035 789.085C348.035 789.085 348.035 789.085 348.035 789.085C348.035 789.085 348.035 789.085 348.035 789.085C348.035 789.085 348.035 789.085 348.035 789.085C348.035 789.085 348.035 789.085 348.035 789.085C348.035 789.085 348.034 789.085 348.034 789.085C348.034 789.085 348.034 789.085 348.034 789.085C348.034 789.085 348.034 789.085 348.034 789.085C348.034 789.085 348.034 789.085 348.034 789.085C348.034 789.085 348.034 789.085 348.034 789.085C348.034 789.085 348.034 789.085 348.034 789.085C348.034 789.085 348.034 789.085 348.033 789.085C348.033 789.085 348.033 789.085 348.033 789.085C348.033 789.085 348.033 789.085 348.033 789.085C348.033 789.085 348.033 789.085 348.033 789.085C348.033 789.085 348.033 789.085 348.033 789.085C348.033 789.085 348.033 789.085 348.033 789.085C348.033 789.085 348.033 789.085 348.032 789.085C348.032 789.085 348.032 789.085 348.032 789.085C348.032 789.085 348.032 789.085 348.032 789.085C348.032 789.085 348.032 789.085 348.032 789.085C348.032 789.085 348.032 789.085 348.032 789.085C348.032 789.085 348.032 789.085 348.032 789.085C348.032 789.085 348.032 789.085 348.032 789.085C348.031 789.085 348.031 789.085 348.031 789.085C348.031 789.085 348.031 789.085 348.031 789.085C348.031 789.085 348.031 789.085 348.031 789.085C348.031 789.085 348.031 789.085 348.031 789.085C348.031 789.085 348.031 789.085 348.031 789.085C348.031 789.085 348.031 789.085 348.031 789.085C348.031 789.085 348.03 789.085 348.03 789.085C348.03 789.085 348.03 789.085 348.03 789.085C348.03 789.085 348.03 789.085 348.03 789.085C348.03 789.085 348.03 789.085 348.03 789.085C348.03 789.085 348.03 789.085 348.03 789.085C348.03 789.085 348.03 789.085 348.03 789.085C348.03 789.085 348.03 789.085 348.03 789.085C348.029 789.085 348.029 789.085 348.029 789.085C348.029 789.085 348.029 789.085 348.029 789.085C348.029 789.085 348.029 789.085 348.029 789.085C348.029 789.085 348.029 789.085 348.029 789.085C348.029 789.085 348.029 789.085 348.029 789.085C348.029 789.085 348.029 789.085 348.029 789.085C348.029 789.085 348.028 789.085 348.028 789.085C348.028 789.085 348.028 789.085 348.028 789.085C348.028 789.085 348.028 789.085 348.028 789.085C348.028 789.085 348.028 789.085 348.028 789.085C348.028 789.085 348.028 789.085 348.028 789.085C348.028 789.085 348.028 789.085 348.028 789.085C348.028 789.085 348.028 789.085 348.028 789.085C348.027 789.085 348.027 789.085 348.027 789.085C348.027 789.085 348.027 789.085 348.027 789.085C348.027 789.085 348.027 789.085 348.027 789.085C348.027 789.085 348.027 789.085 348.027 789.085C348.027 789.085 348.027 789.085 348.027 789.085C348.027 789.085 348.027 789.085 348.027 789.085C348.027 789.085 348.027 789.085 348.027 789.085C348.026 789.085 348.026 789.085 348.026 789.085C348.026 789.085 348.026 789.085 348.026 789.085C348.026 789.085 348.026 789.085 348.026 789.085C348.026 789.085 348.026 789.085 348.026 789.085C348.026 789.085 348.026 789.085 348.026 789.085C348.026 789.085 348.026 789.085 348.026 789.085C348.026 789.085 348.026 789.085 348.025 789.085C348.025 789.085 348.025 789.085 348.025 789.085C348.025 789.085 348.025 789.085 348.025 789.085C348.025 789.085 348.025 789.085 348.025 789.085C348.025 789.085 348.025 789.085 348.025 789.085C348.025 789.085 348.025 789.085 348.025 789.085C348.025 789.085 348.025 789.085 348.025 789.085C348.025 789.085 348.025 789.085 348.025 789.085C348.024 789.085 348.024 789.085 348.024 789.085C348.024 789.085 348.024 789.085 348.024 789.085C348.024 789.085 348.024 789.085 348.024 789.085C348.024 789.085 348.024 789.085 348.024 789.085C348.024 789.085 348.024 789.085 348.024 789.085C348.024 789.085 348.024 789.085 348.024 789.085C348.024 789.085 348.024 789.085 348.024 789.085C348.023 789.085 348.023 789.085 348.023 789.085C348.023 789.085 348.023 789.085 348.023 789.085C348.023 789.085 348.023 789.085 348.023 789.085C348.023 789.085 348.023 789.085 348.023 789.085C348.023 789.085 348.023 789.085 348.023 789.085C348.023 789.085 348.023 789.085 348.023 789.085C348.023 789.085 348.023 789.085 348.023 789.085V795.085V801.085C348.023 801.085 348.023 801.085 348.023 801.085C348.023 801.085 348.023 801.085 348.023 801.085C348.023 801.085 348.023 801.085 348.023 801.085C348.023 801.085 348.023 801.085 348.023 801.085C348.023 801.085 348.023 801.085 348.023 801.085C348.023 801.085 348.023 801.085 348.023 801.085C348.023 801.085 348.023 801.085 348.024 801.085C348.024 801.085 348.024 801.085 348.024 801.085C348.024 801.085 348.024 801.085 348.024 801.085C348.024 801.085 348.024 801.085 348.024 801.085C348.024 801.085 348.024 801.085 348.024 801.085C348.024 801.085 348.024 801.085 348.024 801.085C348.024 801.085 348.024 801.085 348.024 801.085C348.024 801.085 348.024 801.085 348.025 801.085C348.025 801.085 348.025 801.085 348.025 801.085C348.025 801.085 348.025 801.085 348.025 801.085C348.025 801.085 348.025 801.085 348.025 801.085C348.025 801.085 348.025 801.085 348.025 801.085C348.025 801.085 348.025 801.085 348.025 801.085C348.025 801.085 348.025 801.085 348.025 801.085C348.025 801.085 348.025 801.085 348.025 801.085C348.026 801.085 348.026 801.085 348.026 801.085C348.026 801.085 348.026 801.085 348.026 801.085C348.026 801.085 348.026 801.085 348.026 801.085C348.026 801.085 348.026 801.085 348.026 801.085C348.026 801.085 348.026 801.085 348.026 801.085C348.026 801.085 348.026 801.085 348.026 801.085C348.026 801.085 348.026 801.085 348.027 801.085C348.027 801.085 348.027 801.085 348.027 801.085C348.027 801.085 348.027 801.085 348.027 801.085C348.027 801.085 348.027 801.085 348.027 801.085C348.027 801.085 348.027 801.085 348.027 801.085C348.027 801.085 348.027 801.085 348.027 801.085C348.027 801.085 348.027 801.085 348.027 801.085C348.027 801.085 348.027 801.085 348.028 801.085C348.028 801.085 348.028 801.085 348.028 801.085C348.028 801.085 348.028 801.085 348.028 801.085C348.028 801.085 348.028 801.085 348.028 801.085C348.028 801.085 348.028 801.085 348.028 801.085C348.028 801.085 348.028 801.085 348.028 801.085C348.028 801.085 348.028 801.085 348.028 801.085C348.028 801.085 348.029 801.085 348.029 801.085C348.029 801.085 348.029 801.085 348.029 801.085C348.029 801.085 348.029 801.085 348.029 801.085C348.029 801.085 348.029 801.085 348.029 801.085C348.029 801.085 348.029 801.085 348.029 801.085C348.029 801.085 348.029 801.085 348.029 801.085C348.029 801.085 348.029 801.085 348.03 801.085C348.03 801.085 348.03 801.085 348.03 801.085C348.03 801.085 348.03 801.085 348.03 801.085C348.03 801.085 348.03 801.085 348.03 801.085C348.03 801.085 348.03 801.085 348.03 801.085C348.03 801.085 348.03 801.085 348.03 801.085C348.03 801.085 348.03 801.085 348.03 801.085C348.03 801.085 348.031 801.085 348.031 801.085C348.031 801.085 348.031 801.085 348.031 801.085C348.031 801.085 348.031 801.085 348.031 801.085C348.031 801.085 348.031 801.085 348.031 801.085C348.031 801.085 348.031 801.085 348.031 801.085C348.031 801.085 348.031 801.085 348.031 801.085C348.031 801.085 348.031 801.085 348.032 801.085C348.032 801.085 348.032 801.085 348.032 801.085C348.032 801.085 348.032 801.085 348.032 801.085C348.032 801.085 348.032 801.085 348.032 801.085C348.032 801.085 348.032 801.085 348.032 801.085C348.032 801.085 348.032 801.085 348.032 801.085C348.032 801.085 348.032 801.085 348.032 801.085C348.033 801.085 348.033 801.085 348.033 801.085C348.033 801.085 348.033 801.085 348.033 801.085C348.033 801.085 348.033 801.085 348.033 801.085C348.033 801.085 348.033 801.085 348.033 801.085C348.033 801.085 348.033 801.085 348.033 801.085C348.033 801.085 348.033 801.085 348.033 801.085C348.034 801.085 348.034 801.085 348.034 801.085C348.034 801.085 348.034 801.085 348.034 801.085C348.034 801.085 348.034 801.085 348.034 801.085C348.034 801.085 348.034 801.085 348.034 801.085C348.034 801.085 348.034 801.085 348.034 801.085C348.034 801.085 348.034 801.085 348.034 801.085C348.034 801.085 348.035 801.085 348.035 801.085C348.035 801.085 348.035 801.085 348.035 801.085C348.035 801.085 348.035 801.085 348.035 801.085C348.035 801.085 348.035 801.085 348.035 801.085C348.035 801.085 348.035 801.085 348.035 801.085C348.035 801.085 348.035 801.085 348.035 801.085C348.035 801.085 348.036 801.085 348.036 801.085C348.036 801.085 348.036 801.085 348.036 801.085C348.036 801.085 348.036 801.085 348.036 801.085C348.036 801.085 348.036 801.085 348.036 801.085C348.036 801.085 348.036 801.085 348.036 801.085C348.036 801.085 348.036 801.085 348.036 801.085C348.036 801.085 348.037 801.085 348.037 801.085C348.037 801.085 348.037 801.085 348.037 801.085C348.037 801.085 348.037 801.085 348.037 801.085C348.037 801.085 348.037 801.085 348.037 801.085C348.037 801.085 348.037 801.085 348.037 801.085C348.037 801.085 348.037 801.085 348.037 801.085C348.037 801.085 348.038 801.085 348.038 801.085C348.038 801.085 348.038 801.085 348.038 801.085C348.038 801.085 348.038 801.085 348.038 801.085C348.038 801.085 348.038 801.085 348.038 801.085C348.038 801.085 348.038 801.085 348.038 801.085C348.038 801.085 348.038 801.085 348.038 801.085C348.038 801.085 348.039 801.085 348.039 801.085C348.039 801.085 348.039 801.085 348.039 801.085C348.039 801.085 348.039 801.085 348.039 801.085C348.039 801.085 348.039 801.085 348.039 801.085C348.039 801.085 348.039 801.085 348.039 801.085C348.039 801.085 348.039 801.085 348.039 801.085C348.04 801.085 348.04 801.085 348.04 801.085C348.04 801.085 348.04 801.085 348.04 801.085C348.04 801.085 348.04 801.085 348.04 801.085C348.04 801.085 348.04 801.085 348.04 801.085C348.04 801.085 348.04 801.085 348.04 801.085C348.04 801.085 348.04 801.085 348.04 801.085C348.041 801.085 348.041 801.085 348.041 801.085C348.041 801.085 348.041 801.085 348.041 801.085C348.041 801.085 348.041 801.085 348.041 801.085C348.041 801.085 348.041 801.085 348.041 801.085C348.041 801.085 348.041 801.085 348.041 801.085C348.041 801.085 348.041 801.085 348.042 801.085C348.042 801.085 348.042 801.085 348.042 801.085C348.042 801.085 348.042 801.085 348.042 801.085C348.042 801.085 348.042 801.085 348.042 801.085C348.042 801.085 348.042 801.085 348.042 801.085C348.042 801.085 348.042 801.085 348.042 801.085C348.042 801.085 348.043 801.085 348.043 801.085C348.043 801.085 348.043 801.085 348.043 801.085C348.043 801.085 348.043 801.085 348.043 801.085C348.043 801.085 348.043 801.085 348.043 801.085C348.043 801.085 348.043 801.085 348.043 801.085C348.043 801.085 348.043 801.085 348.043 801.085C348.043 801.085 348.044 801.085 348.044 801.085C348.044 801.085 348.044 801.085 348.044 801.085C348.044 801.085 348.044 801.085 348.044 801.085C348.044 801.085 348.044 801.085 348.044 801.085C348.044 801.085 348.044 801.085 348.044 801.085C348.044 801.085 348.044 801.085 348.044 801.085C348.045 801.085 348.045 801.085 348.045 801.085C348.045 801.085 348.045 801.085 348.045 801.085C348.045 801.085 348.045 801.085 348.045 801.085C348.045 801.085 348.045 801.085 348.045 801.085C348.045 801.085 348.045 801.085 348.045 801.085C348.045 801.085 348.045 801.085 348.046 801.085C348.046 801.085 348.046 801.085 348.046 801.085C348.046 801.085 348.046 801.085 348.046 801.085C348.046 801.085 348.046 801.085 348.046 801.085C348.046 801.085 348.046 801.085 348.046 801.085C348.046 801.085 348.046 801.085 348.046 801.085C348.046 801.085 348.047 801.085 348.047 801.085C348.047 801.085 348.047 801.085 348.047 801.085C348.047 801.085 348.047 801.085 348.047 801.085C348.047 801.085 348.047 801.085 348.047 801.085C348.047 801.085 348.047 801.085 348.047 801.085C348.047 801.085 348.047 801.085 348.047 801.085C348.048 801.085 348.048 801.085 348.048 801.085C348.048 801.085 348.048 801.085 348.048 801.085C348.048 801.085 348.048 801.085 348.048 801.085C348.048 801.085 348.048 801.085 348.048 801.085C348.048 801.085 348.048 801.085 348.048 801.085C348.048 801.085 348.048 801.085 348.049 801.085C348.049 801.085 348.049 801.085 348.049 801.085C348.049 801.085 348.049 801.085 348.049 801.085C348.049 801.085 348.049 801.085 348.049 801.085C348.049 801.085 348.049 801.085 348.049 801.085C348.049 801.085 348.049 801.085 348.049 801.085C348.049 801.085 348.05 801.085 348.05 801.085C348.05 801.085 348.05 801.085 348.05 801.085C348.05 801.085 348.05 801.085 348.05 801.085C348.05 801.085 348.05 801.085 348.05 801.085C348.05 801.085 348.05 801.085 348.05 801.085C348.05 801.085 348.05 801.085 348.05 801.085C348.051 801.085 348.051 801.085 348.051 801.085C348.051 801.085 348.051 801.085 348.051 801.085C348.051 801.085 348.051 801.085 348.051 801.085C348.051 801.085 348.051 801.085 348.051 801.085C348.051 801.085 348.051 801.085 348.051 801.085C348.051 801.085 348.051 801.085 348.052 801.085C348.052 801.085 348.052 801.085 348.052 801.085C348.052 801.085 348.052 801.085 348.052 801.085C348.052 801.085 348.052 801.085 348.052 801.085C348.052 801.085 348.052 801.085 348.052 801.085C348.052 801.085 348.052 801.085 348.052 801.085C348.052 801.085 348.053 801.085 348.053 801.085C348.053 801.085 348.053 801.085 348.053 801.085C348.053 801.085 348.053 801.085 348.053 801.085C348.053 801.085 348.053 801.085 348.053 801.085C348.053 801.085 348.053 801.085 348.053 801.085C348.053 801.085 348.053 801.085 348.053 801.085C348.054 801.085 348.054 801.085 348.054 801.085C348.054 801.085 348.054 801.085 348.054 801.085C348.054 801.085 348.054 801.085 348.054 801.085C348.054 801.085 348.054 801.085 348.054 801.085C348.054 801.085 348.054 801.085 348.054 801.085C348.054 801.085 348.054 801.085 348.055 801.085C348.055 801.085 348.055 801.085 348.055 801.085C348.055 801.085 348.055 801.085 348.055 801.085C348.055 801.085 348.055 801.085 348.055 801.085C348.055 801.085 348.055 801.085 348.055 801.085C348.055 801.085 348.055 801.085 348.055 801.085C348.055 801.085 348.056 801.085 348.056 801.085C348.056 801.085 348.056 801.085 348.056 801.085C348.056 801.085 348.056 801.085 348.056 801.085C348.056 801.085 348.056 801.085 348.056 801.085C348.056 801.085 348.056 801.085 348.056 801.085C348.056 801.085 348.056 801.085 348.056 801.085C348.057 801.085 348.057 801.085 348.057 801.085C348.057 801.085 348.057 801.085 348.057 801.085C348.057 801.085 348.057 801.085 348.057 801.085C348.057 801.085 348.057 801.085 348.057 801.085C348.057 801.085 348.057 801.085 348.057 801.085C348.057 801.085 348.057 801.085 348.058 801.085C348.058 801.085 348.058 801.085 348.058 801.085C348.058 801.085 348.058 801.085 348.058 801.085C348.058 801.085 348.058 801.085 348.058 801.085C348.058 801.085 348.058 801.085 348.058 801.085C348.058 801.085 348.058 801.085 348.058 801.085C348.058 801.085 348.058 801.085 348.059 801.085C348.059 801.085 348.059 801.085 348.059 801.085C348.059 801.085 348.059 801.085 348.059 801.085C348.059 801.085 348.059 801.085 348.059 801.085C348.059 801.085 348.059 801.085 348.059 801.085C348.059 801.085 348.059 801.085 348.059 801.085C348.059 801.085 348.06 801.085 348.06 801.085C348.06 801.085 348.06 801.085 348.06 801.085C348.06 801.085 348.06 801.085 348.06 801.085C348.06 801.085 348.06 801.085 348.06 801.085C348.06 801.085 348.06 801.085 348.06 801.085C348.06 801.085 348.06 801.085 348.06 801.085C348.06 801.085 348.061 801.085 348.061 801.085C348.061 801.085 348.061 801.085 348.061 801.085C348.061 801.085 348.061 801.085 348.061 801.085C348.061 801.085 348.061 801.085 348.061 801.085C348.061 801.085 348.061 801.085 348.061 801.085C348.061 801.085 348.061 801.085 348.061 801.085C348.062 801.085 348.062 801.085 348.062 801.085C348.062 801.085 348.062 801.085 348.062 801.085C348.062 801.085 348.062 801.085 348.062 801.085C348.062 801.085 348.062 801.085 348.062 801.085C348.062 801.085 348.062 801.085 348.062 801.085C348.062 801.085 348.062 801.085 348.062 801.085C348.063 801.085 348.063 801.085 348.063 801.085C348.063 801.085 348.063 801.085 348.063 801.085C348.063 801.085 348.063 801.085 348.063 801.085C348.063 801.085 348.063 801.085 348.063 801.085C348.063 801.085 348.063 801.085 348.063 801.085C348.063 801.085 348.063 801.085 348.063 801.085C348.064 801.085 348.064 801.085 348.064 801.085C348.064 801.085 348.064 801.085 348.064 801.085C348.064 801.085 348.064 801.085 348.064 801.085C348.064 801.085 348.064 801.085 348.064 801.085C348.064 801.085 348.064 801.085 348.064 801.085C348.064 801.085 348.064 801.085 348.065 801.085C348.065 801.085 348.065 801.085 348.065 801.085C348.065 801.085 348.065 801.085 348.065 801.085C348.065 801.085 348.065 801.085 348.065 801.085C348.065 801.085 348.065 801.085 348.065 801.085C348.065 801.085 348.065 801.085 348.065 801.085C348.065 801.085 348.065 801.085 348.065 801.085C348.066 801.085 348.066 801.085 348.066 801.085C348.066 801.085 348.066 801.085 348.066 801.085C348.066 801.085 348.066 801.085 348.066 801.085C348.066 801.085 348.066 801.085 348.066 801.085C348.066 801.085 348.066 801.085 348.066 801.085C348.066 801.085 348.066 801.085 348.066 801.085C348.067 801.085 348.067 801.085 348.067 801.085C348.067 801.085 348.067 801.085 348.067 801.085C348.067 801.085 348.067 801.085 348.067 801.085C348.067 801.085 348.067 801.085 348.067 801.085C348.067 801.085 348.067 801.085 348.067 801.085C348.067 801.085 348.067 801.085 348.067 801.085C348.068 801.085 348.068 801.085 348.068 801.085C348.068 801.085 348.068 801.085 348.068 801.085C348.068 801.085 348.068 801.085 348.068 801.085C348.068 801.085 348.068 801.085 348.068 801.085C348.068 801.085 348.068 801.085 348.068 801.085C348.068 801.085 348.068 801.085 348.068 801.085C348.068 801.085 348.069 801.085 348.069 801.085C348.069 801.085 348.069 801.085 348.069 801.085C348.069 801.085 348.069 801.085 348.069 801.085C348.069 801.085 348.069 801.085 348.069 801.085C348.069 801.085 348.069 801.085 348.069 801.085C348.069 801.085 348.069 801.085 348.069 801.085C348.069 801.085 348.069 801.085 348.07 801.085C348.07 801.085 348.07 801.085 348.07 801.085C348.07 801.085 348.07 801.085 348.07 801.085C348.07 801.085 348.07 801.085 348.07 801.085C348.07 801.085 348.07 801.085 348.07 801.085C348.07 801.085 348.07 801.085 348.07 801.085C348.07 801.085 348.07 801.085 348.07 801.085C348.071 801.085 348.071 801.085 348.071 801.085C348.071 801.085 348.071 801.085 348.071 801.085C348.071 801.085 348.071 801.085 348.071 801.085C348.071 801.085 348.071 801.085 348.071 801.085C348.071 801.085 348.071 801.085 348.071 801.085C348.071 801.085 348.071 801.085 348.071 801.085C348.071 801.085 348.071 801.085 348.072 801.085C348.072 801.085 348.072 801.085 348.072 801.085C348.072 801.085 348.072 801.085 348.072 801.085C348.072 801.085 348.072 801.085 348.072 801.085C348.072 801.085 348.072 801.085 348.072 801.085C348.072 801.085 348.072 801.085 348.072 801.085C348.072 801.085 348.072 801.085 348.072 801.085C348.072 801.085 348.073 801.085 348.073 801.085C348.073 801.085 348.073 801.085 348.073 801.085C348.073 801.085 348.073 801.085 348.073 801.085C348.073 801.085 348.073 801.085 348.073 801.085C348.073 801.085 348.073 801.085 348.073 801.085C348.073 801.085 348.073 801.085 348.073 801.085C348.073 801.085 348.073 801.085 348.073 801.085C348.074 801.085 348.074 801.085 348.074 801.085C348.074 801.085 348.074 801.085 348.074 801.085C348.074 801.085 348.074 801.085 348.074 801.085C348.074 801.085 348.074 801.085 348.074 801.085C348.074 801.085 348.074 801.085 348.074 801.085C348.074 801.085 348.074 801.085 348.074 801.085C348.074 801.085 348.074 801.085 348.075 801.085C348.075 801.085 348.075 801.085 348.075 801.085C348.075 801.085 348.075 801.085 348.075 801.085C348.075 801.085 348.075 801.085 348.075 801.085C348.075 801.085 348.075 801.085 348.075 801.085C348.075 801.085 348.075 801.085 348.075 801.085C348.075 801.085 348.075 801.085 348.075 801.085C348.075 801.085 348.075 801.085 348.076 801.085C348.076 801.085 348.076 801.085 348.076 801.085C348.076 801.085 348.076 801.085 348.076 801.085C348.076 801.085 348.076 801.085 348.076 801.085C348.076 801.085 348.076 801.085 348.076 801.085C348.076 801.085 348.076 801.085 348.076 801.085C348.076 801.085 348.076 801.085 348.076 801.085C348.076 801.085 348.076 801.085 348.076 801.085C348.077 801.085 348.077 801.085 348.077 801.085C348.077 801.085 348.077 801.085 348.077 801.085C348.077 801.085 348.077 801.085 348.077 801.085C348.077 801.085 348.077 801.085 348.077 801.085C348.077 801.085 348.077 801.085 348.077 801.085C348.077 801.085 348.077 801.085 348.077 801.085C348.077 801.085 348.077 801.085 348.077 801.085C348.077 801.085 348.078 801.085 348.078 801.085C348.078 801.085 348.078 801.085 348.078 801.085C348.078 801.085 348.078 801.085 348.078 801.085C348.078 801.085 348.078 801.085 348.078 801.085C348.078 801.085 348.078 801.085 348.078 801.085C348.078 801.085 348.078 801.085 348.078 801.085C348.078 801.085 348.078 801.085 348.078 801.085C348.078 801.085 348.078 801.085 348.078 801.085C348.079 801.085 348.079 801.085 348.079 801.085C348.079 801.085 348.079 801.085 348.079 801.085C348.079 801.085 348.079 801.085 348.079 801.085C348.079 801.085 348.079 801.085 348.079 801.085C348.079 801.085 348.079 801.085 348.079 801.085C348.079 801.085 348.079 801.085 348.079 801.085C348.079 801.085 348.079 801.085 348.079 801.085C348.079 801.085 348.079 801.085 348.08 801.085C348.08 801.085 348.08 801.085 348.08 801.085C348.08 801.085 348.08 801.085 348.08 801.085C348.08 801.085 348.08 801.085 348.08 801.085C348.08 801.085 348.08 801.085 348.08 801.085C348.08 801.085 348.08 801.085 348.08 801.085C348.08 801.085 348.08 801.085 348.08 801.085C348.08 801.085 348.08 801.085 348.08 801.085C348.08 801.085 348.08 801.085 348.08 801.085C348.081 801.085 348.081 801.085 348.081 801.085C348.081 801.085 348.081 801.085 348.081 801.085C348.081 801.085 348.081 801.085 348.081 801.085C348.081 801.085 348.081 801.085 348.081 801.085C348.081 801.085 348.081 801.085 348.081 801.085C348.081 801.085 348.081 801.085 348.081 801.085C348.081 801.085 348.081 801.085 348.081 801.085C348.081 801.085 348.081 801.085 348.081 801.085C348.081 801.085 348.082 801.085 348.082 801.085C348.082 801.085 348.082 801.085 348.082 801.085C348.082 801.085 348.082 801.085 348.082 801.085C348.082 801.085 348.082 801.085 348.082 801.085C348.082 801.085 348.082 801.085 348.082 801.085C348.082 801.085 348.082 801.085 348.082 801.085C348.082 801.085 348.082 801.085 348.082 801.085C348.082 801.085 348.082 801.085 348.082 801.085C348.082 801.085 348.082 801.085 348.082 801.085C348.083 801.085 348.083 801.085 348.083 801.085C348.083 801.085 348.083 801.085 348.083 801.085C348.083 801.085 348.083 801.085 348.083 801.085C348.083 801.085 348.083 801.085 348.083 801.085C348.083 801.085 348.083 801.085 348.083 801.085C348.083 801.085 348.083 801.085 348.083 801.085C348.083 801.085 348.083 801.085 348.083 801.085C348.083 801.085 348.083 801.085 348.083 801.085C348.083 801.085 348.083 801.085 348.083 801.085C348.083 801.085 348.084 801.085 348.084 801.085C348.084 801.085 348.084 801.085 348.084 801.085C348.084 801.085 348.084 801.085 348.084 801.085C348.084 801.085 348.084 801.085 348.084 801.085C348.084 801.085 348.084 801.085 348.084 801.085C348.084 801.085 348.084 801.085 348.084 801.085C348.084 801.085 348.084 801.085 348.084 801.085C348.084 801.085 348.084 801.085 348.084 801.085C348.084 801.085 348.084 801.085 348.084 801.085C348.084 801.085 348.084 801.085 348.084 801.085C348.084 801.085 348.085 801.085 348.085 801.085C348.085 801.085 348.085 801.085 348.085 801.085C348.085 801.085 348.085 801.085 348.085 801.085C348.085 801.085 348.085 801.085 348.085 801.085C348.085 801.085 348.085 801.085 348.085 801.085C348.085 801.085 348.085 801.085 348.085 801.085C348.085 801.085 348.085 801.085 348.085 801.085C348.085 801.085 348.085 801.085 348.085 801.085C348.085 801.085 348.085 801.085 348.085 801.085C348.085 801.085 348.085 801.085 348.085 801.085C348.085 801.085 348.085 801.085 348.085 801.085C348.086 801.085 348.086 801.085 348.086 801.085C348.086 801.085 348.086 801.085 348.086 801.085C348.086 801.085 348.086 801.085 348.086 801.085C348.086 801.085 348.086 801.085 348.086 801.085C348.086 801.085 348.086 801.085 348.086 801.085C348.086 801.085 348.086 801.085 348.086 801.085C348.086 801.085 348.086 801.085 348.086 801.085C348.086 801.085 348.086 801.085 348.086 801.085C348.086 801.085 348.086 801.085 348.086 801.085C348.086 801.085 348.086 801.085 348.086 801.085C348.086 801.085 348.086 801.085 348.086 801.085C348.086 801.085 348.087 801.085 348.087 801.085C348.087 801.085 348.087 801.085 348.087 801.085C348.087 801.085 348.087 801.085 348.087 801.085C348.087 801.085 348.087 801.085 348.087 801.085C348.087 801.085 348.087 801.085 348.087 801.085C348.087 801.085 348.087 801.085 348.087 801.085C348.087 801.085 348.087 801.085 348.087 801.085C348.087 801.085 348.087 801.085 348.087 801.085C348.087 801.085 348.087 801.085 348.087 801.085C348.087 801.085 348.087 801.085 348.087 801.085C348.087 801.085 348.087 801.085 348.087 801.085C348.087 801.085 348.087 801.085 348.087 801.085C348.087 801.085 348.087 801.085 348.087 801.085C348.087 801.085 348.088 801.085 348.088 801.085C348.088 801.085 348.088 801.085 348.088 801.085C348.088 801.085 348.088 801.085 348.088 801.085C348.088 801.085 348.088 801.085 348.088 801.085C348.088 801.085 348.088 801.085 348.088 801.085C348.088 801.085 348.088 801.085 348.088 801.085C348.088 801.085 348.088 801.085 348.088 801.085C348.088 801.085 348.088 801.085 348.088 801.085C348.088 801.085 348.088 801.085 348.088 801.085C348.088 801.085 348.088 801.085 348.088 801.085C348.088 801.085 348.088 801.085 348.088 801.085C348.088 801.085 348.088 801.085 348.088 801.085C348.088 801.085 348.088 801.085 348.088 801.085C348.088 801.085 348.088 801.085 348.088 801.085C348.088 801.085 348.088 801.085 348.088 801.085C348.088 801.085 348.088 801.085 348.089 801.085C348.089 801.085 348.089 801.085 348.089 801.085C348.089 801.085 348.089 801.085 348.089 801.085C348.089 801.085 348.089 801.085 348.089 801.085C348.089 801.085 348.089 801.085 348.089 801.085C348.089 801.085 348.089 801.085 348.089 801.085C348.089 801.085 348.089 801.085 348.089 801.085C348.089 801.085 348.089 801.085 348.089 801.085C348.089 801.085 348.089 801.085 348.089 801.085C348.089 801.085 348.089 801.085 348.089 801.085C348.089 801.085 348.089 801.085 348.089 801.085C348.089 801.085 348.089 801.085 348.089 801.085C348.089 801.085 348.089 801.085 348.089 801.085C348.089 801.085 348.089 801.085 348.089 801.085C348.089 801.085 348.089 801.085 348.089 801.085C348.089 801.085 348.089 801.085 348.089 801.085C348.089 801.085 348.089 801.085 348.089 801.085C348.089 801.085 348.089 801.085 348.089 801.085C348.089 801.085 348.089 801.085 348.089 801.085C348.089 801.085 348.089 801.085 348.089 801.085C348.089 801.085 348.09 801.085 348.09 801.085C348.09 801.085 348.09 801.085 348.09 801.085C348.09 801.085 348.09 801.085 348.09 801.085C348.09 801.085 348.09 801.085 348.09 801.085C348.09 801.085 348.09 801.085 348.09 801.085C348.09 801.085 348.09 801.085 348.09 801.085C348.09 801.085 348.09 801.085 348.09 801.085C348.09 801.085 348.09 801.085 348.09 801.085C348.09 801.085 348.09 801.085 348.09 801.085C348.09 801.085 348.09 801.085 348.09 801.085C348.09 801.085 348.09 801.085 348.09 801.085C348.09 801.085 348.09 801.085 348.09 801.085C348.09 801.085 348.09 801.085 348.09 801.085C348.09 801.085 348.09 801.085 348.09 801.085C348.09 801.085 348.09 801.085 348.09 801.085C348.09 801.085 348.09 801.085 348.09 801.085C348.09 801.085 348.09 801.085 348.09 801.085C348.09 801.085 348.09 801.085 348.09 801.085C348.09 801.085 348.09 801.085 348.09 801.085C348.09 801.085 348.09 801.085 348.09 801.085C348.09 801.085 348.09 801.085 348.09 801.085C348.09 801.085 348.09 801.085 348.09 801.085C348.09 801.085 348.09 801.085 348.09 801.085C348.09 801.085 348.09 801.085 348.09 801.085C348.09 801.085 348.09 801.085 348.09 801.085C348.09 801.085 348.09 801.085 348.09 801.085C348.09 801.085 348.09 801.085 348.09 801.085C348.09 801.085 348.09 801.085 348.09 801.085C348.09 801.085 348.09 801.085 348.09 801.085C348.09 801.085 348.09 801.085 348.09 801.085C348.09 801.085 348.09 801.085 348.09 801.085C348.09 801.085 348.09 801.085 348.09 801.085C348.09 801.085 348.09 801.085 348.09 801.085C348.09 801.085 348.09 801.085 348.09 801.085C348.09 801.085 348.09 801.085 348.09 801.085C348.09 801.085 348.09 801.085 348.09 801.085C348.09 801.085 348.09 801.085 348.09 801.085C348.09 801.085 348.09 801.085 348.09 801.085C348.09 801.085 348.09 801.085 348.09 801.085C348.09 801.085 348.09 801.085 348.09 801.085C348.09 801.085 348.09 801.085 348.09 801.085C348.09 801.085 348.09 801.085 348.09 801.085C348.09 801.085 348.09 801.085 348.09 801.085C348.09 801.085 348.09 801.085 348.09 795.085ZM519.09 382.99L521.815 377.644C506.684 369.931 500.14 361.861 497.703 353.742C495.177 345.33 496.614 335.507 500.481 323.31C502.394 317.278 504.812 310.92 507.439 304.074C510.046 297.28 512.847 290.036 515.414 282.462C520.555 267.293 524.87 250.484 525.09 232.113L519.09 232.041L513.091 231.969C512.892 248.561 508.994 264.021 504.049 278.61C501.574 285.915 498.865 292.922 496.236 299.775C493.626 306.575 491.08 313.258 489.042 319.683C485.009 332.404 482.6 345.167 486.209 357.192C489.907 369.51 499.477 379.727 516.366 388.335L519.09 382.99ZM519.09 232.041L513.091 232.113C513.311 250.484 517.626 267.293 522.767 282.462C525.333 290.036 528.135 297.28 530.742 304.074C533.369 310.92 535.787 317.278 537.7 323.31C541.567 335.507 543.003 345.33 540.478 353.742C538.041 361.861 531.497 369.931 516.366 377.644L519.09 382.99L521.815 388.335C538.704 379.727 548.274 369.51 551.972 357.192C555.581 345.167 553.172 332.404 549.139 319.683C547.101 313.258 544.555 306.575 541.945 299.775C539.316 292.922 536.607 285.915 534.132 278.61C529.187 264.021 525.289 248.561 525.09 231.969L519.09 232.041Z" fill="#7231B5" mask="url(#path-5-outside-1_589_131)"/>
</g>
</g>
<defs>
<filter id="filter0_ii_589_131" x="-10" y="-10" width="1044" height="1044" filterUnits="userSpaceOnUse" color-interpolation-filters="sRGB">
<feFlood flood-opacity="0" result="BackgroundImageFix"/>
<feBlend mode="normal" in="SourceGraphic" in2="BackgroundImageFix" result="shape"/>
<feColorMatrix in="SourceAlpha" type="matrix" values="0 0 0 0 0 0 0 0 0 0 0 0 0 0 0 0 0 0 127 0" result="hardAlpha"/>
<feOffset dx="10" dy="10"/>
<feGaussianBlur stdDeviation="7.5"/>
<feComposite in2="hardAlpha" operator="arithmetic" k2="-1" k3="1"/>
<feColorMatrix type="matrix" values="0 0 0 0 1 0 0 0 0 1 0 0 0 0 1 0 0 0 1 0"/>
<feBlend mode="normal" in2="shape" result="effect1_innerShadow_589_131"/>
<feColorMatrix in="SourceAlpha" type="matrix" values="0 0 0 0 0 0 0 0 0 0 0 0 0 0 0 0 0 0 127 0" result="hardAlpha"/>
<feOffset dx="-10" dy="-10"/>
<feGaussianBlur stdDeviation="7.5"/>
<feComposite in2="hardAlpha" operator="arithmetic" k2="-1" k3="1"/>
<feColorMatrix type="matrix" values="0 0 0 0 1 0 0 0 0 1 0 0 0 0 1 0 0 0 1 0"/>
<feBlend mode="normal" in2="effect1_innerShadow_589_131" result="effect2_innerShadow_589_131"/>
</filter>
<filter id="filter1_f_589_131" x="-621.735" y="-616.07" width="2281.21" height="2281.21" filterUnits="userSpaceOnUse" color-interpolation-filters="sRGB">
<feFlood flood-opacity="0" result="BackgroundImageFix"/>
<feBlend mode="normal" in="SourceGraphic" in2="BackgroundImageFix" result="shape"/>
<feGaussianBlur stdDeviation="150" result="effect1_foregroundBlur_589_131"/>
</filter>
<filter id="filter2_dii_589_131" x="302" y="117" width="454" height="810" filterUnits="userSpaceOnUse" color-interpolation-filters="sRGB">
<feFlood flood-opacity="0" result="BackgroundImageFix"/>
<feColorMatrix in="SourceAlpha" type="matrix" values="0 0 0 0 0 0 0 0 0 0 0 0 0 0 0 0 0 0 127 0" result="hardAlpha"/>
<feOffset dx="10" dy="10"/>
<feGaussianBlur stdDeviation="25"/>
<feComposite in2="hardAlpha" operator="out"/>
<feColorMatrix type="matrix" values="0 0 0 0 0 0 0 0 0 0 0 0 0 0 0 0 0 0 0.4 0"/>
<feBlend mode="normal" in2="BackgroundImageFix" result="effect1_dropShadow_589_131"/>
<feBlend mode="normal" in="SourceGraphic" in2="effect1_dropShadow_589_131" result="shape"/>
<feColorMatrix in="SourceAlpha" type="matrix" values="0 0 0 0 0 0 0 0 0 0 0 0 0 0 0 0 0 0 127 0" result="hardAlpha"/>
<feOffset dx="-10" dy="-10"/>
<feGaussianBlur stdDeviation="5"/>
<feComposite in2="hardAlpha" operator="arithmetic" k2="-1" k3="1"/>
<feColorMatrix type="matrix" values="0 0 0 0 1 0 0 0 0 1 0 0 0 0 1 0 0 0 0.15 0"/>
<feBlend mode="normal" in2="shape" result="effect2_innerShadow_589_131"/>
<feColorMatrix in="SourceAlpha" type="matrix" values="0 0 0 0 0 0 0 0 0 0 0 0 0 0 0 0 0 0 127 0" result="hardAlpha"/>
<feOffset dx="10" dy="10"/>
<feGaussianBlur stdDeviation="5"/>
<feComposite in2="hardAlpha" operator="arithmetic" k2="-1" k3="1"/>
<feColorMatrix type="matrix" values="0 0 0 0 1 0 0 0 0 1 0 0 0 0 1 0 0 0 0.6 0"/>
<feBlend mode="normal" in2="effect2_innerShadow_589_131" result="effect3_innerShadow_589_131"/>
</filter>
<linearGradient id="paint0_linear_589_131" x1="512" y1="1.29193e-05" x2="512" y2="1024" gradientUnits="userSpaceOnUse">
<stop stop-color="#313031"/>
<stop offset="1" stop-color="#141414"/>
</linearGradient>
<linearGradient id="paint1_linear_589_131" x1="348" y1="73.0763" x2="668.859" y2="823.966" gradientUnits="userSpaceOnUse">
<stop stop-color="#B45AFD"/>
<stop offset="1" stop-color="#4A1C7B"/>
</linearGradient>
<clipPath id="clip0_589_131">
<rect width="1024" height="1024" rx="260" fill="white"/>
</clipPath>
</defs>
</svg>
