<svg width="92" height="92" viewBox="0 0 92 92" fill="none" xmlns="http://www.w3.org/2000/svg">
<g clip-path="url(#clip0_55_26)">
<rect x="6" y="6" width="80" height="80" rx="13" fill="#EFD9F5"/>
<path d="M62.3333 72.4097C62.6348 71.8977 62.8899 71.4134 63.1172 70.9061C63.414 70.2419 64.1004 69.9098 64.657 69.4809C65.8815 68.54 67.0132 67.4976 68.1171 66.4183C69.4807 65.0854 70.6356 63.5771 71.693 62.0228C72.4351 60.9343 73.0706 59.7581 73.655 58.5589C74.0631 57.7241 74.411 56.8616 74.7635 56.0083C75.4035 54.4632 75.9091 52.8627 76.1781 51.2207C76.5631 48.8777 76.9712 46.5208 76.7208 44.1316C76.5538 42.5311 76.4332 40.9261 76.0019 39.3579C75.8442 38.7952 75.7607 38.214 75.487 37.6283C75.2551 38.1033 75.3386 38.5738 75.3572 38.9935C75.4082 40.225 75.4407 41.4565 75.5102 42.6834C75.6123 44.4222 75.6262 46.1703 75.4917 47.9183C75.4035 49.0622 75.2319 50.183 75.0279 51.3038C74.8748 52.1524 74.629 52.9919 74.3832 53.8175C73.7524 55.9253 72.8619 57.9317 71.758 59.8273C70.2784 62.3687 68.567 64.7348 66.3221 66.6904C65.5754 67.3408 64.8982 68.0649 63.9567 68.6553C64.1654 67.5575 64.1886 66.5843 63.9845 65.5835C63.7711 64.5319 63.1589 63.7616 62.44 63.0513C61.6747 62.2995 60.9651 61.5154 60.492 60.5468C60.3204 60.1963 60.4363 59.7996 60.274 59.3476C59.9308 61.4093 60.9743 62.8207 62.2034 64.1629C62.1617 64.1952 62.12 64.2321 62.0829 64.2644C61.9205 64.1075 61.7535 63.9507 61.5912 63.7939C61.4103 63.614 61.2387 63.4203 61.0486 63.2496C59.3139 61.6999 58.9753 59.7996 59.3835 57.5857C59.6757 56.0129 60.2693 54.5554 60.7007 53.0334C61.1413 51.4883 61.3918 49.9016 60.8259 48.338C60.427 47.2449 59.6432 46.4101 58.6506 45.7967C57.6256 45.1602 56.6423 44.4775 55.8399 43.5551C56.1368 44.4637 56.6655 45.2201 57.3752 45.8566C58.1312 46.5346 58.9892 47.0927 59.5597 47.9737C60.5152 49.4496 60.5755 51.0731 60.2554 52.6967C60.0096 53.9328 59.4809 55.1089 59.0866 56.3173C58.544 57.9686 57.9642 59.6336 58.5208 61.4508C58.8269 62.4517 59.4206 63.2174 60.0421 63.9922C60.8584 65.0116 61.7489 65.9571 62.0457 67.3085C62.3194 68.5446 62.0875 69.693 61.5216 70.7493C60.2137 73.1984 58.0152 74.5175 55.4411 75.38C54.0032 75.8597 52.5561 76.2702 51.0673 76.5147C49.3837 76.7914 47.6908 77.0174 45.9375 76.9989C46.188 75.583 47.1017 74.6743 48.1824 73.9548C49.7965 72.8848 51.6888 72.4005 53.442 71.6164C55.2416 70.8138 56.9345 69.8268 57.774 67.9173C58.2054 66.9441 58.4141 65.9202 58.1312 64.8317C57.8946 63.9092 57.5236 63.0329 57.2499 62.1289C56.9067 61.0035 56.7397 59.8458 57.0273 58.6327C57.3891 57.1107 58.0848 55.7408 58.7573 54.3571C59.4438 52.9504 59.6664 51.4929 59.4298 49.9708C59.3417 49.3897 58.9521 48.9192 58.6321 48.3104C58.4976 48.6978 58.6367 48.9607 58.6924 49.1959C59.0634 50.7872 58.6089 52.1755 57.7879 53.5269C57.0366 54.7676 56.0579 55.8746 55.4689 57.2121C54.6247 59.1309 54.3604 61.0588 55.5524 63.0559C55.9141 62.3595 55.3808 61.7322 55.6451 61.0957C55.8492 62.3364 56.4383 63.4111 56.9716 64.5042C57.6024 65.8049 57.0922 67.9358 55.9976 68.9366C54.6711 70.1451 53.0803 70.7585 51.4059 71.2889C49.7779 71.8101 48.0989 72.239 46.5962 73.0785C45.3068 73.8026 44.291 74.8127 43.8133 76.2656C43.6788 76.6761 43.5767 77.0312 42.9135 76.8975C41.0629 76.5193 39.1705 76.3763 37.3385 75.8366C35.8914 75.4123 34.4535 74.9603 33.0807 74.3699C31.3043 73.6043 29.6113 72.6403 27.9973 71.5703C26.0585 70.2834 24.2636 68.8167 22.682 67.1102C20.9381 65.2329 19.4167 63.1943 18.132 60.9712C17.325 59.5736 16.6014 58.13 16.0263 56.6402C15.6088 55.5655 14.8018 53.3009 14.3426 50.2891C13.902 47.3741 13.9438 44.7866 14.1478 42.7064C14.3519 41.5487 14.5514 40.3864 14.7554 39.2287C15.261 37.1394 15.9057 35.4512 16.4623 34.2013C16.62 33.8508 17.158 32.7438 17.9279 31.3325C18.7767 29.7781 19.8295 28.3621 20.9241 26.9692C21.8147 25.8346 22.835 24.8245 23.8786 23.8328C25.3211 22.463 26.9027 21.2822 28.5817 20.1937C30.154 19.1744 31.8098 18.3488 33.5074 17.597C35.3858 16.7668 37.357 16.1211 39.3653 15.7059C42.0601 15.1479 44.8058 14.8803 47.5748 15.051C49.8104 15.1894 52.0042 15.5399 54.1795 16.1026C57.2824 16.9005 60.1673 18.192 62.8992 19.8155C64.8889 21.0009 66.7534 22.3892 68.4232 23.9943C70.0512 25.5578 71.5168 27.2552 72.7645 29.1508C73.5066 30.2762 74.2487 31.4016 74.8377 32.6055C75.4082 33.7678 76.0158 34.9254 76.3265 36.2031C76.461 36.7565 76.6929 37.2823 76.8738 37.822C77.9499 41.1059 78.1354 44.4822 77.922 47.8768C77.7597 50.4505 77.2588 52.9642 76.4007 55.4272C75.5705 57.8117 74.5316 60.0856 73.1865 62.2027C71.7904 64.4027 70.1671 66.4229 68.233 68.2125C66.4891 69.8268 64.5921 71.2105 62.5188 72.3636C62.4725 72.3913 62.4029 72.3866 62.3008 72.4005L62.3333 72.4097ZM44.3374 38.5184C44.4626 38.2924 44.3838 38.1172 44.2029 37.9603C43.9803 37.7712 43.7623 37.5729 43.5489 37.3746C42.394 36.2999 41.3504 36.4244 40.4785 37.7021C40.3022 37.9557 40.3579 38.0618 40.5712 38.191C41.3041 38.643 42.1018 38.5461 42.8578 38.3478C43.4144 38.2002 43.8875 38.1264 44.3513 38.5092C44.3513 38.5323 44.3652 38.5507 44.3652 38.5738C44.3652 38.5922 44.342 38.6245 44.342 38.6245C43.8736 38.4769 43.4515 38.5922 43.1315 38.9382C42.8161 39.2841 42.4311 39.3763 41.9998 39.4363C41.5267 39.5009 41.0443 39.4363 40.5759 39.5931C40.3579 39.6669 39.9312 39.6208 39.959 39.3948C40.0007 39.0627 39.9312 39.1457 39.7271 39.2011C39.588 39.238 39.4349 39.2241 39.2169 39.238C39.6436 38.726 39.203 38.666 38.9293 38.523C38.5536 38.3339 38.5026 38.5922 38.447 38.869C38.2336 39.8883 38.3032 40.903 38.4748 41.9131C38.7021 43.2184 38.8644 44.5467 39.3653 45.7828C39.9265 47.1711 40.7985 48.338 42.0693 49.2005C44.0916 50.5704 46.2576 51.027 48.5674 50.1553C50.7983 49.3159 52.3474 47.8122 53.0988 45.4554C53.6832 43.6058 53.9847 41.7563 53.9337 39.8283C53.9244 39.4593 53.827 39.118 53.6832 38.786C53.609 38.6107 53.5348 38.3847 53.2797 38.5738C53.122 38.6891 52.7695 38.726 53.0246 39.0627C53.1777 39.261 53.0385 39.2749 52.8762 39.3487C52.0135 39.7499 51.1276 39.5147 50.2603 39.4271C49.5043 39.3533 49.0497 38.6706 48.3679 38.4031C48.6648 38.048 49.0126 38.1679 49.2816 38.2878C49.9263 38.5738 50.5942 38.4723 51.2482 38.4493C51.559 38.44 52.0413 38.3524 51.8929 37.8266C51.6146 36.8349 50.4272 36.3922 49.5182 36.8811C48.8085 37.2639 48.2937 37.8358 47.7696 38.5461C47.7557 38.3339 47.7418 38.2325 47.7418 38.131C47.7418 37.7897 48.1731 37.3515 47.867 37.1716C47.5887 37.0056 47.5331 37.7021 47.0924 37.7805C47.278 37.1809 47.3707 36.5582 47.6536 36.037C48.1778 35.0823 49.1703 34.8701 50.1582 34.7732C50.7426 34.7179 51.3224 34.7087 51.9346 34.5103C51.7166 34.3258 51.559 34.1829 51.3966 34.0491C51.3317 33.9938 51.2621 33.9384 51.1879 33.9015C48.9848 32.8684 47.4078 31.2494 46.5127 28.9848C46.4385 28.8049 46.3735 28.4959 46.1463 28.5051C45.8772 28.5097 45.8309 28.8326 45.7752 29.0447C45.5479 29.9211 45.0888 30.6683 44.5183 31.3601C43.6092 32.4671 42.4079 33.1774 41.1371 33.777C40.7428 33.9661 40.5434 34.2428 40.279 34.6349C41.0026 34.681 41.638 34.7087 42.2781 34.764C43.1593 34.8424 44.0405 35.0315 44.5878 35.7603C45.0146 36.3322 45.1491 37.0748 45.1908 37.8681C44.676 37.3561 44.5925 37.6698 44.676 38.1033C44.7409 38.44 44.5739 38.4954 44.3281 38.5323L44.3374 38.5184ZM21.4807 40.1466C22.4269 39.3394 23.4751 39.0996 24.7367 39.0627C24.5372 39.3625 24.3935 39.5239 24.3053 39.713C23.7348 40.9399 22.8443 41.6871 21.4204 41.6825C21.2303 41.6825 21.0123 41.7055 20.9659 41.95C20.8267 42.6695 20.6969 43.3936 20.5531 44.1408C20.6412 44.1039 20.7015 44.0993 20.7108 44.0763C21.2256 42.997 22.2506 42.5773 23.2525 42.1345C23.4473 42.0469 23.8601 41.8808 23.7209 42.3559C23.2989 43.758 22.6495 44.9987 21.0076 45.2893C20.5763 45.3677 20.4557 45.626 20.4418 46.0042C20.4093 46.8298 20.6737 47.637 20.5067 48.4764C20.7154 48.4487 20.7201 48.3611 20.7293 48.2781C20.8778 46.9913 21.6848 46.2118 22.7701 45.6306C23.002 45.5061 23.0948 45.4692 23.1365 45.7782C23.322 47.125 22.362 49.0668 21.1375 49.3481C20.9056 49.4035 20.8917 49.528 20.9009 49.7171C20.9381 50.3398 21.0076 50.944 21.4065 51.4883C21.5225 51.2991 21.6616 51.1331 21.7358 50.9394C22.0327 50.1415 22.6449 49.6064 23.2757 49.0899C23.4844 48.9192 23.7024 48.8639 23.7673 49.2328C23.9899 50.492 23.3452 52.1755 22.1069 52.6229C21.8378 52.7197 21.81 52.872 21.8425 53.1072C21.9399 53.7852 22.348 54.311 22.6681 55.0766C22.8026 54.0527 23.6142 52.609 24.2172 52.1893C24.4445 52.0325 24.4862 52.2124 24.5604 52.383C25.0428 53.4854 24.5836 55.132 23.5632 55.7823C23.1875 56.0222 23.1829 56.2712 23.4287 56.5664C23.5864 56.7509 23.7719 56.9169 23.8972 57.2398C24.7274 55.6532 25.9797 54.6615 27.4685 53.942C27.7236 53.8175 27.8071 53.6514 27.719 53.3793C27.2227 51.8157 27.1068 50.2383 27.3711 48.6102C27.603 47.1804 28.308 46.1011 29.4397 45.2247C30.3024 44.556 31.3553 44.3161 32.3246 43.901C32.7977 43.6981 32.756 43.5828 32.5102 43.2507C31.9629 42.4942 31.513 41.6917 31.2069 40.7923C30.5297 38.8228 31.8423 36.4521 33.461 35.668C34.1242 35.3452 34.8292 35.1053 35.4739 34.7502C35.845 34.5472 36.5732 34.4965 36.2068 33.7262C36.1928 33.694 36.2902 33.5694 36.3552 33.5464C37.0741 33.3388 37.575 32.7807 38.1872 32.4025C38.3635 32.2918 39.8987 32.2549 39.9915 32.4117C40.177 32.7161 40.3857 32.5639 40.5295 32.4532C40.8171 32.2365 41.2345 32.1581 41.3922 31.8167C41.536 31.5031 41.0768 31.3509 41.0861 31.0465C41.0861 31.0234 41.0953 31.005 41.1093 30.9266C41.9348 31.0373 42.7326 30.8758 43.535 30.6498C44.2771 30.4423 44.5786 30.0364 44.2817 29.5752C44.0127 29.1508 44.1209 28.871 44.6064 28.7357C44.7502 28.6942 44.8801 28.5974 45.0238 28.5835C45.4969 28.5282 45.8958 28.1453 46.4199 28.3206C47.1203 28.5558 47.8299 28.7542 48.5349 28.9663C47.9551 29.5982 47.9551 29.9534 48.5442 30.4192C49.815 31.4247 50.956 32.6101 52.468 33.2835C53.3864 33.694 54.2723 34.1736 55.2787 34.4043C56.5774 34.6994 57.8761 35.1192 59.0031 35.8248C60.812 36.9641 61.9715 38.5646 62.2081 40.7785C62.3426 42.0561 62.1107 43.2184 61.5448 44.3299C61.3825 44.6528 61.3268 44.7866 61.6793 45.0172C63.4836 46.2072 64.6524 47.8491 65.0884 49.98C65.3991 51.4975 65.3017 52.9642 64.5967 54.3709C64.0633 55.4364 64.0912 56.1236 64.6895 56.6218C65.0837 56.9492 65.4919 57.2536 65.8768 57.5811C66.8184 58.379 67.4121 59.3799 67.7182 60.5837C67.9362 61.4416 68.1171 62.2949 68.1356 63.2035C68.6458 62.9775 68.6041 62.5209 68.6829 62.1565C69.0771 60.3347 68.836 58.6235 67.4724 57.2675C66.9065 56.7002 66.3824 56.2574 66.8277 55.4041C66.8416 55.3718 66.8833 55.3534 66.939 55.3072C67.3379 55.6439 67.6254 56.0591 67.8991 56.5157C68.1866 57 68.0985 57.5627 68.3582 58.1992C68.7061 57.5027 68.9937 56.9262 69.2859 56.3542C69.425 56.0867 69.1838 56.0129 69.0447 55.9161C67.6764 54.929 67.3425 53.6468 68.0892 52.134C68.7849 52.6921 69.3322 53.3424 69.6198 54.1957C69.6847 54.3848 69.694 54.6984 69.9213 54.7076C70.1996 54.7169 70.181 54.371 70.3062 54.1865C70.4686 53.9466 70.3619 53.6468 70.5196 53.3978C70.7422 53.0472 70.6124 52.7982 70.2413 52.5998C69.2024 52.0463 68.4695 50.5981 68.6041 49.4496C68.6643 48.9284 68.7849 48.8961 69.2441 49.1821C70.1532 49.7494 70.5613 50.6811 71.0762 51.622C71.3637 50.9809 71.3545 50.3306 71.5493 49.7356C71.6142 49.5419 71.4658 49.4312 71.2803 49.3712C69.9955 48.9561 69.04 47.0328 69.4575 45.5937C70.5753 46.0596 70.8582 46.3086 71.4287 47.3418C71.4982 47.4709 71.5493 47.6554 71.7255 47.6324C71.9018 47.6093 71.9296 47.4294 71.9296 47.2818C71.9389 46.7699 71.9296 46.2579 71.9389 45.7459C71.9389 45.46 71.7673 45.4092 71.5307 45.3677C69.8981 45.114 69.1931 43.9241 68.6736 42.5496C68.6226 42.4112 68.5298 42.259 68.6412 42.1299C68.7525 42.0007 68.9287 42.0469 69.0586 42.1114C69.5178 42.3282 69.9537 42.5865 70.4222 42.7802C71.0344 43.0339 71.2571 43.6842 71.8136 44.1132C71.7626 43.4536 71.5585 42.9186 71.4379 42.3651C71.322 41.8162 71.0855 41.558 70.501 41.6686C70.1254 41.7378 69.8007 41.5764 69.476 41.3827C68.7989 40.9722 68.3165 40.4003 67.9918 39.6946C67.9037 39.4962 67.5605 39.3302 67.7692 39.1042C67.9176 38.9382 68.2145 39.0719 68.4464 39.1088C69.374 39.261 70.2042 39.6023 70.8628 40.4741C70.8767 40.0221 70.6587 39.8099 70.6031 39.5562C70.3851 38.5369 69.7682 38.3155 68.7618 38.3109C67.4399 38.3063 66.6143 37.4023 66.0113 36.2446C67.259 36.0324 68.3536 36.1984 69.3044 37.0333C69.1931 36.5213 68.8406 36.1708 68.6597 35.7418C68.4464 35.2345 68.131 35.1053 67.6069 35.1422C67.0132 35.1837 66.4334 35.1514 65.8536 34.8885C65.1208 34.5518 64.6941 33.9338 64.2025 33.3665C64.0865 33.2327 63.901 33.0713 64.0077 32.8684C64.1144 32.67 64.3509 32.73 64.5364 32.7254C65.6171 32.7254 66.5818 33.0436 67.3842 33.8139C67.0549 33.0528 66.4891 32.4809 66.0113 31.8444C65.8258 31.5907 65.6449 31.5585 65.3713 31.5723C64.6245 31.6138 63.85 31.6461 63.2238 31.1526C62.6904 30.7329 62.2127 30.2393 61.8231 29.6397C62.9316 29.0955 63.8917 29.6628 64.9028 29.9764C64.6617 29.3768 64.337 28.9064 63.6366 28.8695C63.4511 28.8603 63.3166 28.7634 63.1775 28.6712C61.9066 27.8133 61.3408 26.5172 60.9558 25.1104C60.8909 24.8752 60.9512 24.7737 61.2016 24.8429C62.5838 25.2396 63.7479 25.8945 64.4761 27.2137C64.9446 28.0623 64.8472 29.0678 65.3574 29.8934C65.7748 30.5668 66.0577 31.3371 66.7952 32.0105C66.1551 30.6037 66.0067 29.1739 66.3267 28.1361C68.0614 28.828 68.4324 31.0557 67.8434 32.4302C67.6903 32.7899 67.5605 33.1451 67.7553 33.4495C68.0707 33.9384 68.3119 34.478 68.7664 34.9162C68.4974 33.8877 68.4371 32.8914 68.9705 31.9505C69.0911 31.7383 69.0864 31.3325 69.3508 31.3647C69.5502 31.3924 69.7033 31.743 69.8749 31.9505C69.9166 32.0012 69.9445 32.0566 69.9723 32.1165C70.5521 33.4403 70.4825 34.7041 69.6198 35.894C69.5317 36.0186 69.4296 36.1569 69.4992 36.3045C69.7404 36.798 69.9955 37.2869 70.246 37.7759C70.297 37.7666 70.348 37.7574 70.399 37.7482C70.2367 36.5259 70.5613 35.4605 71.3174 34.4965C72.4908 36.1108 72.3053 37.7113 71.3081 39.1872C71.2431 39.2841 71.0344 39.3394 71.0947 39.464C71.3452 39.9667 71.2107 40.6078 71.707 41.0644C71.7858 40.8892 71.8878 40.7508 71.911 40.594C72.0131 39.9067 72.3285 39.3256 72.7042 38.7583C72.95 38.3847 73.1262 38.3708 73.3164 38.7813C73.8544 39.9436 73.6782 41.0368 73.0288 42.1068C72.7969 42.485 72.2914 42.6972 72.2125 43.0939C72.0734 43.7949 72.2914 44.496 72.5511 45.1786C72.7969 44.5006 73.1726 43.9287 73.5483 43.3429C74.0214 42.6049 74.462 41.8255 74.3739 40.8892C74.2069 39.1273 73.7663 37.4161 73.0938 35.7972C72.3238 33.9338 71.3452 32.1627 70.1903 30.4976C69.0725 28.8833 67.7831 27.4304 66.3407 26.079C64.8657 24.7 63.298 23.4639 61.6098 22.3753C60.2786 21.5175 58.8594 20.8256 57.3984 20.1937C56.2852 19.714 55.1628 19.262 54.0125 18.9207C52.2361 18.3903 50.4226 18.0905 48.5581 17.9245C45.6082 17.6662 42.6909 17.8461 39.8152 18.4272C37.5054 18.8931 35.2884 19.7509 33.1827 20.8025C31.244 21.7711 29.4073 22.9012 27.7097 24.2848C26.04 25.6501 24.5558 27.1722 23.1968 28.8326C22.2135 30.0272 21.3508 31.3094 20.6134 32.6608C20.029 33.7309 19.5141 34.8378 19.055 35.9771C18.568 37.1901 18.3129 38.4354 18.0763 39.6992C17.8908 40.6816 17.8723 41.6548 18.3593 42.5404C18.9019 43.5274 19.6533 44.4037 19.8435 45.5707C20.1588 44.7174 19.9038 43.8272 20.1449 42.9878C20.1728 42.8955 20.08 42.8586 20.0058 42.8125C18.9019 42.1483 18.2294 40.2204 18.837 38.9382C18.9205 38.7629 18.9344 38.4769 19.208 38.4723C19.4539 38.4723 19.5327 38.6983 19.6533 38.8782C20.1357 39.6023 20.3305 40.4279 20.4882 41.3089C20.9705 40.7923 20.8407 40.1235 21.1607 39.6208C21.2442 39.4962 21.0911 39.4317 21.0215 39.3302C20.0383 37.9188 19.8666 36.4198 20.5856 34.8424C20.7015 34.5841 20.8778 34.395 21.1236 34.7502C21.5039 35.2944 21.7915 35.8756 21.8147 36.5536C21.8286 36.9595 21.759 37.3792 21.8842 37.8266C22.3573 37.4069 22.3759 36.8257 22.6866 36.3968C22.8165 36.2215 22.6866 35.9955 22.5568 35.8064C21.7173 34.5472 21.4993 33.2512 22.3249 31.8813C22.4547 31.6692 22.631 31.3878 22.7748 31.397C23.002 31.4109 23.1365 31.6738 23.2386 31.9321C23.5911 32.8084 23.7024 33.7032 23.5447 34.741C24.0827 34.2382 24.2218 33.634 24.5836 33.1774C24.6671 33.0713 24.681 32.9237 24.5836 32.8222C23.9667 32.1903 24.1198 31.3924 24.1384 30.6406C24.1662 29.4368 24.8526 28.6665 25.9472 28.0669C25.8591 29.2938 26.1142 30.4423 25.7571 31.5723C26.4296 30.6175 27.1392 29.672 27.3016 28.5005C27.5891 26.4388 28.9388 25.4425 30.7709 24.8706C30.9518 24.8153 31.2579 24.6446 31.1651 25.0689C30.859 26.4803 30.2792 27.7302 29.0223 28.5881C28.642 28.851 28.1411 28.8049 27.8257 29.1324C27.6772 29.2846 27.3711 29.4599 27.5288 29.6997C27.6448 29.875 27.9184 29.7366 28.1225 29.6674C28.8553 29.423 29.5928 29.2016 30.372 29.6259C30.2746 29.755 30.1911 29.8657 30.1076 29.9764C29.4258 30.8851 28.6049 31.6323 27.3897 31.5492C26.5687 31.4939 26.0678 31.8075 25.6782 32.4625C25.5623 32.6562 25.3443 32.7899 25.2144 32.9791C25.0382 33.2281 24.8434 33.4772 24.7738 33.9292C25.6597 33.0252 26.6476 32.6839 27.77 32.7069C28.1457 32.7161 28.3359 32.7761 28.0622 33.2281C27.2273 34.621 26.0446 35.2944 24.4074 35.133C24.1987 35.1146 23.9296 35.0546 23.823 35.2806C23.5586 35.8295 23.1458 36.3138 22.9696 36.9871C23.9389 36.2953 24.7088 36.0785 25.8359 36.1662C26.0029 36.18 26.3322 36.1293 26.142 36.4429C25.8962 36.8488 25.6504 37.2639 25.2608 37.5729C24.4723 38.2002 23.5586 38.417 22.5753 38.4354C22.3109 38.44 22.0605 38.4446 21.9538 38.7583C21.7915 39.2241 21.6152 39.69 21.4436 40.1512L21.4807 40.1466ZM27.2505 68.1479C26.5919 67.5206 26.04 66.981 25.4788 66.4598C24.0688 65.1545 22.9046 63.6417 21.7776 62.1012C21.0262 61.0773 20.3861 59.9795 19.8017 58.8541C19.2591 57.8071 18.6978 56.7555 18.299 55.6532C17.4919 53.4254 16.9493 51.1331 16.6385 48.7716C16.2211 45.5891 16.4947 42.4435 16.9075 39.3071C17.0791 38.0157 17.2925 36.715 17.7053 35.4605C17.7609 35.299 17.7749 35.1099 17.6496 34.8793C17.3713 35.3959 17.0281 35.811 16.9075 36.2861C16.5875 37.5729 16.1283 38.8182 15.8779 40.1374C15.6228 41.4749 15.4558 42.8125 15.3769 44.1593C15.312 45.2386 15.3166 45.8797 15.3259 46.1518C15.3491 47.1019 15.4419 47.8999 15.5346 48.4949C15.7062 50.2568 16.0959 52.586 17.0142 55.1966C17.1812 55.6716 17.8212 57.5027 19.0689 59.7258C20.2377 61.8106 21.5874 63.757 23.1922 65.5374C25.3953 67.9865 27.9509 69.9652 30.8683 71.4965C31.346 71.7455 31.8748 71.907 32.3803 72.1099C31.5083 71.3673 30.6271 70.6893 29.8201 69.896C31.5083 69.9237 33.1178 70.3065 34.6623 70.883C36.3181 71.5011 37.9275 72.2483 39.3746 73.286C39.5926 73.4429 39.6622 73.3967 39.8245 73.1431C40.1955 72.5573 40.4692 71.9162 40.9423 71.395C42.6584 69.4993 44.945 68.7106 47.3151 68.0465C48.1499 67.8158 49.008 67.6175 49.8336 67.1886C49.5599 66.9626 49.3744 66.7919 49.1703 66.6489C46.4895 64.8086 45.6082 62.1796 46.4941 59.0109C46.7863 57.9639 47.2965 57.0184 47.8763 56.1098C48.1128 55.7316 48.0943 55.5056 47.5934 55.4226C46.8559 55.3026 46.1602 55.0766 45.5248 54.6661C44.0637 53.7206 42.9367 52.4753 42.0786 50.9809C41.9766 50.801 41.8374 50.7042 41.5916 50.6258C41.6287 51.3084 41.6519 51.9587 41.7076 52.609C41.8421 54.2234 41.9951 55.8653 41.522 57.4289C40.9005 59.4814 39.305 60.6529 37.3153 61.2525C35.2791 61.8706 33.1131 61.9398 31.0816 62.5624C29.7319 62.9775 28.6281 63.7662 27.8952 65.0392C27.3572 65.9755 27.2413 66.9718 27.2505 68.1618V68.1479ZM37.5286 49.611C37.1947 50.2106 36.87 50.8241 36.5639 51.4421C35.8635 52.8304 34.7875 53.8959 33.5955 54.823C32.1855 55.9207 30.4508 56.4373 28.8414 57.1752C27.7515 57.6734 26.7403 58.2776 25.9519 59.2277C24.9732 60.3992 24.6068 61.7829 24.3239 63.2174C24.2543 63.5725 24.3378 63.9184 24.5929 64.269C24.899 63.7109 24.9083 63.0836 25.1634 62.5809C26.0864 60.7775 27.6401 59.6751 29.5047 58.9694C31.2996 58.2914 33.0482 57.5765 34.4953 56.2435C36.4479 54.4401 37.4034 52.2308 37.5379 49.611H37.5286ZM54.6897 55.3626C54.3697 55.8146 54.0125 56.2435 53.7435 56.7232C53.2982 57.5119 52.802 58.3053 52.6582 59.2047C52.3706 60.9527 52.6767 62.5901 53.6647 64.1029C54.5552 65.4682 54.3279 66.6166 53.2472 67.8389C52.1155 69.1211 50.5478 69.7115 49.0126 70.3111C47.6908 70.8277 46.355 71.3074 45.214 72.1745C44.5136 72.7049 43.9339 73.3506 43.637 74.4068C43.8921 74.1993 44.0127 74.1163 44.1101 74.0102C44.6574 73.4521 45.2372 72.9124 45.919 72.5527C47.4171 71.7594 49.0822 71.3765 50.6499 70.74C51.7584 70.2926 52.7927 69.7484 53.6554 68.909C54.9958 67.6037 55.2184 66.0908 54.5366 64.3981C54.1888 63.5402 53.6786 62.7146 53.5719 61.806C53.3632 60.0256 53.4049 58.2637 54.3465 56.6125C54.5413 56.2712 54.7639 55.8515 54.6897 55.358V55.3626ZM32.218 50.6996C32.5844 50.5381 32.9508 50.432 33.3079 50.3398C35.4276 49.7955 37.1947 47.1388 37.0555 45.0402C37.0463 44.8696 37.1529 44.5975 36.8793 44.5744C36.6752 44.5606 36.6103 44.7866 36.5361 44.9757C35.9146 46.5992 34.7365 47.6923 33.192 48.458C32.167 48.9653 31.0167 49.1775 30.0659 49.8463C28.9481 50.6304 28.4193 51.7281 28.3034 53.0518C28.2895 53.2179 28.2895 53.407 28.5307 53.4439C28.744 53.4762 28.9017 53.4254 28.9713 53.1902C29.0177 53.0288 29.1383 52.8858 29.1707 52.7244C29.3284 51.991 29.8804 51.5713 30.4137 51.1285C31.0955 50.5658 31.9304 50.2798 32.7189 49.9477C33.2059 49.7402 33.6001 49.3205 34.1985 49.2697C33.5955 49.8786 32.8163 50.1691 32.218 50.7088V50.6996ZM32.3015 40.1281C33.294 38.9243 34.537 38.4262 35.8357 38.0111C35.7151 38.1725 35.5899 38.3247 35.4322 38.4262C34.6901 38.892 34.0361 39.4547 33.4935 40.1374C32.9137 40.8707 32.8117 41.8393 33.2523 42.5634C33.3079 42.402 33.3775 42.2729 33.3961 42.1345C33.5955 40.6447 34.5185 39.6346 35.7151 38.9013C37.0787 38.0664 38.0249 36.8995 38.7856 35.5573C38.9618 35.2483 39.2679 34.8747 39.0963 34.2982C38.8922 34.7225 38.5258 34.741 38.2661 34.9623C37.5425 35.5712 36.7865 36.1754 35.9609 36.632C35.1122 37.0978 34.1938 37.453 33.3961 37.9972C32.756 38.4354 32.2041 39.0212 32.2968 40.1235L32.3015 40.1281ZM53.9522 35.7142C54.1192 36.1154 54.2815 36.5167 54.4485 36.918C54.8891 37.9834 55.6266 38.7952 56.6284 39.3625C57.3798 39.7914 58.2054 40.0497 59.0263 40.3311C59.8937 40.6263 60.7007 41.0967 61.1923 42.033C61.4706 41.0091 61.0903 40.3357 60.4038 39.856C59.7452 39.3948 58.966 39.1411 58.2147 38.8597C57.2175 38.4862 56.3316 37.965 55.5617 37.227C55.0329 36.7242 54.5181 36.2077 53.9569 35.7142H53.9522ZM54.9541 39.2149C55.7147 40.4279 56.8789 41.1152 58.1497 41.664C59.2119 42.1207 60.1488 42.688 60.441 43.9241C60.4641 44.0348 60.4827 44.2423 60.7007 44.2377C61.3129 43.1031 60.3065 41.641 59.031 41.1982C57.5932 40.7001 56.1553 40.225 54.9587 39.2149H54.9541ZM29.3609 47.9183C29.7319 47.6278 30.0844 47.3141 30.474 47.0466C31.5547 46.2994 32.8673 45.995 33.9619 45.2616C34.9266 44.6159 35.5806 43.7857 35.8403 42.5496C35.3487 43.0154 35.1075 43.532 34.6994 43.9379C33.7764 44.8465 32.5658 45.2155 31.448 45.7552C30.4972 46.2118 29.7087 46.839 29.3609 47.9137V47.9183ZM26.9259 63.0605C27.501 62.6316 27.8999 62.0366 28.4796 61.5984C29.8896 60.5376 31.5454 59.9011 33.0204 58.951C33.5445 58.6143 34.0083 58.2038 34.4072 57.7241C33.6883 58.0977 33.0482 58.5958 32.3246 58.9095C31.0863 59.4445 29.8572 59.9934 28.7487 60.7636C27.9277 61.3355 27.3155 62.1012 26.9305 63.0559L26.9259 63.0605ZM34.486 51.7927C32.422 53.0334 29.9778 53.4439 27.9741 54.8045C30.2421 54.0066 32.6911 53.6191 34.486 51.7927ZM48.5581 64.1214C47.8021 62.2027 47.7789 60.2885 48.5534 58.3698C47.1574 59.8965 47.0136 63.1067 48.5581 64.1214ZM20.1264 49.8647C19.8852 50.2199 19.3379 50.1784 18.99 50.5012C18.8555 50.6258 18.9715 50.7134 19.0411 50.8195C19.4399 51.456 20.0522 51.8388 20.6783 52.2032C20.7525 52.2447 20.8407 52.3046 20.8963 52.2124C20.9334 52.1524 20.952 52.0371 20.9195 51.9772C20.618 51.3822 20.5716 50.7272 20.4371 50.0907C20.4093 49.957 20.3861 49.837 20.1217 49.8601L20.1264 49.8647ZM72.2079 49.0668C72.9314 48.5179 73.4602 48.0336 73.9054 47.4663C74.1327 47.1757 74.2069 46.9313 73.7153 46.8021C73.3349 46.7007 72.9453 46.6223 72.5279 46.3317C72.5001 46.8483 72.5047 47.2634 72.4537 47.6785C72.4073 48.089 72.3099 48.4949 72.2032 49.0714L72.2079 49.0668ZM71.5307 52.1478C72.1151 51.9956 72.7645 51.6451 73.0798 51.336C73.8219 50.6073 73.808 50.5704 72.8247 50.2245C72.6671 50.1691 72.5279 50.0631 72.3888 49.9662C72.1801 49.814 72.1105 49.897 72.0455 50.1092C71.8368 50.7687 71.8276 51.4652 71.5353 52.1432L71.5307 52.1478ZM22.079 55.0951C21.8286 54.8783 21.9074 54.4586 21.6523 54.1865C21.388 53.9005 21.6199 53.2732 21.2256 53.2271C20.9149 53.1902 20.5716 53.6007 20.2145 53.7575C19.8852 53.9005 19.913 54.108 20.0986 54.2879C20.5763 54.7538 21.1097 55.1597 21.7868 55.3211C21.9306 55.358 22.0976 55.4133 22.079 55.0951ZM20.1403 48.9146C20.0151 48.0152 20.0893 47.1711 19.8527 46.2948C19.5744 46.6223 19.1895 46.6638 18.8323 46.756C18.4659 46.8483 18.3824 47.0097 18.5633 47.3418C18.9251 48.006 19.4817 48.458 20.1403 48.9146ZM72.6485 54.0896C72.3285 53.8774 72.0502 53.6607 71.7394 53.4946C71.3498 53.2824 71.0066 53.2963 70.9556 53.8405C70.9185 54.2418 70.7051 54.5554 70.5428 54.9014C70.4825 55.0305 70.3526 55.1735 70.4732 55.3119C70.5845 55.4364 70.7515 55.4041 70.8907 55.3395C71.271 55.1597 71.6745 55.0028 72.0224 54.7722C72.2589 54.6154 72.4212 54.3479 72.6485 54.0942V54.0896ZM22.6866 56.4327C22.2785 56.6863 21.7822 56.857 21.5317 57.2029C21.3508 57.452 21.8518 57.6734 22.0466 57.904C22.1903 58.07 22.4501 58.13 22.631 58.273C22.8072 58.4113 23.0948 58.5774 23.1736 58.3975C23.2942 58.1161 23.7024 57.8948 23.4797 57.5073C23.3313 57.2536 23.1551 57.0138 22.9835 56.774C22.9 56.6587 22.7933 56.5526 22.6866 56.4327ZM68.72 58.7434C69.2812 58.4159 69.8053 58.3606 70.2599 58.0746C70.5892 57.8671 70.9927 57.6826 71.053 57.309C71.1179 56.9262 70.6031 56.9538 70.3805 56.7509C70.0001 56.4004 69.7311 56.5526 69.5363 56.9954C69.3044 57.535 69.04 58.0562 68.72 58.7342V58.7434ZM50.7473 35.8479C51.4476 36.1108 52.0367 36.3322 52.6257 36.5582C52.7417 36.5997 52.8715 36.7196 52.9689 36.572C53.0663 36.4244 52.9457 36.2999 52.8483 36.1846C52.3753 35.6311 51.6981 35.502 50.7473 35.8479ZM39.3931 36.6228C40.0239 36.5628 40.4599 36.1246 41.035 36.1431C41.2113 36.1477 41.2809 35.9632 41.2623 35.8156C41.2438 35.6588 41.0861 35.6634 40.9562 35.6496C40.2698 35.5527 39.7549 35.8571 39.3931 36.6228Z" fill="url(#paint0_radial_55_26)"/>
<path d="M54.8798 24.6584C55.9049 24.8844 56.7397 26.5034 56.7629 27.4766C56.7768 28.1131 56.7212 28.7449 56.8325 29.3861C56.9763 30.2255 57.5375 30.696 58.2193 31.1387C58.0662 30.8666 57.9085 30.6175 57.774 30.3546C57.1293 29.0955 57.2731 27.8686 57.9549 26.6694C58.0199 26.5541 58.0662 26.3512 58.261 26.4019C58.4002 26.4388 58.4929 26.5633 58.5579 26.7109C59.0263 27.7164 59.1098 28.7357 58.9985 29.8473C58.9057 30.7836 58.6367 31.7798 59.1655 32.7161C59.1655 31.8721 59.2582 31.0557 59.8148 30.3777C60.0792 30.0548 60.3946 29.5936 60.8213 29.7504C61.1088 29.8565 60.8445 30.3685 60.8723 30.696C60.9419 31.4524 60.3807 31.9413 60.0421 32.5132C59.7035 33.0851 59.7684 33.5786 60.3343 33.9799C60.376 33.2327 60.5569 32.5732 61.3593 32.3057C61.5031 32.2595 61.6515 32.195 61.7907 32.2826C61.9901 32.4025 61.7907 32.5409 61.7907 32.6746C61.7907 33.2235 61.3454 33.5787 61.1923 34.0676C61.0393 34.5518 60.9465 35.0085 61.0485 35.502C61.0764 35.6311 61.132 35.7649 60.9604 35.8156C60.8909 35.8387 60.7563 35.8156 60.7285 35.7741C60.3899 35.1561 59.7545 35.3682 59.249 35.2621C58.326 35.0684 57.5607 34.5795 56.6145 34.0952C57.7601 33.7585 58.7295 33.7631 59.7452 34.1783C59.4901 33.3526 58.8733 33.3342 58.3028 33.348C57.2221 33.3803 56.2435 33.1082 55.3437 32.5317C55.1349 32.3979 54.8195 32.2595 54.8567 31.992C54.8938 31.7014 55.2602 31.7383 55.4874 31.6738C56.4197 31.4016 57.3195 31.5169 58.261 32.0612C57.9085 31.3924 57.338 31.1111 56.8789 30.7098C56.749 30.5945 56.5913 30.6452 56.4614 30.7375C55.0607 31.7291 53.5116 31.8398 51.8233 31.5077C52.737 30.4238 53.929 30.0041 55.2648 29.8288C54.3325 28.9894 54.3511 29.0171 53.4327 29.6121C51.9671 30.5622 50.4133 30.6129 48.7993 29.9718C49.6434 29.1139 50.3067 28.8372 52.7602 28.3483C51.9393 28.0347 51.4755 27.3705 50.5015 27.8548C49.3929 28.4036 48.1453 28.3714 46.9626 27.8824C46.791 27.8133 46.5359 27.7764 46.508 27.578C46.4802 27.3613 46.7492 27.3013 46.9023 27.2137C47.6026 26.8124 48.303 26.4111 49.175 26.5357C49.4579 26.5772 49.7779 26.6094 50.135 26.3558C48.4839 25.2211 47.9458 23.6253 48.1685 21.6927C49.5089 22.2739 50.3623 23.2102 50.7241 24.6169C50.9328 25.4287 51.2575 26.2128 51.6888 26.9415C51.9949 27.4581 52.6443 27.5457 53.0571 27.9378C53.0849 27.9655 53.1359 27.9793 53.1777 27.9839C53.4374 28.0208 53.6507 28.5189 53.8502 28.2422C54.0682 27.947 53.6322 27.638 53.4235 27.4996C52.7231 27.0246 52.2222 26.4157 51.8326 25.687C51.392 24.8568 51.6471 23.9712 51.6378 23.1179C51.6378 22.8227 51.9532 22.9565 52.1341 23.0718C53.1498 23.7452 53.7528 24.7276 53.8919 25.8899C53.9986 26.7663 54.3279 27.5596 54.5088 28.4036C54.6758 29.1693 55.5385 29.2846 56.0626 29.7228C56.0765 29.7366 56.1878 29.6812 56.211 29.6351C56.2527 29.5475 56.2017 29.4783 56.1229 29.4276C55.7843 29.197 55.5848 28.8464 55.339 28.5328C54.5552 27.5411 54.6201 26.4019 54.7593 25.2488C54.7824 25.0597 54.8288 24.8752 54.8706 24.6538L54.8798 24.6584Z" fill="url(#paint1_radial_55_26)"/>
<path d="M40.6501 31.5262C39.3931 31.8214 38.2568 31.7798 37.1622 31.3601C36.7216 31.1895 36.2207 31.1065 35.8589 30.7375C35.7522 30.6268 35.5667 30.576 35.4461 30.7006C35.0101 31.1433 34.3469 31.3463 33.9341 32.1627C35.2049 31.4201 36.3459 31.3371 37.5518 31.969C36.768 32.8545 35.7986 33.242 34.6901 33.3434C34.2216 33.3849 33.7532 33.408 33.2801 33.4357C33.0575 33.4495 32.8627 33.5049 32.7235 33.6986C32.6076 33.86 32.2922 33.9661 32.4499 34.2059C32.6122 34.455 32.8256 34.2059 33.0018 34.1275C33.8228 33.7539 34.6437 33.8 35.627 34.0906C34.537 34.7594 33.5398 35.2529 32.3849 35.3867C32.1762 35.4097 31.9397 35.3913 31.7866 35.5758C31.666 35.7188 31.6011 35.9632 31.3553 35.8202C31.1651 35.7095 31.2672 35.4974 31.3043 35.3498C31.4759 34.7041 31.1605 34.169 30.8868 33.6524C30.692 33.2881 30.6039 32.9006 30.4323 32.5363C30.2653 32.1903 30.4184 32.1857 30.7106 32.2457C31.6011 32.4302 31.9119 33.0897 32.0695 33.8877C32.4823 33.5325 32.5658 32.8914 32.2412 32.4809C31.5965 31.6599 31.2486 30.7605 31.4017 29.7043C32.6308 29.9488 33.1873 31.0742 33.0157 32.8868C33.2059 32.4763 33.5677 32.1857 33.4749 31.6046C33.2801 30.35 33.1317 29.0863 33.3079 27.8086C33.3821 27.2782 33.7532 26.9046 33.9758 26.4572C34.1242 26.1574 34.2773 26.5264 34.3237 26.6002C34.8988 27.4812 35.1678 28.4175 34.8895 29.4829C34.7365 30.0733 34.384 30.5622 34.0268 31.1756C35.2652 30.5899 35.678 29.6674 35.6224 28.5097C35.5667 27.3336 35.6687 26.2128 36.5314 25.3042C36.7633 25.0597 37.0277 24.6584 37.3338 24.7461C37.6956 24.8522 37.6167 25.3549 37.6631 25.6916C37.8626 27.1122 37.3245 28.2837 36.3459 29.2892C36.2346 29.4045 36.0491 29.4921 36.2021 29.7412C36.6613 29.4183 37.19 29.2385 37.6307 28.8833C37.742 28.7911 37.8069 28.7219 37.8255 28.5974C37.9414 27.8086 38.2336 27.0615 38.3588 26.2635C38.5583 24.9951 39.0407 23.8236 40.2187 23.0856C40.6408 22.8227 40.715 23.0303 40.766 23.4039C40.984 25.0782 40.3811 26.4019 39.0778 27.4443C38.8505 27.6242 38.651 27.8455 38.4516 28.0531C38.3588 28.1453 38.2846 28.2745 38.382 28.3944C38.4794 28.5189 38.6232 28.4682 38.7253 28.3898C39.2679 27.9839 39.9173 27.7026 40.3996 27.2736C40.7336 26.9784 41.0397 26.4803 41.1742 25.9591C41.3272 25.3687 41.4803 24.7737 41.7076 24.2157C42.1482 23.1272 42.7929 22.2047 44.073 21.8173C44.5044 23.736 43.8504 25.2165 42.1667 26.3281C42.4589 26.6141 42.7697 26.5864 43.0434 26.5495C43.8689 26.4388 44.5971 26.7063 45.3021 27.0799C45.5201 27.1952 45.8169 27.3613 45.7938 27.5873C45.7706 27.8548 45.4134 27.8824 45.1769 27.9609C43.8365 28.4082 42.5424 28.3022 41.2809 27.6518C41.0814 27.5504 40.7336 27.3105 40.7382 27.8732C40.7382 28.0116 40.5249 27.947 40.4089 27.9701C40.1167 28.0208 39.857 28.1269 39.5508 28.4636C41.2113 28.3944 42.4821 29.0632 43.7715 29.9349C42.8022 30.3869 41.8142 30.41 40.831 30.3639C40.0518 30.327 39.3931 29.9303 38.7716 29.4783C38.229 29.0863 37.7234 29.1739 37.0602 29.7966C38.4145 30.0133 39.6251 30.4469 40.6315 31.5308L40.6501 31.5262Z" fill="url(#paint2_radial_55_26)"/>
<path d="M46.1602 26.282C45.3995 26.2036 44.6574 26.0836 43.9756 25.6731C43.7066 25.5117 43.804 25.4149 43.9339 25.318C44.7455 24.7092 45.6546 24.3817 46.675 24.5385C47.329 24.64 47.9227 24.926 48.4792 25.2903C48.6601 25.4102 48.7065 25.5117 48.4792 25.6547C47.765 26.0929 46.9718 26.2036 46.1648 26.2866L46.1602 26.282Z" fill="url(#paint3_radial_55_26)"/>
<path d="M44.7919 21.0286C45.6036 20.7749 45.9839 20.1753 46.2158 19.2574C46.4895 20.1199 46.7863 20.7979 47.7325 21.0009C46.8559 21.3929 46.457 22.0386 46.2576 22.9334C45.9004 22.1493 45.6685 21.3699 44.7966 21.0286H44.7919Z" fill="url(#paint4_radial_55_26)"/>
<path d="M24.7877 45.2939C25.7107 44.9618 26.0771 44.2608 26.3786 43.4582C26.5548 44.3253 27.0418 44.9065 27.8535 45.3031C27.1253 45.6952 26.5131 46.1472 26.4064 47.0697C26.0771 46.3132 25.6597 45.6537 24.7877 45.2985V45.2939Z" fill="url(#paint5_radial_55_26)"/>
<path d="M26.8006 40.1327C27.4314 39.9067 27.6865 39.4224 27.8906 38.8736C28.0112 39.4686 28.3451 39.8698 28.9017 40.1374C28.4054 40.4095 27.9834 40.7139 27.9092 41.3504C27.6819 40.8292 27.399 40.3772 26.8006 40.1327Z" fill="url(#paint6_radial_55_26)"/>
<path d="M63.363 40.1327C63.9938 39.9067 64.2489 39.4224 64.4529 38.8736C64.5735 39.4686 64.9075 39.8698 65.464 40.1374C64.9678 40.4095 64.5457 40.7139 64.4715 41.3504C64.2442 40.8292 63.9613 40.3772 63.363 40.1327Z" fill="url(#paint7_radial_55_26)"/>
<path d="M67.695 45.2847C66.8648 45.6675 66.2943 46.1887 66.0577 47.0927C65.9882 46.1979 65.3017 45.8059 64.7405 45.2847C65.3898 44.8189 66.0624 44.4037 66.0206 43.4352C66.3685 44.2746 66.7488 45.0033 67.695 45.2847Z" fill="url(#paint8_radial_55_26)"/>
<path d="M56.2388 33.7309C55.8075 34.3443 55.2416 33.92 54.8149 33.8093C53.7574 33.5371 52.7695 33.039 51.8558 32.4302C51.7584 32.3656 51.6239 32.3057 51.6471 32.1442C53.4699 31.8352 54.8195 32.8868 56.2388 33.7309Z" fill="url(#paint9_radial_55_26)"/>
<path d="M50.1814 30.9496C50.5478 30.8758 50.8632 31.0327 51.2436 31.0327C51.1601 31.2633 51.0905 31.4478 51.0116 31.6692C50.6916 31.457 50.3298 31.3509 50.1814 30.9496Z" fill="url(#paint10_radial_55_26)"/>
<path d="M43.3587 45.6629C44.2075 45.0679 44.7641 44.2469 46.1416 44.2469C47.3058 44.2469 47.9598 44.7681 48.739 45.317C48.8642 45.4046 48.9802 45.5292 48.9291 45.6814C48.8781 45.8243 48.7065 45.7644 48.5905 45.7598C48.1267 45.7459 47.6629 45.6814 47.2037 45.6306C46.4477 45.5476 45.6685 45.6398 44.9032 45.6814C44.407 45.709 43.9107 45.7782 43.4144 45.8289C43.3959 45.7736 43.3819 45.7183 43.3634 45.6629H43.3587Z" fill="url(#paint11_radial_55_26)"/>
<path d="M46.1926 43.449C45.7798 43.0062 45.1723 43.0201 44.7873 42.6142C44.6945 42.5173 44.5786 42.2544 44.7038 42.2313C45.047 42.1714 45.2604 41.6825 45.65 41.9039C46.0396 42.1207 46.3503 42.1529 46.7585 41.9039C47.1852 41.641 47.4357 42.2221 47.8299 42.2544C47.8113 42.3328 47.816 42.4297 47.7742 42.4896C47.3846 43.0154 46.6657 42.9416 46.1926 43.4536V43.449Z" fill="url(#paint12_radial_55_26)"/>
<path d="M44.509 46.4931C45.5619 46.7283 46.5637 46.6961 47.5609 46.5669C47.6536 46.5531 47.7789 46.5808 47.8531 46.6407C47.9366 46.7053 47.8531 46.7929 47.8021 46.8621C46.9533 48.0244 44.9264 47.8538 44.5044 46.4931H44.509Z" fill="url(#paint13_radial_55_26)"/>
</g>
<defs>
<radialGradient id="paint0_radial_55_26" cx="0" cy="0" r="1" gradientUnits="userSpaceOnUse" gradientTransform="translate(46 -35.2414) rotate(90) scale(126.138 36.3289)">
<stop stop-color="#0E0A0F"/>
<stop offset="1" stop-color="#443149"/>
</radialGradient>
<radialGradient id="paint1_radial_55_26" cx="0" cy="0" r="1" gradientUnits="userSpaceOnUse" gradientTransform="translate(46 -35.2414) rotate(90) scale(126.138 36.3289)">
<stop stop-color="#0E0A0F"/>
<stop offset="1" stop-color="#443149"/>
</radialGradient>
<radialGradient id="paint2_radial_55_26" cx="0" cy="0" r="1" gradientUnits="userSpaceOnUse" gradientTransform="translate(46 -35.2414) rotate(90) scale(126.138 36.3289)">
<stop stop-color="#0E0A0F"/>
<stop offset="1" stop-color="#443149"/>
</radialGradient>
<radialGradient id="paint3_radial_55_26" cx="0" cy="0" r="1" gradientUnits="userSpaceOnUse" gradientTransform="translate(46 -35.2414) rotate(90) scale(126.138 36.3289)">
<stop stop-color="#0E0A0F"/>
<stop offset="1" stop-color="#443149"/>
</radialGradient>
<radialGradient id="paint4_radial_55_26" cx="0" cy="0" r="1" gradientUnits="userSpaceOnUse" gradientTransform="translate(46 -35.2414) rotate(90) scale(126.138 36.3289)">
<stop stop-color="#0E0A0F"/>
<stop offset="1" stop-color="#443149"/>
</radialGradient>
<radialGradient id="paint5_radial_55_26" cx="0" cy="0" r="1" gradientUnits="userSpaceOnUse" gradientTransform="translate(46 -35.2414) rotate(90) scale(126.138 36.3289)">
<stop stop-color="#0E0A0F"/>
<stop offset="1" stop-color="#443149"/>
</radialGradient>
<radialGradient id="paint6_radial_55_26" cx="0" cy="0" r="1" gradientUnits="userSpaceOnUse" gradientTransform="translate(46 -35.2414) rotate(90) scale(126.138 36.3289)">
<stop stop-color="#0E0A0F"/>
<stop offset="1" stop-color="#443149"/>
</radialGradient>
<radialGradient id="paint7_radial_55_26" cx="0" cy="0" r="1" gradientUnits="userSpaceOnUse" gradientTransform="translate(46 -35.2414) rotate(90) scale(126.138 36.3289)">
<stop stop-color="#0E0A0F"/>
<stop offset="1" stop-color="#443149"/>
</radialGradient>
<radialGradient id="paint8_radial_55_26" cx="0" cy="0" r="1" gradientUnits="userSpaceOnUse" gradientTransform="translate(46 -35.2414) rotate(90) scale(126.138 36.3289)">
<stop stop-color="#0E0A0F"/>
<stop offset="1" stop-color="#443149"/>
</radialGradient>
<radialGradient id="paint9_radial_55_26" cx="0" cy="0" r="1" gradientUnits="userSpaceOnUse" gradientTransform="translate(46 -35.2414) rotate(90) scale(126.138 36.3289)">
<stop stop-color="#0E0A0F"/>
<stop offset="1" stop-color="#443149"/>
</radialGradient>
<radialGradient id="paint10_radial_55_26" cx="0" cy="0" r="1" gradientUnits="userSpaceOnUse" gradientTransform="translate(46 -35.2414) rotate(90) scale(126.138 36.3289)">
<stop stop-color="#0E0A0F"/>
<stop offset="1" stop-color="#443149"/>
</radialGradient>
<radialGradient id="paint11_radial_55_26" cx="0" cy="0" r="1" gradientUnits="userSpaceOnUse" gradientTransform="translate(46 -35.2414) rotate(90) scale(126.138 36.3289)">
<stop stop-color="#0E0A0F"/>
<stop offset="1" stop-color="#443149"/>
</radialGradient>
<radialGradient id="paint12_radial_55_26" cx="0" cy="0" r="1" gradientUnits="userSpaceOnUse" gradientTransform="translate(46 -35.2414) rotate(90) scale(126.138 36.3289)">
<stop stop-color="#0E0A0F"/>
<stop offset="1" stop-color="#443149"/>
</radialGradient>
<radialGradient id="paint13_radial_55_26" cx="0" cy="0" r="1" gradientUnits="userSpaceOnUse" gradientTransform="translate(46 -35.2414) rotate(90) scale(126.138 36.3289)">
<stop stop-color="#0E0A0F"/>
<stop offset="1" stop-color="#443149"/>
</radialGradient>
<clipPath id="clip0_55_26">
<rect width="92" height="92" fill="white"/>
</clipPath>
</defs>
</svg>
