<svg width="1894" height="635" viewBox="0 0 1894 635" fill="none" xmlns="http://www.w3.org/2000/svg">
<g filter="url(#filter0_f_38_199)">
<ellipse cx="947.043" cy="317.527" rx="885" ry="256" fill="url(#paint0_radial_38_199)" fill-opacity="0.3"/>
</g>
<path opacity="0.25" d="M1880.25 6H1878.17V82.6318H1880.25V83.6318H1878.17V160.264H1880.25V161.264H1878.17V237.896H1880.25V238.896H1878.17V315.527H1880.25V316.527H1878.17V393.159H1880.25V394.159H1878.17V470.791H1880.25V471.791H1878.17V548.423H1880.25V549.423H1878.17V626.055H1880.25V627.055H17.7344V626.055H91.6318V549.423H17.7344V548.423H91.6318V471.791H17.7344V470.791H91.6318V394.159H17.7344V393.159H91.6318V316.527H17.7344V315.527H91.6318V238.896H17.7344V237.896H91.6318V161.264H17.7344V160.264H91.6318V83.6318H17.7344V82.6318H91.6318V6H17.7344V5H1880.25V6ZM15 626.555H14V5.5H15V626.555ZM92.6318 626.055H169.264V549.423H92.6318V626.055ZM170.264 626.055H246.896V549.423H170.264V626.055ZM247.896 626.055H324.527V549.423H247.896V626.055ZM325.527 626.055H402.159V549.423H325.527V626.055ZM403.159 626.055H479.791V549.423H403.159V626.055ZM480.791 626.055H557.423V549.423H480.791V626.055ZM558.423 626.055H635.055V549.423H558.423V626.055ZM636.055 626.055H712.687V549.423H636.055V626.055ZM713.687 626.055H790.319V549.423H713.687V626.055ZM791.319 626.055H867.95V549.423H791.319V626.055ZM868.95 626.055H945.583V549.423H868.95V626.055ZM946.583 626.055H1023.21V549.423H946.583V626.055ZM1024.21 626.055H1100.85V549.423H1024.21V626.055ZM1101.85 626.055H1178.48V549.423H1101.85V626.055ZM1179.48 626.055H1256.11V549.423H1179.48V626.055ZM1257.11 626.055H1333.74V549.423H1257.11V626.055ZM1334.74 626.055H1411.37V549.423H1334.74V626.055ZM1412.37 626.055H1489.01V549.423H1412.37V626.055ZM1490.01 626.055H1566.64V549.423H1490.01V626.055ZM1567.64 626.055H1644.27V549.423H1567.64V626.055ZM1645.27 626.055H1721.9V549.423H1645.27V626.055ZM1722.9 626.055H1799.53V549.423H1722.9V626.055ZM1800.53 626.055H1877.17V549.423H1800.53V626.055ZM92.6318 548.423H169.264V471.791H92.6318V548.423ZM170.264 548.423H246.896V471.791H170.264V548.423ZM247.896 548.423H324.527V471.791H247.896V548.423ZM325.527 548.423H402.159V471.791H325.527V548.423ZM403.159 548.423H479.791V471.791H403.159V548.423ZM480.791 548.423H557.423V471.791H480.791V548.423ZM558.423 548.423H635.055V471.791H558.423V548.423ZM636.055 548.423H712.687V471.791H636.055V548.423ZM713.687 548.423H790.319V471.791H713.687V548.423ZM791.319 548.423H867.95V471.791H791.319V548.423ZM868.95 548.423H945.583V471.791H868.95V548.423ZM946.583 548.423H1023.21V471.791H946.583V548.423ZM1024.21 548.423H1100.85V471.791H1024.21V548.423ZM1101.85 548.423H1178.48V471.791H1101.85V548.423ZM1179.48 548.423H1256.11V471.791H1179.48V548.423ZM1257.11 548.423H1333.74V471.791H1257.11V548.423ZM1334.74 548.423H1411.37V471.791H1334.74V548.423ZM1412.37 548.423H1489.01V471.791H1412.37V548.423ZM1490.01 548.423H1566.64V471.791H1490.01V548.423ZM1567.64 548.423H1644.27V471.791H1567.64V548.423ZM1645.27 548.423H1721.9V471.791H1645.27V548.423ZM1722.9 548.423H1799.53V471.791H1722.9V548.423ZM1800.53 548.423H1877.17V471.791H1800.53V548.423ZM92.6318 470.791H169.264V394.159H92.6318V470.791ZM170.264 470.791H246.896V394.159H170.264V470.791ZM247.896 470.791H324.527V394.159H247.896V470.791ZM325.527 470.791H402.159V394.159H325.527V470.791ZM403.159 470.791H479.791V394.159H403.159V470.791ZM480.791 470.791H557.423V394.159H480.791V470.791ZM558.423 470.791H635.055V394.159H558.423V470.791ZM636.055 470.791H712.687V394.159H636.055V470.791ZM713.687 470.791H790.319V394.159H713.687V470.791ZM791.319 470.791H867.95V394.159H791.319V470.791ZM868.95 470.791H945.583V394.159H868.95V470.791ZM946.583 470.791H1023.21V394.159H946.583V470.791ZM1024.21 470.791H1100.85V394.159H1024.21V470.791ZM1101.85 470.791H1178.48V394.159H1101.85V470.791ZM1179.48 470.791H1256.11V394.159H1179.48V470.791ZM1257.11 470.791H1333.74V394.159H1257.11V470.791ZM1334.74 470.791H1411.37V394.159H1334.74V470.791ZM1412.37 470.791H1489.01V394.159H1412.37V470.791ZM1490.01 470.791H1566.64V394.159H1490.01V470.791ZM1567.64 470.791H1644.27V394.159H1567.64V470.791ZM1645.27 470.791H1721.9V394.159H1645.27V470.791ZM1722.9 470.791H1799.53V394.159H1722.9V470.791ZM1800.53 470.791H1877.17V394.159H1800.53V470.791ZM92.6318 393.159H169.264V316.527H92.6318V393.159ZM170.264 393.159H246.896V316.527H170.264V393.159ZM247.896 393.159H324.527V316.527H247.896V393.159ZM325.527 393.159H402.159V316.527H325.527V393.159ZM403.159 393.159H479.791V316.527H403.159V393.159ZM480.791 393.159H557.423V316.527H480.791V393.159ZM558.423 393.159H635.055V316.527H558.423V393.159ZM636.055 393.159H712.687V316.527H636.055V393.159ZM713.687 393.159H790.319V316.527H713.687V393.159ZM791.319 393.159H867.95V316.527H791.319V393.159ZM868.95 393.159H945.583V316.527H868.95V393.159ZM946.583 393.159H1023.21V316.527H946.583V393.159ZM1024.21 393.159H1100.85V316.527H1024.21V393.159ZM1101.85 393.159H1178.48V316.527H1101.85V393.159ZM1179.48 393.159H1256.11V316.527H1179.48V393.159ZM1257.11 393.159H1333.74V316.527H1257.11V393.159ZM1334.74 393.159H1411.37V316.527H1334.74V393.159ZM1412.37 393.159H1489.01V316.527H1412.37V393.159ZM1490.01 393.159H1566.64V316.527H1490.01V393.159ZM1567.64 393.159H1644.27V316.527H1567.64V393.159ZM1645.27 393.159H1721.9V316.527H1645.27V393.159ZM1722.9 393.159H1799.53V316.527H1722.9V393.159ZM1800.53 393.159H1877.17V316.527H1800.53V393.159ZM92.6318 315.527H169.264V238.896H92.6318V315.527ZM170.264 315.527H246.896V238.896H170.264V315.527ZM247.896 315.527H324.527V238.896H247.896V315.527ZM325.527 315.527H402.159V238.896H325.527V315.527ZM403.159 315.527H479.791V238.896H403.159V315.527ZM480.791 315.527H557.423V238.896H480.791V315.527ZM558.423 315.527H635.055V238.896H558.423V315.527ZM636.055 315.527H712.687V238.896H636.055V315.527ZM713.687 315.527H790.319V238.896H713.687V315.527ZM791.319 315.527H867.95V238.896H791.319V315.527ZM868.95 315.527H945.583V238.896H868.95V315.527ZM946.583 315.527H1023.21V238.896H946.583V315.527ZM1024.21 315.527H1100.85V238.896H1024.21V315.527ZM1101.85 315.527H1178.48V238.896H1101.85V315.527ZM1179.48 315.527H1256.11V238.896H1179.48V315.527ZM1257.11 315.527H1333.74V238.896H1257.11V315.527ZM1334.74 315.527H1411.37V238.896H1334.74V315.527ZM1412.37 315.527H1489.01V238.896H1412.37V315.527ZM1490.01 315.527H1566.64V238.896H1490.01V315.527ZM1567.64 315.527H1644.27V238.896H1567.64V315.527ZM1645.27 315.527H1721.9V238.896H1645.27V315.527ZM1722.9 315.527H1799.53V238.896H1722.9V315.527ZM1800.53 315.527H1877.17V238.896H1800.53V315.527ZM92.6318 237.896H169.264V161.264H92.6318V237.896ZM170.264 237.896H246.896V161.264H170.264V237.896ZM247.896 237.896H324.527V161.264H247.896V237.896ZM325.527 237.896H402.159V161.264H325.527V237.896ZM403.159 237.896H479.791V161.264H403.159V237.896ZM480.791 237.896H557.423V161.264H480.791V237.896ZM558.423 237.896H635.055V161.264H558.423V237.896ZM636.055 237.896H712.687V161.264H636.055V237.896ZM713.687 237.896H790.319V161.264H713.687V237.896ZM791.319 237.896H867.95V161.264H791.319V237.896ZM868.95 237.896H945.583V161.264H868.95V237.896ZM946.583 237.896H1023.21V161.264H946.583V237.896ZM1024.21 237.896H1100.85V161.264H1024.21V237.896ZM1101.85 237.896H1178.48V161.264H1101.85V237.896ZM1179.48 237.896H1256.11V161.264H1179.48V237.896ZM1257.11 237.896H1333.74V161.264H1257.11V237.896ZM1334.74 237.896H1411.37V161.264H1334.74V237.896ZM1412.37 237.896H1489.01V161.264H1412.37V237.896ZM1490.01 237.896H1566.64V161.264H1490.01V237.896ZM1567.64 237.896H1644.27V161.264H1567.64V237.896ZM1645.27 237.896H1721.9V161.264H1645.27V237.896ZM1722.9 237.896H1799.53V161.264H1722.9V237.896ZM1800.53 237.896H1877.17V161.264H1800.53V237.896ZM92.6318 160.264H169.264V83.6318H92.6318V160.264ZM170.264 160.264H246.896V83.6318H170.264V160.264ZM247.896 160.264H324.527V83.6318H247.896V160.264ZM325.527 160.264H402.159V83.6318H325.527V160.264ZM403.159 160.264H479.791V83.6318H403.159V160.264ZM480.791 160.264H557.423V83.6318H480.791V160.264ZM558.423 160.264H635.055V83.6318H558.423V160.264ZM636.055 160.264H712.687V83.6318H636.055V160.264ZM713.687 160.264H790.319V83.6318H713.687V160.264ZM791.319 160.264H867.95V83.6318H791.319V160.264ZM868.95 160.264H945.583V83.6318H868.95V160.264ZM946.583 160.264H1023.21V83.6318H946.583V160.264ZM1024.21 160.264H1100.85V83.6318H1024.21V160.264ZM1101.85 160.264H1178.48V83.6318H1101.85V160.264ZM1179.48 160.264H1256.11V83.6318H1179.48V160.264ZM1257.11 160.264H1333.74V83.6318H1257.11V160.264ZM1334.74 160.264H1411.37V83.6318H1334.74V160.264ZM1412.37 160.264H1489.01V83.6318H1412.37V160.264ZM1490.01 160.264H1566.64V83.6318H1490.01V160.264ZM1567.64 160.264H1644.27V83.6318H1567.64V160.264ZM1645.27 160.264H1721.9V83.6318H1645.27V160.264ZM1722.9 160.264H1799.53V83.6318H1722.9V160.264ZM1800.53 160.264H1877.17V83.6318H1800.53V160.264ZM92.6318 82.6318H169.264V6H92.6318V82.6318ZM170.264 82.6318H246.896V6H170.264V82.6318ZM247.896 82.6318H324.527V6H247.896V82.6318ZM325.527 82.6318H402.159V6H325.527V82.6318ZM403.159 82.6318H479.791V6H403.159V82.6318ZM480.791 82.6318H557.423V6H480.791V82.6318ZM558.423 82.6318H635.055V6H558.423V82.6318ZM636.055 82.6318H712.687V6H636.055V82.6318ZM713.687 82.6318H790.319V6H713.687V82.6318ZM791.319 82.6318H867.95V6H791.319V82.6318ZM868.95 82.6318H945.583V6H868.95V82.6318ZM946.583 82.6318H1023.21V6H946.583V82.6318ZM1024.21 82.6318H1100.85V6H1024.21V82.6318ZM1101.85 82.6318H1178.48V6H1101.85V82.6318ZM1179.48 82.6318H1256.11V6H1179.48V82.6318ZM1257.11 82.6318H1333.74V6H1257.11V82.6318ZM1334.74 82.6318H1411.37V6H1334.74V82.6318ZM1412.37 82.6318H1489.01V6H1412.37V82.6318ZM1490.01 82.6318H1566.64V6H1490.01V82.6318ZM1567.64 82.6318H1644.27V6H1567.64V82.6318ZM1645.27 82.6318H1721.9V6H1645.27V82.6318ZM1722.9 82.6318H1799.53V6H1722.9V82.6318ZM1800.53 82.6318H1877.17V6H1800.53V82.6318Z" fill="url(#paint1_radial_38_199)"/>
<defs>
<filter id="filter0_f_38_199" x="0.74297" y="0.227345" width="1892.6" height="634.6" filterUnits="userSpaceOnUse" color-interpolation-filters="sRGB">
<feFlood flood-opacity="0" result="BackgroundImageFix"/>
<feBlend mode="normal" in="SourceGraphic" in2="BackgroundImageFix" result="shape"/>
<feGaussianBlur stdDeviation="30.65" result="effect1_foregroundBlur_38_199"/>
</filter>
<radialGradient id="paint0_radial_38_199" cx="0" cy="0" r="1" gradientUnits="userSpaceOnUse" gradientTransform="translate(947.043 317.527) scale(885 256)">
<stop stop-color="#E4A0F7"/>
<stop offset="0.576923" stop-color="#E4A0F7" stop-opacity="0.2"/>
<stop offset="1" stop-color="#E4A0F7" stop-opacity="0"/>
</radialGradient>
<radialGradient id="paint1_radial_38_199" cx="0" cy="0" r="1" gradientUnits="userSpaceOnUse" gradientTransform="translate(947.126 316.027) rotate(90) scale(383.45 1150.4)">
<stop stop-color="#E4A0F7"/>
<stop offset="1" stop-color="#E4A0F7" stop-opacity="0"/>
</radialGradient>
</defs>
</svg>
